<svg width="128" height="20" viewBox="0 0 128 20" fill="none" xmlns="http://www.w3.org/2000/svg">
<g clip-path="url(#clip0_9490_864)">
<path d="M125.302 16.8474C126 16.8474 126.587 17.3996 126.587 18.1204C126.587 18.8529 126 19.4051 125.302 19.4051C124.605 19.4051 124.012 18.8529 124.012 18.1204C124.012 17.3996 124.599 16.8474 125.302 16.8474ZM125.302 19.2191C125.895 19.2191 126.354 18.7482 126.354 18.1204C126.354 17.5101 125.895 17.0392 125.302 17.0392C124.703 17.0392 124.244 17.5101 124.244 18.1204C124.244 18.7482 124.703 19.2191 125.302 19.2191ZM124.802 17.3822H125.378C125.732 17.3822 125.901 17.5217 125.901 17.8124C125.901 18.0797 125.732 18.196 125.506 18.2193L125.936 18.8761H125.686L125.279 18.2309H125.035V18.8761H124.802V17.3822ZM125.035 18.0449H125.279C125.482 18.0449 125.674 18.0332 125.674 17.8007C125.674 17.6031 125.506 17.574 125.349 17.574H125.041V18.0507L125.035 18.0449Z" fill="#101820"/>
<path d="M41.0566 0.693604H47.8229C49.962 0.693604 51.7001 1.33302 52.8219 2.45491C53.8101 3.4431 54.374 4.86145 54.374 6.57044V6.67508C54.374 9.56409 52.7696 11.3545 50.4968 12.1566L56.0597 19.4053H52.479L47.3404 12.7728C47.2881 12.8019 47.2067 12.8019 47.1544 12.8019H44.1607V19.4053H41.0566V0.693604ZM47.5031 10.0233C49.9097 10.0233 51.2467 8.73865 51.2467 6.78552V6.7332C51.2467 4.62312 49.8806 3.52448 47.5555 3.52448H44.1607V10.0233H47.5031Z" fill="#101820"/>
<path d="M62.4359 11.9532L56.1289 0.693604H59.6864L64.017 8.79678L68.3767 0.693604H71.8237L65.54 11.9241V19.4111H62.4359V11.9532Z" fill="#101820"/>
<path d="M118.617 11.9532L112.305 0.693604H115.862L120.193 8.79678L124.552 0.693604H128L121.716 11.9241V19.4111H118.612V11.9532H118.617Z" fill="#101820"/>
<path d="M8.70191 14.0691L3.10409 0.693604H0V19.4111H3.15059V8.38988L7.77766 19.4111H9.57384L14.2358 7.9016V19.4111H17.3748V0.693604H14.2474L8.70191 14.0691Z" fill="#101820"/>
<path d="M91.0009 0.693604L84.4149 8.54683H84.2463V0.693604H81.1016V19.4111H84.2463V11.523H84.38L91.2509 19.4111H95.1746L86.8912 10.0524L94.9246 0.693604H91.0009Z" fill="#101820"/>
<path d="M34.4643 19.411H37.7021L30.8313 0.588867H27.8376L20.9668 19.411H24.0941L25.2683 16.0861H33.2901L34.4643 19.411ZM26.2623 13.2726L29.2792 4.73346L32.2961 13.2726H26.2623Z" fill="#101820"/>
<path d="M109.892 19.411H113.13L106.253 0.588867H103.26L96.3887 19.411H99.516L100.69 16.0861H108.712L109.886 19.411H109.892ZM101.69 13.2726L104.707 4.73346L107.724 13.2726H101.69Z" fill="#101820"/>
</g>
<defs>
<clipPath id="clip0_9490_864">
<rect width="128" height="18.8222" fill="white" transform="translate(0 0.588867)"/>
</clipPath>
</defs>
</svg>
