<svg width="167" height="41" viewBox="0 0 167 41" fill="none" xmlns="http://www.w3.org/2000/svg">
<path d="M117.354 31.8702C117.102 31.8702 116.753 31.8663 116.306 31.858C115.86 31.8497 115.589 31.8459 115.491 31.8459L115.394 31.8702C115.361 32.5841 115.345 33.9069 115.345 35.8381C115.345 36.6089 115.349 37.0675 115.357 37.2134C115.349 37.246 115.325 37.3333 115.284 37.4759C115.244 37.6173 115.215 37.709 115.199 37.7494C115.183 37.7903 115.14 37.8527 115.071 37.9378C115.002 38.0234 114.919 38.0942 114.821 38.1511C114.789 38.1754 114.732 38.198 114.651 38.2179C114.57 38.2384 114.509 38.2649 114.469 38.2975L113.835 38.3218C113.746 38.3296 113.608 38.2323 113.422 38.0295C113.235 37.8262 113.138 37.6803 113.129 37.5913C113.129 37.4692 113.115 37.3355 113.087 37.1891C113.059 37.0432 113.044 36.9338 113.044 36.8609C113.044 36.7227 113.065 36.5768 113.105 36.4227V31.9431L113.02 31.8702C112.898 31.8702 112.715 31.8663 112.472 31.858C112.229 31.8497 112.042 31.8459 111.913 31.8459C111.896 31.8459 111.75 31.8497 111.474 31.858C111.198 31.8663 111.02 31.8702 110.938 31.8702C110.906 32.0326 110.89 32.373 110.89 32.8924C110.89 33.4687 110.898 34.2782 110.914 35.3209C110.93 36.3641 110.938 37.1692 110.938 37.7372C111.028 38.3135 111.182 38.7699 111.401 39.1065C111.62 39.4435 111.985 39.7458 112.497 40.0138C112.813 40.2083 113.099 40.3381 113.355 40.4028C113.61 40.468 113.937 40.5 114.334 40.5C114.407 40.5 114.515 40.4901 114.657 40.4702C114.799 40.4497 114.903 40.4398 114.968 40.4398C114.992 40.4398 115.016 40.4514 115.041 40.4757C115.179 40.395 115.392 40.2978 115.68 40.1839C115.968 40.0701 116.148 39.9972 116.221 39.9651C116.294 39.9325 116.359 39.89 116.416 39.8369C116.473 39.7844 116.546 39.7032 116.635 39.5933C116.725 39.4838 116.786 39.4093 116.818 39.3684C117.004 39.1573 117.158 38.8915 117.281 38.571C117.402 38.2505 117.463 37.9439 117.463 37.6521V37.3841C117.512 37.3841 117.536 37.2134 117.536 36.873V32.0525C117.536 31.931 117.475 31.8702 117.354 31.8702ZM105.078 37.5361C104.672 37.9621 104.165 38.1754 103.556 38.1754C103.231 38.1754 102.931 38.1229 102.656 38.0174C102.38 37.9118 102.176 37.7941 102.047 37.6643C101.56 37.2664 101.317 36.7067 101.317 35.9845C101.317 35.3756 101.522 34.8606 101.931 34.4385C102.341 34.0163 102.85 33.8052 103.458 33.8052C104.157 33.8052 104.725 34.0655 105.163 34.5843C105.512 35.0468 105.686 35.5137 105.686 35.9845C105.686 36.5929 105.484 37.1106 105.078 37.5361ZM106.733 33.0388C105.849 32.089 104.725 31.6143 103.361 31.6143C102.68 31.6143 102.097 31.732 101.615 31.9674C101.132 32.2028 100.623 32.5841 100.087 33.1118C100.038 33.1604 99.9635 33.2737 99.8618 33.4527C99.7601 33.6312 99.669 33.7489 99.5883 33.8052C99.2308 34.6086 99.0523 35.3027 99.0523 35.8867C99.0523 36.5525 99.1822 37.1836 99.4419 37.7798C99.7016 38.376 100.063 38.8854 100.525 39.3076C100.801 39.5833 101.197 39.843 101.712 40.0867C102.227 40.3298 102.801 40.4514 103.435 40.4514C104.684 40.4514 105.739 40.0154 106.599 39.1435C107.459 38.271 107.89 37.2587 107.89 36.1061C107.89 35.4325 107.772 34.828 107.537 34.2926C107.301 33.7566 107.033 33.3389 106.733 33.0388ZM35.7907 35.6983C35.5028 35.8889 35.1116 35.9967 34.6165 36.021H34.3728C34.2104 36.021 34.1291 35.9884 34.1291 35.9237V33.635L34.2512 33.5378C34.2512 33.5295 34.3363 33.5256 34.5065 33.5256C35.2536 33.5256 35.7647 33.7246 36.0404 34.1218C36.162 34.3412 36.2233 34.5357 36.2233 34.7064C36.2233 35.1772 36.0785 35.5077 35.7907 35.6983ZM37.55 33.0024C36.8682 32.2476 35.9227 31.8702 34.7137 31.8702L33.8125 31.8823C33.2124 31.8906 32.8428 31.8945 32.7052 31.8945C32.6405 31.8779 32.5715 31.8702 32.4985 31.8702C32.4013 31.8702 32.2466 31.8779 32.0355 31.8945L31.999 31.9674C31.999 32.4222 32.0051 33.2234 32.0178 34.3716C32.0294 35.5198 32.0355 36.3779 32.0355 36.946C32.0355 37.2703 32.0294 37.7637 32.0178 38.4246C32.0051 39.0866 31.999 39.5955 31.999 39.9524C31.999 40.0988 32.0476 40.1718 32.1455 40.1718L32.2427 40.1839C32.251 40.1839 32.283 40.1856 32.34 40.19C32.3969 40.1939 32.4455 40.1961 32.4858 40.1961C32.8997 40.2287 33.3544 40.2447 33.8495 40.2447C34.0363 40.2447 34.1291 40.1513 34.1291 39.9651V38.2483C34.1291 37.9726 34.1982 37.8102 34.3363 37.7615C35.9835 37.7615 37.1726 37.2587 37.9031 36.2519C38.1302 35.9519 38.244 35.5099 38.244 34.9253C38.244 34.5357 38.191 34.197 38.0854 33.9091C37.9799 33.6207 37.8014 33.3184 37.55 33.0024ZM54.6168 38.2119C54.4096 38.3334 54.1599 38.3948 53.8681 38.3948L53.6974 38.3821L53.4542 38.3704L53.2957 38.3577L53.2111 38.3218V36.946C53.2111 36.8647 53.2432 36.8161 53.3084 36.8001C53.373 36.7835 53.4946 36.7758 53.6731 36.7758C54.282 36.7758 54.6677 36.9216 54.8301 37.2134C54.8948 37.3195 54.9274 37.4532 54.9274 37.6157C54.9274 37.8914 54.824 38.0903 54.6168 38.2119ZM53.2111 33.5378C53.2111 33.4892 53.2515 33.4527 53.3327 33.4284C53.6653 33.4284 53.9311 33.4505 54.13 33.4952C54.3284 33.5394 54.4726 33.6472 54.5621 33.8179C54.5942 33.8743 54.6146 33.9312 54.6229 33.9881C54.6395 34.0693 54.6472 34.1423 54.6472 34.2075C54.6472 34.6457 54.3306 34.8805 53.6974 34.9131L53.6244 34.9253H53.2957L53.2111 34.8523V33.5378ZM56.2662 35.8381C56.2662 35.8138 56.3005 35.7613 56.3695 35.68C56.4386 35.5988 56.516 35.5159 56.6011 35.4303C56.6861 35.3452 56.7408 35.2866 56.7652 35.254C56.9762 34.8485 57.0818 34.4666 57.0818 34.1097C57.0818 33.3389 56.8176 32.7421 56.2905 32.3205C55.7628 31.8984 55.1379 31.6873 54.4157 31.6873H51.2512C51.2186 31.6873 51.1943 31.7 51.1783 31.7243C51.1617 31.7486 51.1457 31.7784 51.1291 31.8155C51.1131 31.8519 51.1009 31.874 51.0926 31.8823L51.0683 39.8916C51.0683 40.0624 51.1169 40.1635 51.2142 40.1961C51.6772 40.2287 52.164 40.2447 52.6751 40.2447C52.8133 40.2447 53.1216 40.2425 53.6001 40.2386C54.0792 40.2342 54.5052 40.2326 54.8787 40.2326C55.5197 40.1917 56.0756 39.9585 56.5463 39.5325C57.0166 39.1065 57.252 38.5368 57.252 37.8223C57.252 37.0918 56.9436 36.4592 56.327 35.9237C56.2861 35.8828 56.2662 35.8547 56.2662 35.8381ZM47.4413 31.8702C47.1905 31.8702 46.8412 31.8663 46.3948 31.858C45.9483 31.8497 45.6765 31.8459 45.5792 31.8459L45.482 31.8702C45.4494 32.5841 45.4333 33.9069 45.4333 35.8381C45.4333 36.6089 45.4372 37.0675 45.4455 37.2134C45.4372 37.246 45.4129 37.3333 45.372 37.4759C45.3317 37.6173 45.3035 37.709 45.2869 37.7494C45.2709 37.7903 45.2283 37.8527 45.1593 37.9378C45.0902 38.0234 45.0073 38.0942 44.9101 38.1511C44.8769 38.1754 44.8205 38.198 44.7393 38.2179C44.6581 38.2384 44.5973 38.2649 44.557 38.2975L43.9237 38.3218C43.8348 38.3296 43.6966 38.2323 43.5099 38.0295C43.3237 37.8262 43.2259 37.6803 43.2176 37.5913C43.2176 37.4692 43.2038 37.3355 43.175 37.1891C43.1468 37.0432 43.1325 36.9338 43.1325 36.8609C43.1325 36.7227 43.1529 36.5768 43.1933 36.4227V31.9431L43.1082 31.8702C42.9866 31.8702 42.8037 31.8663 42.5606 31.858C42.3169 31.8497 42.1302 31.8459 42.0003 31.8459C41.9843 31.8459 41.8378 31.8497 41.5621 31.858C41.2864 31.8663 41.1079 31.8702 41.0267 31.8702C40.9941 32.0326 40.9781 32.373 40.9781 32.8924C40.9781 33.4687 40.9864 34.2782 41.0024 35.3209C41.0184 36.3641 41.0267 37.1692 41.0267 37.7372C41.1157 38.3135 41.2704 38.7699 41.4892 39.1065C41.7085 39.4435 42.0732 39.7458 42.5849 40.0138C42.901 40.2083 43.1872 40.3381 43.443 40.4028C43.6989 40.468 44.0254 40.5 44.4227 40.5C44.4956 40.5 44.6034 40.4901 44.7454 40.4702C44.8874 40.4497 44.9907 40.4398 45.0559 40.4398C45.0802 40.4398 45.1046 40.4514 45.1289 40.4757C45.2665 40.395 45.4797 40.2978 45.7682 40.1839C46.0561 40.0701 46.2362 39.9972 46.3097 39.9651C46.3826 39.9325 46.4473 39.89 46.5042 39.8369C46.5611 39.7844 46.634 39.7032 46.7236 39.5933C46.8125 39.4838 46.8733 39.4093 46.9064 39.3684C47.0927 39.1573 47.2468 38.8915 47.3684 38.571C47.4899 38.2505 47.5513 37.9439 47.5513 37.6521V37.3841C47.5999 37.3841 47.6242 37.2134 47.6242 36.873V32.0525C47.6242 31.931 47.5634 31.8702 47.4413 31.8702ZM79.8383 37.9925C79.8222 37.9765 79.7941 37.9682 79.7532 37.9682C79.7128 37.9682 79.6333 38.003 79.5161 38.0721C79.3979 38.1411 79.2238 38.2097 78.9923 38.2787C78.7608 38.3478 78.4834 38.3821 78.1585 38.3821C77.7529 38.3821 77.3982 38.3008 77.0937 38.1389C76.7893 37.9765 76.5561 37.766 76.3936 37.5057C76.2312 37.246 76.1135 36.9824 76.0405 36.7144C75.9676 36.447 75.9311 36.1751 75.9311 35.8994C75.9311 35.3231 76.1621 34.8159 76.6251 34.3777C77.0876 33.9395 77.6269 33.7201 78.2436 33.7201C78.5762 33.7201 79.0271 33.8422 79.5951 34.0854C79.6438 34.0854 79.7996 33.8356 80.0632 33.3367C80.3273 32.8377 80.4593 32.5272 80.4593 32.4056C80.4593 32.2349 80.2604 32.0752 79.8631 31.9249C79.4653 31.7746 79.1487 31.6917 78.9133 31.6757C78.8077 31.6591 78.6414 31.6508 78.4143 31.6508C77.2296 31.6508 76.3041 31.8862 75.6388 32.357C75.5007 32.4382 75.4316 32.5233 75.4316 32.6128C75.4316 32.5802 75.4079 32.5642 75.3587 32.5642C74.815 32.9454 74.3956 33.4345 74.0989 34.0307C73.8027 34.6269 73.6546 35.2623 73.6546 35.9353C73.6546 36.0331 73.669 36.1586 73.6971 36.3133C73.7259 36.4669 73.7397 36.573 73.7397 36.6299C73.7397 36.6459 73.7259 36.6702 73.6971 36.7028C73.669 36.7349 73.6546 36.7592 73.6546 36.7758L73.6668 36.7879L73.6911 36.8001C73.8861 37.9522 74.3956 38.8534 75.2189 39.5021C76.0428 40.1513 77.0512 40.4757 78.2436 40.4757C78.4221 40.4757 78.5685 40.4641 78.6823 40.4398C79.0067 40.4398 79.4404 40.332 79.9847 40.1171C80.5284 39.9016 80.7997 39.7253 80.7997 39.5872C80.7997 39.5142 80.6538 39.2324 80.3615 38.7412C80.0698 38.2505 79.8952 38.0008 79.8383 37.9925ZM125.828 36.4348C125.746 36.3376 125.645 36.2381 125.523 36.1365C125.401 36.0348 125.292 35.9497 125.194 35.8812C125.097 35.8116 124.963 35.7187 124.793 35.601C124.622 35.4833 124.484 35.3877 124.379 35.3148C123.892 35.0065 123.567 34.7915 123.405 34.67C123.161 34.4749 123.039 34.2677 123.039 34.0489C123.039 33.8782 123.117 33.7444 123.271 33.6472C123.425 33.5499 123.591 33.5013 123.77 33.5013C123.957 33.5013 124.22 33.5682 124.561 33.7019C124.902 33.8356 125.089 33.903 125.121 33.903C125.153 33.903 125.174 33.8909 125.182 33.8666C125.418 33.5417 125.661 33.1201 125.913 32.6001C125.913 32.5841 125.92 32.5658 125.936 32.5459C125.953 32.525 125.961 32.5111 125.961 32.5028L125.973 32.4421C125.973 32.4017 125.874 32.3327 125.675 32.2349C125.476 32.1376 125.332 32.073 125.243 32.0404C124.756 31.8459 124.273 31.7486 123.795 31.7486C122.918 31.7486 122.204 31.9431 121.652 32.3327C121.1 32.7222 120.824 33.3107 120.824 34.0975C120.824 35.0391 121.347 35.8425 122.395 36.5078C122.451 36.5481 122.603 36.6398 122.851 36.7818C123.098 36.9233 123.318 37.0576 123.508 37.1836C123.699 37.309 123.855 37.4328 123.977 37.5543C124.115 37.7333 124.184 37.8997 124.184 38.0538C124.184 38.4108 123.944 38.5893 123.466 38.5893C122.914 38.5893 122.423 38.4799 121.993 38.2605C121.968 38.2522 121.881 38.1914 121.731 38.0781C121.581 37.9643 121.449 37.908 121.336 37.908C121.1 38.2649 120.804 38.7677 120.447 39.417V39.4656C120.447 39.5065 120.617 39.6319 120.958 39.843C121.721 40.2652 122.537 40.4757 123.405 40.4757C124.2 40.4757 124.886 40.2309 125.462 39.7397C126.038 39.2485 126.326 38.6219 126.326 37.8588C126.326 37.567 126.292 37.3195 126.223 37.1161C126.154 36.9134 126.022 36.6863 125.828 36.4348ZM93.9738 31.7972L93.8273 31.8702L93.8152 31.9553C93.8152 32.0199 93.813 32.0912 93.8091 32.168C93.8052 32.2454 93.803 32.3001 93.803 32.3327C93.803 32.4382 93.8069 32.6835 93.8152 33.0692C93.8235 33.4544 93.8273 33.6798 93.8273 33.7444C93.8273 33.8179 93.819 33.9351 93.803 34.0975C93.803 34.6821 93.7058 34.9739 93.5107 34.9739H91.4171C91.4171 34.9579 91.4093 34.8888 91.3928 34.7672C91.3762 34.6457 91.3685 34.4954 91.3685 34.3169C91.3685 32.9615 91.3762 32.1619 91.3928 31.9188C91.3762 31.8215 91.3077 31.7729 91.1856 31.7729H89.445C89.3074 31.7729 89.2301 31.8823 89.214 32.1011C89.214 32.9454 89.1936 34.2235 89.1527 35.9353C89.1124 37.6477 89.0925 38.9302 89.0925 39.7822C89.0925 40.0093 89.1411 40.1392 89.2383 40.1718C89.8064 40.2204 90.3866 40.2447 90.9789 40.2447C91.1657 40.2447 91.2834 40.2083 91.332 40.1353C91.348 39.7214 91.3563 39.1976 91.3563 38.5649C91.3563 38.4511 91.3524 38.2848 91.3441 38.066C91.3359 37.8466 91.332 37.6847 91.332 37.5786C91.332 37.498 91.3359 37.3924 91.3441 37.2626C91.3524 37.1327 91.3563 37.0067 91.3563 36.8852L91.4292 36.8244C91.4779 36.7758 91.6807 36.7515 92.0382 36.7515C92.1757 36.7515 92.4415 36.757 92.8349 36.7697C93.2289 36.7818 93.4908 36.7879 93.6207 36.7879L93.6815 36.8244L93.7666 37.7007C93.7179 38.3821 93.6931 38.9545 93.6931 39.417C93.6931 39.9524 93.75 40.2204 93.8638 40.2204H95.7386C95.8116 40.2204 95.8563 40.1917 95.8723 40.1353C95.8723 39.9568 95.8845 39.6667 95.9088 39.265C95.9331 38.8633 95.9453 38.5771 95.9453 38.4069V31.8702L95.8723 31.7972H93.9738ZM70.4282 31.8459C70.2011 31.8459 69.8646 31.8376 69.4182 31.8215C68.9717 31.805 68.6346 31.7972 68.4075 31.7972C68.3666 31.8293 68.3385 31.8862 68.3224 31.9674C68.3064 32.0486 68.2943 32.1542 68.286 32.284C68.2777 32.4139 68.2694 32.5111 68.2617 32.5758V32.8073C68.2694 32.9537 68.2733 33.0709 68.2733 33.1604C68.2733 33.761 68.2594 34.67 68.2307 35.8867C68.2025 37.104 68.1887 38.0174 68.1887 38.6257C68.1887 39.291 68.2047 39.7944 68.2373 40.1353C68.2694 40.2243 68.3467 40.2773 68.4683 40.2933C68.5169 40.2933 68.5656 40.2956 68.6142 40.2994C68.6628 40.3038 68.6915 40.3055 68.6998 40.3055H70.1724C70.3509 40.3055 70.4608 40.2569 70.5012 40.1596C70.5415 37.9848 70.5619 35.3756 70.5619 32.3327V32.089V31.9674L70.5133 31.8945L70.4282 31.8459ZM65.3812 38.6257C65.3812 38.4881 65.3204 38.4191 65.1988 38.4191H62.7643L62.7278 38.3948C62.7278 37.8019 62.7096 36.81 62.6731 35.4187C62.6366 34.0268 62.6178 33.2659 62.6178 33.1361C62.6178 33.0305 62.6201 32.8924 62.6239 32.7222C62.6283 32.5515 62.6305 32.4625 62.6305 32.4542C62.6062 32.0569 62.5897 31.8536 62.5814 31.8459L62.5084 31.7851H60.5364C60.4314 31.7851 60.3783 31.8862 60.3783 32.089C60.3783 33.0957 60.4026 34.5153 60.4513 36.3497C60.4999 38.1837 60.5286 39.4291 60.5364 40.0867C60.5364 40.1756 61.0884 40.2204 62.1918 40.2204C62.8085 40.2204 63.4097 40.2121 63.9937 40.1961C64.5778 40.1801 65.0242 40.1718 65.3325 40.1718C65.4138 40.1718 65.4547 40.1149 65.4547 40.001C65.4547 39.7905 65.4425 39.5363 65.4176 39.2407C65.3933 38.9446 65.3812 38.7396 65.3812 38.6257ZM133.489 38.4859C133.038 38.4815 132.637 38.4738 132.284 38.4616C131.931 38.4495 131.742 38.4191 131.718 38.3704C131.718 38.2406 131.716 38.0433 131.712 37.7798C131.708 37.5162 131.706 37.356 131.706 37.299C131.706 37.0719 131.742 36.9498 131.816 36.9338C132.034 36.9095 132.805 36.8973 134.128 36.8973L134.225 36.8244C134.225 36.7349 134.23 36.4835 134.238 36.0696C134.246 35.6557 134.253 35.3877 134.262 35.2662C134.262 35.2336 134.246 35.1932 134.213 35.1446C134.181 35.096 134.152 35.0717 134.128 35.0717H131.889C131.759 35.0717 131.693 34.9579 131.693 34.7308V34.7064C131.702 34.6982 131.706 34.6904 131.706 34.6821C131.706 34.5357 131.714 34.3556 131.73 34.1401C131.747 33.9251 131.754 33.7732 131.754 33.6837L132.327 33.6715C132.375 33.6715 132.457 33.6737 132.57 33.6776C132.684 33.682 132.773 33.6837 132.838 33.6837C133.414 33.6837 133.814 33.6676 134.037 33.635C134.26 33.6024 134.372 33.5173 134.372 33.3792C134.372 33.3146 134.378 33.1118 134.39 32.7708C134.402 32.4299 134.408 32.2315 134.408 32.1746L134.372 31.8823C134.307 31.8171 133.824 31.7851 132.923 31.7851C132.769 31.7851 132.558 31.7829 132.29 31.7784C132.022 31.7746 131.844 31.7729 131.754 31.7729C131.519 31.7729 131.164 31.7807 130.689 31.7972C130.215 31.8133 129.863 31.8215 129.636 31.8215L129.515 31.9188C129.515 31.9431 129.519 31.9774 129.527 32.0221C129.535 32.0669 129.539 32.1011 129.539 32.1255C129.539 32.1907 129.527 32.8659 129.503 34.1522C129.478 35.4386 129.466 36.305 129.466 36.7515C129.466 36.946 129.47 37.2278 129.478 37.5974C129.486 37.9665 129.49 38.2406 129.49 38.4191C129.523 38.4191 129.539 38.4312 129.539 38.4555C129.482 38.5611 129.454 38.7473 129.454 39.0153C129.454 39.1125 129.456 39.2893 129.46 39.5446C129.464 39.8005 129.466 40.0055 129.466 40.1596C129.507 40.2812 129.641 40.342 129.868 40.342C129.916 40.342 129.969 40.3403 130.026 40.3359C130.083 40.332 130.115 40.3298 130.123 40.3298C130.497 40.3298 131.053 40.3359 131.791 40.348C132.53 40.3602 133.101 40.3663 133.508 40.3663C133.678 40.3663 133.81 40.3624 133.903 40.3541C133.997 40.3464 134.094 40.3298 134.195 40.3055C134.296 40.2812 134.37 40.2386 134.414 40.1779C134.459 40.1171 134.481 40.0381 134.481 39.9403C134.481 39.827 134.487 39.6524 134.499 39.417C134.512 39.1816 134.518 39.007 134.518 38.8937C134.518 38.6987 134.481 38.5771 134.408 38.5285C134.246 38.5042 133.94 38.4898 133.489 38.4859Z" fill="#231F20"/>
<path d="M5.54752 12.5439L5.59725 11.8339C5.61327 11.5963 5.63814 11.3598 5.67129 11.1299C5.7155 10.8083 5.88568 10.6381 6.21335 10.5934C6.45482 10.5448 6.6996 10.5204 6.94107 10.5204H7.14054C7.1969 10.5204 7.25602 10.5276 7.33559 10.5453L8.56061 10.595C9.14079 10.595 9.52372 10.7735 9.73037 11.1415C9.94808 11.5283 10.1078 11.9875 10.2045 12.5008C10.2194 12.6108 10.2238 12.7213 10.2161 12.8279C10.2072 12.9495 10.2111 13.0733 10.2288 13.1948C10.2437 13.4501 10.2315 13.7054 10.1918 13.9529C10.1514 14.2049 10.0973 14.4663 10.0321 14.7276C9.93703 15.0774 9.75082 15.4249 9.48559 15.7537C9.30435 15.9349 9.08333 16.0228 8.80595 16.0228L7.5638 16.0725H6.84105C6.7532 16.0725 6.66313 16.0819 6.5924 16.0974C6.48134 16.0974 6.34596 16.0814 6.17743 16.0482C6.02438 16.0344 5.89287 15.9504 5.78291 15.799C5.62709 15.5343 5.54752 15.2752 5.54752 15.0243C5.53094 14.6116 5.52652 14.1944 5.53536 13.7844C5.54365 13.3689 5.54752 12.9528 5.54752 12.5439ZM8.83468 6.45253C8.78605 6.73378 8.7087 7.00287 8.60426 7.25263C8.50259 7.49465 8.35616 7.7002 8.16995 7.8632C7.98761 8.02234 7.76493 8.0997 7.50136 8.1008C7.36267 8.08367 7.23282 8.07483 7.11567 8.07483H6.44266C6.34817 8.07483 6.24429 8.0671 6.13268 8.05107C5.81109 8.00742 5.64035 7.83668 5.5978 7.52891C5.5978 7.45818 5.59283 7.38745 5.58399 7.31617C5.57625 7.25429 5.57294 7.18356 5.57294 7.1051V6.66084C5.58896 6.45805 5.58896 6.24919 5.57238 6.03811C5.55636 5.83753 5.54752 5.61761 5.54752 5.3767C5.53094 5.20099 5.52265 5.01533 5.52265 4.82525V4.24009C5.52265 4.04172 5.56023 3.8743 5.63814 3.7334C5.70666 3.58365 5.80667 3.50685 5.96415 3.49248C6.0415 3.47701 6.11002 3.46927 6.16859 3.46927H6.79132C6.9267 3.46927 7.06152 3.46541 7.19635 3.45657C7.3273 3.44883 7.45771 3.44441 7.58866 3.44441C7.81245 3.44441 7.99645 3.52011 8.15227 3.67593C8.31749 3.84115 8.45783 4.04172 8.5689 4.27103C8.68107 4.50477 8.76671 4.75342 8.82252 5.0087C8.87888 5.26674 8.90761 5.49439 8.90761 5.68503C8.90761 5.91102 8.88275 6.16907 8.83468 6.45253ZM15.5366 12.5666C15.4692 12.2295 15.3416 11.8289 15.1576 11.3769C14.9714 10.9211 14.7559 10.5508 14.5183 10.2784C14.3381 10.0668 14.1641 9.84633 13.9989 9.6231C13.8331 9.39931 13.6673 9.17221 13.4999 8.93737C13.3076 8.68596 13.27 8.45168 13.3844 8.22347L13.6375 7.74164L13.8635 7.18964C13.9315 7.00177 13.9911 6.80119 14.0409 6.59288C14.09 6.38788 14.1326 6.18067 14.1663 5.98009C14.2182 5.73807 14.2271 5.45903 14.1912 5.1391L13.9933 4.2528C13.9585 3.95829 13.8701 3.68532 13.7314 3.4422C13.5955 3.20405 13.4325 2.97253 13.2491 2.75592C13.18 2.66973 13.0811 2.56198 12.9551 2.436C12.8308 2.31167 12.6943 2.1879 12.549 2.06854C12.4064 1.9514 12.2688 1.842 12.1345 1.74198C11.9914 1.63479 11.8682 1.56461 11.7538 1.52649C11.5897 1.47731 11.43 1.42426 11.2742 1.36625C11.1217 1.31044 10.9714 1.24137 10.8156 1.15572C10.7316 1.12257 10.6432 1.08831 10.5509 1.0546C10.4481 1.01758 10.3404 0.998795 10.2299 0.998795H9.56958C9.36182 0.998795 9.15074 0.990507 8.93414 0.97393H6.74159L6.60014 0.975035C6.50786 0.991058 6.41724 0.998795 6.33049 0.998795H5.86966C5.81109 0.998795 5.75197 0.991611 5.69008 0.975586C5.60333 0.959009 5.51271 0.946302 5.41767 0.937462C5.24472 0.921436 5.09056 0.917568 4.93529 0.937462C4.87285 0.945749 4.81041 0.949064 4.73195 0.950169C4.54021 0.982218 4.35344 0.998795 4.19762 1.00101C4.04015 0.966747 3.88156 0.949064 3.72685 0.949064H2.53111C2.28578 0.949064 2.04763 0.932487 1.80837 0.899334H1.1232C0.997217 0.899334 0.862945 0.907623 0.736962 0.9242C0.648001 0.9242 0.519255 0.940775 0.331386 0.979454C0.139096 1.04355 0.0374258 1.18003 0.0374258 1.37453C0.0374258 1.46681 0.0556603 1.58451 0.0926816 1.73038L0.340779 2.47523C0.568985 3.2256 0.676734 3.96934 0.66071 4.68214C0.64358 4.95178 0.63916 5.22309 0.648001 5.48832C0.656289 5.75244 0.651869 6.02595 0.635845 6.30168C0.619268 6.58514 0.610427 6.88076 0.610427 7.17969C0.610427 7.48139 0.627556 7.7864 0.66071 8.08367C0.676734 8.3268 0.681154 8.57048 0.672866 8.80808C0.664578 9.05065 0.660157 9.29654 0.660157 9.54684V9.63249C0.627556 9.75295 0.610427 9.87009 0.610427 9.98281V10.3193C0.610427 10.4072 0.614847 10.4862 0.623688 10.5553C0.631424 10.6188 0.635292 10.6895 0.635845 10.7608C0.618715 11.0139 0.623136 11.2752 0.648553 11.5372C0.672866 11.788 0.676734 12.0378 0.660157 12.2875V12.3373C0.660157 12.4887 0.664577 12.6445 0.673418 12.8036C0.681154 12.9561 0.676734 13.1059 0.661815 13.2434C0.610427 13.5678 0.610427 13.9054 0.661815 14.2474C0.677839 14.3447 0.689995 14.4414 0.698283 14.5381C0.705467 14.6298 0.701599 14.7315 0.685575 14.8431L0.636397 15.3117C0.603244 15.5288 0.573958 15.7371 0.549093 15.9372C0.524228 16.1339 0.487759 16.34 0.439687 16.5461C0.391614 16.7229 0.333596 16.9097 0.267289 17.1003C0.202088 17.2887 0.142412 17.4793 0.0948917 17.6562C0.0595281 17.744 0.033558 17.8175 0.0169813 17.8777C-0.00456836 17.9518 -0.00512112 18.0396 0.0125607 18.1175C0.0125607 18.348 0.133571 18.5027 0.371723 18.5668C0.575616 18.601 0.824266 18.6182 1.11049 18.6182C1.29504 18.6182 1.47131 18.6137 1.63929 18.6049C1.8034 18.5972 1.97635 18.5933 2.15703 18.5933C2.16532 18.5933 2.19847 18.5922 2.20676 18.59C2.33109 18.559 2.46094 18.543 2.59355 18.543H3.00465C3.18037 18.543 3.37431 18.5513 3.58152 18.5679C3.79094 18.5845 3.99097 18.5933 4.17552 18.5933L4.40483 18.5911C4.4949 18.6088 4.61922 18.6182 4.77339 18.6182L5.10989 18.6171C5.24085 18.601 5.36352 18.5889 5.47845 18.5806C5.59228 18.5723 5.71439 18.5684 5.84479 18.5684H6.89134C6.94659 18.5684 7.00185 18.5635 7.0571 18.5546C7.10241 18.5469 7.15491 18.543 7.21513 18.543H7.5638C7.73785 18.543 7.82295 18.5552 7.87765 18.5679C8.20587 18.6005 8.53851 18.6176 8.87778 18.6176H8.89601C9.04354 18.601 9.18721 18.5889 9.32645 18.5806C9.52316 18.569 9.74474 18.5535 9.92874 18.5795C9.99173 18.5889 10.0586 18.5933 10.1304 18.5933H10.5415C10.6609 18.5933 10.7764 18.5745 10.883 18.5386C11.1405 18.4585 11.4521 18.401 11.7997 18.369C12.0163 18.369 12.2351 18.3054 12.4528 18.1778C12.8363 17.928 13.206 17.6805 13.5513 17.4418C13.9044 17.1981 14.221 16.9202 14.4918 16.6157C14.7631 16.3096 14.9907 15.9626 15.1681 15.5819C15.3466 15.1995 15.4626 14.7398 15.5129 14.2226C15.5466 14.0165 15.5593 13.8043 15.551 13.591C15.5427 13.3855 15.5388 13.1832 15.5361 13.0097C15.5726 12.8616 15.5726 12.7108 15.5366 12.5666Z" fill="#231F20"/>
<path d="M31.0869 13.5065C31.0239 13.5065 30.9814 13.5269 30.9543 13.5485C30.8797 13.5888 30.7929 13.6584 30.6813 13.7722C30.4028 14.1485 30.0707 14.5304 29.6945 14.9066C29.3259 15.2752 28.9126 15.5355 28.4584 15.6808C28.0042 15.8598 27.5262 15.9792 27.0389 16.0361C26.5499 16.0935 26.0509 16.1223 25.5558 16.1223H24.4595C24.0208 16.1223 23.7368 16.0029 23.6152 15.7664C23.4826 15.5084 23.4146 15.1597 23.4146 14.7293C23.4146 14.579 23.4064 14.4281 23.3892 14.2811L23.3389 13.8673C23.2903 13.5424 23.2737 13.265 23.2887 13.0528C23.3229 12.8633 23.3362 12.6671 23.3273 12.4699C23.3185 12.2748 23.2975 12.0814 23.2649 11.9024C23.2329 11.6167 23.2406 11.3592 23.2898 11.1288C23.3058 10.9956 23.3224 10.8542 23.3395 10.7039C23.3566 10.5475 23.3566 10.3967 23.3378 10.248C23.2898 10.0237 23.2655 9.81262 23.2655 9.62144V8.52517C23.2655 8.43013 23.2815 8.28481 23.3124 8.10136C23.3644 7.89194 23.3738 7.63666 23.3395 7.34104C23.3229 7.21064 23.3108 7.07581 23.3025 6.93712C23.2942 6.79843 23.2903 6.66305 23.2903 6.5321C23.2903 6.47463 23.2854 6.42269 23.2754 6.37462C23.2688 6.34146 23.2655 6.30279 23.2655 6.25803C23.2655 6.13812 23.2566 6.02374 23.2389 5.9171C23.224 5.82814 23.224 5.72978 23.2384 5.62977C23.2721 5.46235 23.2975 5.30045 23.3146 5.14739C23.3318 4.99212 23.3318 4.8258 23.3152 4.66335C23.3152 4.19036 23.3776 3.65272 23.4997 3.06425C23.6224 2.47578 23.776 1.9619 23.9523 1.54417L24.002 1.44471C24.0075 1.43366 24.0109 1.42205 24.0125 1.41045C24.0341 1.21319 23.9385 1.06842 23.744 1.00432C23.7335 1.00045 23.723 0.998796 23.7119 0.998796C23.4141 0.998796 23.1157 0.994928 22.8179 0.986639C22.5195 0.978352 22.2217 0.965643 21.9178 0.949066H21.7686C21.6327 0.949066 21.5094 0.953487 21.3989 0.961777C21.2934 0.970064 21.1757 0.973932 21.0458 0.973932L20.4922 0.975588C20.406 0.959011 20.3154 0.945751 20.2203 0.936911C20.0601 0.922543 19.8761 0.915913 19.723 0.937462C19.6694 0.945751 19.612 0.949064 19.534 0.950171C19.4418 0.966194 19.3511 0.973932 19.2644 0.973932H18.9776C18.7848 0.973932 18.6488 0.966194 18.5544 0.949066L18.1112 0.950724C17.9548 0.98222 17.8454 1.04797 17.7852 1.14633C17.7272 1.24137 17.7189 1.36072 17.7565 1.48836C17.7736 1.61048 17.8051 1.73149 17.8493 1.84697C17.8896 1.95361 17.9267 2.05584 17.9615 2.15861C18.1073 2.53214 18.2145 2.90733 18.2803 3.27312C18.3455 3.64112 18.3864 4.0268 18.403 4.41857C18.419 4.79431 18.4234 5.16894 18.4157 5.53307C18.4068 5.89942 18.403 6.27405 18.403 6.65642C18.403 6.69897 18.4085 6.74096 18.4184 6.77964C18.4245 6.80616 18.4278 6.83158 18.4295 6.87468C18.4781 7.13328 18.5024 7.40348 18.5024 7.6781C18.5024 7.7223 18.4986 7.76706 18.4919 7.81016C18.482 7.86486 18.4776 7.92951 18.4776 8.0019V9.54684C18.4776 9.72864 18.4731 9.91816 18.4654 10.1154C18.4566 10.321 18.4698 10.521 18.5041 10.7094C18.551 10.9929 18.535 11.2891 18.4555 11.5902C18.403 11.8007 18.3941 12.0477 18.4278 12.3124V12.5936C18.4444 12.8191 18.44 13.0351 18.4162 13.2346C18.3908 13.4484 18.3864 13.6767 18.4035 13.9159L18.4532 14.4524C18.4693 14.6226 18.4776 14.8 18.4776 14.9785C18.4776 15.2387 18.4615 15.4896 18.4289 15.7244C18.3969 15.9576 18.3394 16.1985 18.2587 16.4411C18.1919 16.6406 18.1256 16.845 18.0593 17.0528C17.993 17.2594 17.9338 17.4666 17.8841 17.6661C17.8073 17.9335 17.8123 18.1214 17.899 18.2397C17.9814 18.3529 18.1283 18.4292 18.335 18.4662C18.7533 18.5502 19.1285 18.5927 19.4512 18.5927H19.7131C19.8103 18.5927 19.9048 18.5839 19.9744 18.5679H20.4607C20.5436 18.5679 20.6242 18.5756 20.722 18.5927L21.71 18.5916C21.8056 18.5762 21.9509 18.5679 22.1421 18.5679C22.2664 18.5679 22.3687 18.5756 22.4466 18.5911C22.5366 18.6088 22.6311 18.6182 22.7278 18.6182H23.0146L23.2511 18.6171C23.7777 18.5513 24.3103 18.5182 24.8331 18.5182L24.9215 18.5176C25.0729 18.5342 25.2199 18.5474 25.363 18.5557C25.5055 18.564 25.6531 18.5679 25.805 18.5679H26.7515C27.1345 18.5679 27.5168 18.564 27.8997 18.5557C28.2849 18.5474 28.6728 18.5264 29.0596 18.4922C29.3773 18.4419 29.7248 18.3656 30.0879 18.2662C30.3338 18.2098 30.5161 18.0662 30.6272 17.8429C30.7128 17.6899 30.7902 17.5219 30.8576 17.344C30.9261 17.1644 30.978 16.9782 31.014 16.7721C31.014 16.7268 31.0178 16.6781 31.0256 16.6245C31.0344 16.561 31.0388 16.5024 31.0377 16.4649C31.0709 16.2637 31.0963 16.0642 31.1134 15.8714C31.13 15.6758 31.1388 15.4841 31.1388 15.3023C31.1388 15.0901 31.1471 14.8834 31.1631 14.6878C31.1786 14.4989 31.219 14.3055 31.2853 14.106C31.3212 13.9612 31.3223 13.8303 31.288 13.7159C31.2808 13.5617 31.1808 13.5065 31.0869 13.5065Z" fill="#231F20"/>
<path d="M41.2065 11.3846C41.1341 11.4642 41.0584 11.5162 40.9932 11.5394C40.5589 11.6018 40.1787 11.5935 39.8544 11.5758C39.4996 11.557 39.0703 11.5769 38.6415 11.4918C38.5155 11.4581 38.3497 11.3758 38.368 11.0515C38.3835 10.8934 38.4116 10.7348 38.452 10.5818C38.4918 10.4293 38.5448 10.2701 38.6083 10.1121C38.694 9.92313 38.7625 9.73416 38.8133 9.54905L38.9559 9.01915C38.9924 8.94566 39.0272 8.84123 39.0576 8.71469C39.157 8.48372 39.2499 8.24226 39.3344 7.99747C39.4173 7.75767 39.5002 7.52117 39.5781 7.30015L39.6781 7.10068C39.709 7.03879 39.7394 6.98409 39.7682 6.94209C39.803 6.89512 39.8278 6.88297 39.8267 6.87744C39.8267 6.878 39.8323 6.88408 39.8372 6.90562C39.84 6.91446 39.8433 6.9233 39.8477 6.93104C39.9792 7.16146 40.1041 7.39795 40.2185 7.635C40.3301 7.86763 40.4108 8.12291 40.4589 8.39255C40.4926 8.597 40.5406 8.79095 40.5998 8.96832C40.6589 9.14624 40.7313 9.33024 40.8169 9.51756C40.8805 9.6452 40.9324 9.77837 40.9722 9.91153C41.0131 10.0519 41.0501 10.1878 41.0827 10.316L41.2573 11.1133C41.2833 11.2299 41.2667 11.3189 41.2065 11.3846ZM49.5396 18.0385L49.3605 17.7578C48.6549 16.8224 48.0847 15.82 47.667 14.7784C47.2459 13.7302 46.8569 12.639 46.511 11.5338C46.3452 11.0211 46.169 10.505 45.9861 9.99828C45.7993 9.48054 45.6059 8.96445 45.4103 8.45831C45.3285 8.28039 45.2589 8.10688 45.202 7.94333C45.1456 7.78474 45.1009 7.61345 45.0699 7.44658C45.0523 7.20124 44.9815 6.96143 44.8644 6.74317C44.797 6.57685 44.7307 6.4144 44.6638 6.25582C44.6003 6.10497 44.5522 5.94804 44.5179 5.77951L44.2886 5.04296L44.0433 4.52963C43.961 4.30032 43.8864 4.07156 43.8206 3.84943C43.7526 3.62178 43.6587 3.38529 43.5399 3.14769C43.4736 3.01563 43.4123 2.88799 43.3542 2.76421C43.2946 2.63713 43.2216 2.50396 43.1316 2.35974L42.4298 1.4331C42.3204 1.30546 42.1569 1.19551 41.9364 1.10378C41.6772 1.01758 41.4319 0.97393 41.2065 0.97393H40.1102C40.0152 0.97393 39.9207 0.966194 39.8389 0.952932C39.7135 0.917017 39.5908 0.899334 39.4753 0.899334H39.1388C39.052 0.899334 38.9658 0.903755 38.8791 0.912596C38.7929 0.921436 38.7067 0.934145 38.6304 0.949617C38.4326 0.969509 38.3083 1.01648 38.2392 1.09715C38.1718 1.17616 38.1403 1.30381 38.1403 1.49886L38.142 1.64142C38.1746 1.82321 38.2033 2.01163 38.2282 2.20945C38.2519 2.39676 38.2475 2.57966 38.216 2.75537C38.1829 2.988 38.1497 3.21178 38.1166 3.42728C38.0845 3.63394 38.0282 3.83562 37.9469 4.03123C37.8635 4.26496 37.7845 4.49869 37.7088 4.73187C37.6347 4.96339 37.5563 5.19546 37.4734 5.42698C37.3562 5.76128 37.2507 6.09005 37.1601 6.40446C37.0689 6.71996 36.9733 7.04321 36.8744 7.37364C36.791 7.63887 36.6998 7.89138 36.6031 8.12512C36.5025 8.36824 36.4097 8.618 36.3279 8.86278C36.2451 9.07883 36.166 9.28659 36.0914 9.48662C36.0152 9.6894 35.9511 9.90324 35.9036 10.1105C35.8196 10.3447 35.7411 10.5829 35.666 10.8249C35.5914 11.0647 35.5129 11.2996 35.4311 11.5283C35.3151 11.8261 35.1958 12.1201 35.0714 12.4096C34.9449 12.7047 34.8382 13.0241 34.7554 13.3573L34.6819 13.6269C34.5498 14.0391 34.3962 14.4381 34.2249 14.8122C34.0509 15.194 33.8724 15.5752 33.6895 15.9576C33.6088 16.1355 33.5105 16.3162 33.3972 16.4936C33.2822 16.6743 33.1717 16.861 33.0717 17.045C32.9562 17.2417 32.8325 17.4318 32.7032 17.6097C32.5678 17.7954 32.4402 17.9916 32.3236 18.191C32.3147 18.2065 32.3103 18.2242 32.3103 18.2424V18.417C32.3103 18.4441 32.3208 18.4695 32.3396 18.4889C32.4098 18.559 32.5153 18.5933 32.6606 18.5933L32.8767 18.5916C32.9717 18.5762 33.0629 18.5684 33.1463 18.5684H33.4331C33.6701 18.5684 33.7834 18.5806 33.8569 18.5933C33.9348 18.5933 34.0055 18.5966 34.068 18.6049C34.1382 18.6137 34.2166 18.6182 34.305 18.6182C34.5553 18.6182 34.8056 18.6137 35.056 18.6055C35.3063 18.5972 35.5566 18.5845 35.8168 18.5668L36.2666 18.4916C36.497 18.4502 36.6241 18.2911 36.6241 18.043C36.6241 17.5003 36.649 16.95 36.6982 16.4079C36.7473 15.872 36.8711 15.336 37.0617 14.8243C37.1673 14.6138 37.2281 14.4403 37.2419 14.3132C37.2811 14.1955 37.3651 14.1192 37.4944 14.0806L37.6933 14.0308C37.7336 14.0203 37.8187 14.0087 37.9928 14.0087C38.1459 14.0087 38.2265 14.0209 38.2917 14.0336H39.3256C39.4261 14.0336 39.535 14.0419 39.6621 14.0585C39.8991 14.0585 40.1875 14.0419 40.5091 14.0087C40.7832 14.0087 41.0705 14.017 41.3628 14.0336C41.6441 14.0496 41.9259 14.0983 42.206 14.1806C42.3442 14.2115 42.3696 14.2718 42.3829 14.3425L42.6321 14.9895C42.81 15.4609 42.921 15.9504 42.9614 16.4444C43.0028 16.9505 43.0238 17.4633 43.0238 17.9684C43.0238 18.2507 43.1879 18.4281 43.5051 18.4668L44.0306 18.5668C44.1356 18.5845 44.2417 18.5933 44.3461 18.5933L44.8859 18.5916C44.9826 18.5762 45.0832 18.5635 45.1887 18.5557C45.5976 18.5248 45.9551 18.5447 46.311 18.5557C46.5757 18.564 46.8492 18.5767 47.1365 18.5933H48.482C48.6185 18.5933 48.7566 18.5845 48.8931 18.5673C49.0296 18.5508 49.1677 18.5248 49.2893 18.4927C49.3981 18.4822 49.4771 18.4413 49.5258 18.3717C49.5777 18.296 49.5865 18.1932 49.5523 18.0662C49.5495 18.0562 49.5451 18.0468 49.5396 18.0385Z" fill="#231F20"/>
<path d="M64.5417 14.5467C64.356 14.4169 64.1985 14.3539 64.0598 14.3539C63.8034 14.3539 63.5465 14.4627 63.3023 14.6727C63.1183 14.8064 62.9321 14.9501 62.7497 15.0998C62.5707 15.2462 62.3823 15.3772 62.1872 15.4905C62.0552 15.5734 61.9187 15.6557 61.7783 15.7386C61.6407 15.8192 61.4976 15.8933 61.3578 15.9552C61.1484 16.0358 60.9351 16.1016 60.7235 16.1502C60.5119 16.1994 60.2903 16.232 60.0737 16.2475C59.5648 16.2475 59.1432 16.2187 58.8199 16.1618C58.5028 16.1066 58.1132 15.9314 57.6607 15.6402C57.5308 15.5595 57.4032 15.4728 57.2805 15.3827C57.154 15.2904 57.023 15.202 56.8832 15.1136C56.7186 15.0241 56.5644 14.8528 56.4301 14.6169C56.3948 14.529 56.355 14.4489 56.3102 14.3771C56.2688 14.3113 56.2235 14.2367 56.1737 14.1533C55.9947 13.8615 55.829 13.5504 55.6809 13.2294C55.5339 12.9117 55.419 12.5868 55.3377 12.2608C55.2874 12.0768 55.2416 11.8861 55.2024 11.6939C55.1626 11.5049 55.151 11.3131 55.167 11.117C55.167 11.0374 55.1703 10.9578 55.1786 10.8777C55.188 10.786 55.1836 10.6921 55.1659 10.6014C55.1333 10.4086 55.1128 10.2075 55.1046 10.0036C55.0963 9.79803 55.0924 9.59579 55.0924 9.39798C55.0924 9.12446 55.1167 8.88079 55.1642 8.67468C55.1979 8.53875 55.2234 8.41553 55.2405 8.30392L55.2897 7.97238C55.3084 7.87624 55.3129 7.79612 55.3029 7.72539C55.2963 7.68008 55.3002 7.62041 55.3145 7.54857C55.3471 7.38446 55.3841 7.2198 55.4256 7.05514C55.467 6.88771 55.5052 6.72029 55.5355 6.56392C55.5974 6.37826 55.6665 6.23846 55.7521 6.13348L55.9792 5.729C56.1588 5.35326 56.3572 5.00571 56.5716 4.69296C56.7639 4.3885 56.9993 4.12935 57.2778 3.91551C57.5115 3.69725 57.7883 3.55469 58.1049 3.4917L58.4177 3.41214C58.9448 3.19553 59.5184 3.18945 60.2439 3.40274C60.6036 3.50939 60.9589 3.64973 61.2993 3.81992C61.6407 3.99121 61.9623 4.18903 62.2552 4.40839C62.5469 4.62721 62.7934 4.84547 62.9912 5.05875C63.0608 5.12893 63.1619 5.21347 63.3039 5.31956C63.4686 5.43504 63.625 5.55053 63.7731 5.66546C63.9178 5.77818 64.0571 5.90085 64.1875 6.03125L64.3118 6.15558C64.3195 6.16331 64.3284 6.16939 64.3378 6.17436C64.3847 6.19812 64.4339 6.21028 64.4836 6.21028C64.5488 6.21028 64.6395 6.17768 64.7025 6.02186C64.7074 6.0097 64.7096 5.99699 64.7096 5.98428L64.7091 5.8467C64.7262 5.70635 64.7262 5.57153 64.7085 5.44665C64.6925 5.33558 64.6848 5.21513 64.6848 5.08693C64.6848 4.89133 64.6665 4.74269 64.6306 4.63494C64.5505 4.36419 64.5102 4.08073 64.5102 3.79174C64.5102 3.49723 64.5019 3.20161 64.4853 2.91981C64.4853 2.80598 64.4892 2.69215 64.4975 2.57777C64.5063 2.45953 64.5102 2.33244 64.5102 2.19706V1.74839C64.5102 1.59864 64.5019 1.44393 64.482 1.27485C64.4361 1.09195 64.3527 0.999121 64.2344 0.999121C64.1985 0.999121 64.1593 1.01238 64.0228 1.09526L63.6968 1.34557C63.336 1.63953 62.9597 1.71358 62.5574 1.58151C62.3685 1.49587 62.1839 1.42735 62.0076 1.37707C61.8325 1.32679 61.6535 1.27706 61.4811 1.23064C61.396 1.19694 61.3158 1.1671 61.239 1.14168C61.1661 1.11737 61.0893 1.08919 61.0136 1.05824C60.7616 0.941103 60.4561 0.826721 60.1035 0.717316C59.7466 0.606804 59.4178 0.550444 59.1266 0.550444C58.9724 0.550444 58.8487 0.559837 58.7575 0.577518C58.6829 0.592991 58.5553 0.600727 58.3663 0.601278C58.2409 0.617855 58.1265 0.621725 58.0259 0.613438C57.9066 0.604044 57.7751 0.618408 57.6496 0.650457C56.6617 0.717869 55.6936 0.972597 54.7691 1.40967C53.5983 2.02798 52.623 2.84245 51.8704 3.82987C51.119 4.81507 50.5272 5.93953 50.1105 7.17394C49.9089 7.79556 49.8066 8.45145 49.8066 9.12391C49.8066 9.82345 49.8525 10.5114 49.9442 11.1684C50.036 11.8276 50.2012 12.5006 50.4355 13.1697C50.5029 13.3559 50.5802 13.5322 50.6653 13.693C50.7476 13.8505 50.8305 14.0118 50.9151 14.1798C51.0311 14.3964 51.1482 14.6053 51.2654 14.8058C51.382 15.0059 51.5091 15.2087 51.6422 15.4087C51.7456 15.564 51.8671 15.712 52.0119 15.8552C52.3368 16.1154 52.6335 16.4116 52.9004 16.7442C53.0209 16.8658 53.2198 17.0315 53.5088 17.252C53.8033 17.4775 54.0337 17.6128 54.2094 17.6653C54.4807 17.7615 54.7824 17.925 55.1084 18.1527C55.162 18.1886 55.2156 18.2195 55.2692 18.2466C55.3239 18.2737 55.3781 18.2963 55.4228 18.3107C55.7273 18.4461 56.0445 18.5489 56.3649 18.6163C56.6854 18.6831 57.0142 18.7423 57.3396 18.7909C57.5242 18.8246 57.7071 18.85 57.8839 18.8671C58.0497 18.8826 58.2243 18.9147 58.4094 18.9655C58.6636 19.0163 58.9216 19.0417 59.1763 19.0417C59.8488 19.0417 60.4975 18.9312 61.1048 18.7119L61.3661 18.6157C61.6617 18.5505 61.8988 18.4908 62.0784 18.4373C62.2983 18.3527 62.5591 18.2201 62.8542 18.0433C63.1437 17.8692 63.4388 17.6797 63.7311 17.4791C64.025 17.2774 64.2936 17.0647 64.5279 16.847C64.7654 16.6265 64.9472 16.4182 65.0705 16.2248C65.3777 15.6822 65.3208 15.2125 64.9041 14.8324C64.8323 14.7611 64.7141 14.6677 64.5417 14.5467Z" fill="#231F20"/>
<path d="M84.2702 18.0184L83.5999 17.3985C83.4678 17.2664 83.3441 17.1382 83.2291 17.0144C83.1131 16.8907 82.9976 16.763 82.8838 16.6326C82.8015 16.5343 82.7241 16.4359 82.6501 16.3376C82.5744 16.2364 82.4915 16.1408 82.4042 16.0524C82.1655 15.8137 81.9881 15.5568 81.877 15.286C81.74 14.9783 81.5748 14.7175 81.388 14.5136C81.1974 14.2914 81.0526 14.05 80.9565 13.7947C80.8543 13.5383 80.7239 13.3046 80.5686 13.0974C80.3404 12.8045 80.1116 12.4835 79.8884 12.1442C79.669 11.8121 79.4922 11.4706 79.3557 11.1153L77.766 8.38351C77.6815 8.19951 77.5936 8.01882 77.5013 7.84255C77.4146 7.67679 77.3461 7.49555 77.2974 7.30105C77.2671 7.19606 77.2516 7.09218 77.2516 6.99328C77.2516 6.90321 77.2803 6.80706 77.34 6.70374C77.5157 6.36778 77.7516 6.0578 78.0312 5.79202C78.1511 5.70692 78.2606 5.6152 78.3556 5.52016C78.4501 5.42567 78.5418 5.31627 78.6258 5.19857C78.7877 4.98805 78.9595 4.80018 79.1402 4.63552L79.5265 4.24928C79.6541 4.12219 79.7773 3.99013 79.8978 3.85144C80.0265 3.67462 80.1647 3.51604 80.3094 3.37956C80.4553 3.24142 80.62 3.10604 80.8029 2.97232C80.9012 2.89054 80.9996 2.81263 81.0979 2.73859C81.2029 2.66013 81.3007 2.56674 81.3902 2.45955C81.5179 2.29986 81.6969 2.12967 81.913 1.95893C82.045 1.8766 82.1771 1.78709 82.3053 1.69315C82.4296 1.60198 82.5622 1.49534 82.6987 1.37599C82.707 1.3688 82.7142 1.35996 82.7197 1.35002C82.8274 1.16159 82.833 1.13231 82.833 1.10026C82.833 1.08921 82.8307 1.07871 82.8274 1.06766C82.7965 0.976488 82.7296 0.923994 82.644 0.923994C82.613 0.923994 82.5777 0.917915 82.5396 0.904654C82.4904 0.88863 82.4368 0.90134 82.3743 0.914049C82.3412 0.920679 82.3108 0.923994 82.2826 0.923994C82.2616 0.923994 82.25 0.922337 82.2506 0.9251C82.2323 0.908524 82.208 0.89913 82.1832 0.89913H81.4355C81.4245 0.89913 81.4134 0.901339 81.4029 0.904654C81.3814 0.911837 81.3212 0.923994 81.1615 0.923994C81.083 0.923994 81.0123 0.920679 80.9498 0.91239C80.8797 0.903549 80.8007 0.89913 80.7128 0.89913C80.3912 0.89913 80.0895 0.933941 79.816 1.00191C79.6928 1.03285 79.5922 1.04887 79.5171 1.04887C79.4878 1.04887 79.4524 1.045 79.4088 1.03782C79.353 1.02843 79.3071 1.02345 79.2844 1.02511C79.1784 1.00798 79.0303 0.999142 78.8446 0.999142L78.6534 1.00025C78.328 1.0544 78.0788 1.20304 77.9064 1.4539C77.8539 1.55888 77.7936 1.71415 77.7268 1.91418C77.5991 2.28107 77.4306 2.5789 77.2162 2.81208L76.9344 3.22263C76.8046 3.48233 76.6316 3.76303 76.4244 4.05036C76.341 4.14982 76.2592 4.26199 76.1802 4.3841C76.1128 4.48909 76.0255 4.58026 75.9161 4.65817C75.679 4.84438 75.4895 5.02617 75.3558 5.19305C75.1889 5.37705 75.0209 5.56878 74.8546 5.76936C74.6883 5.96884 74.5302 6.16057 74.3777 6.34678C74.3308 6.40922 74.254 6.49874 74.1479 6.61256C74.0401 6.72915 73.9241 6.85348 73.7992 6.98609C73.6799 7.11373 73.5611 7.22811 73.4467 7.32702C73.3367 7.42095 73.2511 7.48339 73.1787 7.53202C73.1787 7.53202 73.1527 7.5055 73.14 7.38117C73.124 7.22922 73.1157 7.13749 73.1157 7.10489C73.1157 6.94078 73.1196 6.77667 73.1279 6.61201C73.1361 6.44293 73.1323 6.27053 73.1157 6.10145C73.0991 5.87601 73.0908 5.63951 73.0908 5.3986V4.68856C73.0908 4.21778 73.1649 3.7028 73.3113 3.15743C73.4599 2.60487 73.6102 2.09928 73.7528 1.66884C73.771 1.63237 73.7893 1.58651 73.8081 1.5307C73.8285 1.46937 73.8384 1.41798 73.8379 1.38538C73.8589 1.19033 73.7738 1.04666 73.5821 0.975935C73.4014 0.94002 73.2953 0.923994 73.2384 0.923994C73.1991 0.923994 73.1549 0.928967 73.1058 0.938913C73.0726 0.945543 73.0422 0.948858 72.9958 0.950516C72.8212 0.982565 72.6538 0.995275 72.4957 0.986986C72.3267 0.977592 72.146 0.982014 71.9675 0.999142H70.2485C69.9987 0.999142 69.7539 0.990301 69.5202 0.974277C69.2793 0.957701 69.0174 0.941122 68.7284 0.923994H68.0311C67.9858 0.923994 67.9161 0.940571 67.815 0.975382C67.7272 0.990301 67.5807 1.05219 67.5807 1.29973C67.5807 1.39643 67.6073 1.51357 67.6598 1.65282C67.71 1.82135 67.7647 1.9849 67.8233 2.14459C67.8808 2.30041 67.9344 2.4695 67.9836 2.64797C68.0499 2.88226 68.1079 3.11488 68.156 3.33922C68.2046 3.56687 68.2372 3.80502 68.2532 4.04041V5.9716C68.2532 6.07327 68.2714 6.18046 68.3046 6.2744C68.3206 6.37165 68.3328 6.46558 68.3411 6.55344C68.3482 6.63467 68.3444 6.71313 68.3289 6.79325C68.3118 6.92863 68.2991 7.064 68.2908 7.19827C68.2819 7.33365 68.2781 7.46847 68.2781 7.6033V10.0417C68.2615 10.5263 68.2571 11.0186 68.2659 11.5043C68.2736 11.9939 68.2781 12.4796 68.2781 12.9603C68.2781 13.1244 68.2736 13.2852 68.2659 13.4405C68.2571 13.6013 68.2615 13.7781 68.2786 13.9671C68.2958 14.1351 68.3162 14.303 68.3416 14.4705C68.3648 14.6246 68.3604 14.7893 68.3284 14.9683C68.3118 15.1363 68.2991 15.2999 68.2908 15.4584C68.2825 15.6109 68.262 15.7607 68.2311 15.9016C68.1659 16.179 68.0913 16.4486 68.009 16.7039C67.925 16.9636 67.8338 17.2261 67.7355 17.4874C67.7012 17.5891 67.6719 17.6869 67.6465 17.7797C67.6211 17.8737 67.5995 17.9632 67.5835 18.045C67.552 18.1798 67.5647 18.2936 67.6211 18.3837C67.6769 18.4732 67.7736 18.5345 67.915 18.5671C68.1211 18.6014 68.2709 18.6169 68.3632 18.6169C68.4693 18.634 68.6091 18.6428 68.7781 18.6428C68.9925 18.6428 69.2053 18.6345 69.4097 18.618C69.6053 18.6014 69.8037 18.5931 69.9993 18.5931L70.0882 18.592C70.2021 18.576 70.312 18.5638 70.4181 18.5555C70.5237 18.5478 70.6331 18.5434 70.7469 18.5434C70.9215 18.5434 71.0585 18.5511 71.1503 18.5666C71.2403 18.5843 71.3774 18.5931 71.5691 18.5931H73.1886C73.3135 18.5931 73.4472 18.5754 73.5942 18.5378C73.7887 18.4732 73.8838 18.3207 73.8628 18.1079C73.8617 18.0991 73.86 18.0903 73.8567 18.082L73.7069 17.683C73.5274 17.2106 73.4075 16.8177 73.3505 16.5166C73.2936 16.2177 73.2395 15.806 73.1903 15.2943C73.1737 15.0833 73.1693 14.8777 73.1781 14.6838C73.1864 14.4832 73.182 14.2693 73.1654 14.0489C73.1489 13.8372 73.1444 13.6234 73.1527 13.4129C73.161 13.1957 73.1571 12.9736 73.14 12.7509C73.124 12.5901 73.1196 12.4365 73.1279 12.2934C73.1361 12.1398 73.1323 11.9834 73.1157 11.8392C73.1157 11.7679 73.1422 11.6149 73.2704 11.2911C73.329 11.1419 73.4224 10.9662 73.5401 10.9457C73.555 10.9573 73.5832 10.9816 73.6323 11.0303C73.7622 11.1927 73.8517 11.3148 73.9014 11.3971C74.0296 11.5894 74.1501 11.7845 74.2589 11.9762C74.3683 12.1713 74.4921 12.363 74.6303 12.552C74.7082 12.6454 74.7756 12.7443 74.8308 12.8465C74.8872 12.952 74.9402 13.0614 74.9889 13.1753C75.1082 13.4488 75.2314 13.6588 75.3486 13.7919C75.4298 13.9063 75.5033 14.0163 75.5685 14.1218C75.6343 14.2296 75.7006 14.3412 75.7696 14.4616C75.8354 14.5605 75.9266 14.7048 76.0415 14.8937C76.1575 15.0849 76.278 15.2877 76.4023 15.5026C76.525 15.7165 76.6327 15.9231 76.7211 16.1171C76.8079 16.3066 76.8598 16.4569 76.8742 16.5553C76.8913 16.7951 76.9344 17.0249 77.0035 17.2393C77.0692 17.4465 77.1355 17.6653 77.2019 17.8963C77.2781 18.1632 77.4682 18.3461 77.7599 18.4362C77.8511 18.4732 77.9533 18.4964 78.0638 18.5058C78.1661 18.5146 78.26 18.5185 78.3462 18.5185L79.3049 18.5174C79.4403 18.5345 79.579 18.5472 79.7232 18.5555C79.9773 18.571 80.2503 18.5754 80.5211 18.5555C80.8979 18.5284 81.277 18.5439 81.6444 18.5561C81.9002 18.5644 82.1611 18.5765 82.4324 18.5931H84.027C84.1049 18.5931 84.1994 18.5749 84.2956 18.5412C84.3785 18.5251 84.4199 18.4804 84.4398 18.4461C84.4724 18.3903 84.4746 18.3196 84.4492 18.2422C84.4254 18.1494 84.3597 18.0698 84.2702 18.0184Z" fill="#231F20"/>
<path d="M99.7058 11.1362C99.6351 10.9075 99.5108 10.6936 99.334 10.4986L98.6057 9.72059L98.1139 9.27854C97.8912 9.03928 97.6448 8.84036 97.3801 8.68675C97.1232 8.53756 96.848 8.3939 96.5607 8.25797C96.4104 8.19166 96.2562 8.1248 96.0976 8.05794C95.9495 7.99551 95.8097 7.91594 95.6832 7.82145C95.4721 7.66342 95.2235 7.55622 94.9444 7.50373C94.7836 7.47168 94.6334 7.43135 94.4974 7.38327C94.3632 7.33575 94.2316 7.27221 94.0946 7.18656L93.5901 6.96002C93.4597 6.91139 93.2862 6.839 93.0602 6.73844C92.837 6.63898 92.6088 6.52736 92.3817 6.40525C92.1529 6.28258 91.9325 6.1577 91.7252 6.03393C91.5252 5.91403 91.3688 5.79744 91.2639 5.69245C91.1528 5.56591 91.0462 5.42722 90.9478 5.27969C90.8494 5.13216 90.7594 4.97634 90.682 4.82052C90.5477 4.52269 90.5765 4.25525 90.7749 3.99555C90.9119 3.78171 91.1274 3.61042 91.4142 3.48609C91.7076 3.359 91.9833 3.29491 92.2342 3.29491H92.7071C92.9309 3.29491 93.0912 3.28662 93.1807 3.27004C93.3277 3.27004 93.4669 3.27446 93.5979 3.2822C93.7244 3.29049 93.8526 3.31038 93.9614 3.3358C94.1173 3.40487 94.2836 3.45791 94.4516 3.49106C94.7809 3.57395 95.1185 3.66954 95.4545 3.77563C95.7816 3.88006 96.086 4.0381 96.3656 4.25138C96.4977 4.33371 96.6259 4.41604 96.7491 4.49893C96.8751 4.58236 97.0044 4.6658 97.1431 4.752C97.2829 4.82991 97.4425 4.9581 97.6221 5.13713L98.1758 5.63996L98.7659 6.09913C98.8654 6.14997 98.9052 6.15991 98.9361 6.15991C98.9969 6.15991 99.1372 6.13339 99.1372 5.88419V5.54768C99.1372 5.46369 99.145 5.38247 99.1604 5.30566C99.1781 5.21449 99.187 5.06917 99.187 4.86251C99.187 4.73929 99.1737 4.61828 99.1472 4.50335C99.1223 4.39615 99.1024 4.27846 99.0859 4.14861C99.0698 4.05136 99.0577 3.95466 99.0499 3.85741C99.0416 3.76679 99.0461 3.66567 99.061 3.56069C99.0958 3.36674 99.0958 3.17003 99.0615 2.9794C99.0284 2.75009 99.0035 2.53017 98.9875 2.32572C98.9715 2.12404 98.9715 1.90744 98.988 1.67371L98.9869 1.28526C98.9538 1.05761 98.8317 1.0239 98.7615 1.0239C98.7306 1.0239 98.6946 1.03329 98.5808 1.09076L98.3498 1.24548C98.0377 1.49523 97.6818 1.62177 97.2917 1.62177C97.1353 1.62177 96.9685 1.59801 96.7795 1.54772C96.6386 1.53225 96.4789 1.49192 96.2888 1.42395C95.8523 1.34383 95.4594 1.21288 95.1307 1.04048C95.019 0.966434 94.9008 0.919466 94.7781 0.900127L94.4261 0.849293C94.146 0.849293 93.9194 0.803429 93.7454 0.708942C93.5537 0.62219 93.3713 0.568594 93.2033 0.550911C93.0403 0.533783 92.8569 0.525496 92.6574 0.525496H92.558C92.537 0.524942 92.5248 0.523285 92.5259 0.526047C92.5071 0.50947 92.4834 0.500629 92.4585 0.500629H92.2839C92.2568 0.498419 92.2458 0.500076 92.227 0.518864C92.2237 0.520521 92.1927 0.533781 92.0584 0.551464C91.9347 0.568041 91.7982 0.584618 91.6495 0.600641C91.4993 0.617771 91.3617 0.634348 91.2362 0.650925C91.1224 0.666395 91.0561 0.674131 91.0379 0.674683C90.7052 0.674683 90.4024 0.755358 90.1532 0.906206C90.0687 0.940464 89.9891 0.974169 89.9129 1.00788C89.8394 1.04048 89.7615 1.07308 89.6852 1.10402C89.483 1.17143 89.2835 1.24768 89.0918 1.33112C88.8967 1.41621 88.7055 1.5096 88.521 1.61016C88.285 1.74554 88.0618 1.8997 87.8585 2.06878C87.6546 2.23897 87.465 2.43679 87.2943 2.65891C87.0954 2.92414 86.9053 3.19434 86.7296 3.46178C86.5555 3.72756 86.3765 4.00218 86.2013 4.27459C86.1063 4.38842 86.0477 4.5144 86.0334 4.63154C85.982 4.78515 85.9427 4.94595 85.9173 5.1084C85.8925 5.26532 85.8632 5.42557 85.8306 5.59188C85.7621 5.96486 85.7538 6.37707 85.8063 6.82906L86.0312 7.80266C86.0836 8.01264 86.1975 8.24968 86.3693 8.50662C86.5367 8.75859 86.7318 9.01331 86.9495 9.26473C87.1678 9.51614 87.3976 9.746 87.633 9.94824C87.8734 10.1538 88.0662 10.2964 88.2209 10.382L89.1144 10.9031C89.3504 11.055 89.5962 11.1987 89.8438 11.3307C90.0947 11.4645 90.3588 11.5838 90.6223 11.6822C90.8058 11.7662 90.9942 11.8391 91.1815 11.8982C91.3567 11.9546 91.5258 12.0314 91.6882 12.1286L92.2192 12.4055C92.4452 12.5027 92.6828 12.611 92.9248 12.7276C93.1652 12.8442 93.4012 12.9602 93.6266 13.0724L93.8758 13.2216C93.9482 13.2652 94.0145 13.3244 94.0841 13.4095L94.6118 13.8869L94.861 14.0863C94.9356 14.1455 95.0041 14.2217 95.066 14.3151C95.2191 14.5295 95.2964 14.8284 95.2964 15.2031C95.2964 15.3755 95.2246 15.5313 95.0837 15.6727C94.7825 15.9269 94.4709 16.0871 94.1471 16.1518C93.8902 16.2325 93.6288 16.2855 93.3708 16.3104C93.11 16.3347 92.8364 16.3468 92.5773 16.3485C92.4121 16.3165 92.2435 16.3474 92.059 16.275L91.26 16.0755C91.0456 16.0258 90.8345 15.9678 90.6328 15.9031C90.4301 15.8385 90.2367 15.7644 90.0598 15.6838L89.4813 15.4075C89.1548 15.2771 88.8459 15.1207 88.563 14.9422C88.2784 14.7638 88.0027 14.5499 87.7419 14.3051C87.5728 14.1526 87.3921 14.0151 87.2053 13.8963C87.0252 13.7819 86.8429 13.6576 86.6627 13.526C86.6517 13.5178 86.6279 13.5117 86.6064 13.5089C86.5174 13.4658 86.4826 13.457 86.4533 13.457C86.4003 13.457 86.2273 13.4763 86.2295 13.7128C86.1931 13.8929 86.1936 14.0593 86.2295 14.2013C86.2776 14.4416 86.3063 14.6997 86.3146 14.9688C86.3229 15.2417 86.3273 15.5031 86.3279 15.7628C86.3445 15.896 86.361 16.0363 86.3776 16.1855C86.3936 16.333 86.4019 16.4717 86.4019 16.5977C86.4019 16.7574 86.3936 16.9215 86.3776 17.0862C86.3594 17.2619 86.3688 17.4398 86.4019 17.5945V17.931C86.4019 18.0493 86.4202 18.1714 86.4649 18.3173C86.5771 18.5151 86.6975 18.593 86.8523 18.5184C86.8694 18.5184 86.886 18.514 86.9009 18.5057L87.6645 18.0863C87.8833 17.9929 88.0961 17.9454 88.2972 17.9454C88.4884 17.9454 88.7287 17.9741 89.0122 18.0305C89.2984 18.088 89.5974 18.1625 89.9002 18.2526C90.2068 18.3438 90.5052 18.435 90.7958 18.5261C91.0854 18.6173 91.323 18.6963 91.5098 18.7643L91.7904 18.8405C91.9601 18.8737 92.1281 18.8952 92.2905 18.9041C92.6696 18.9245 93.0757 18.9146 93.4757 18.9295C93.7095 18.9378 93.9432 18.9417 94.1775 18.9417L94.5427 18.9405C94.7411 18.9074 94.9389 18.8787 95.1367 18.8538C95.3395 18.8284 95.5451 18.7902 95.7501 18.7383C95.8678 18.7046 95.9772 18.6715 96.0783 18.6377C96.1905 18.5996 96.3021 18.535 96.3988 18.4532C96.5303 18.3714 96.6701 18.2891 96.8176 18.2062L97.2679 17.9564C97.8238 17.6365 98.278 17.2591 98.6167 16.8359C98.9499 16.4192 99.2798 15.9291 99.5964 15.3799C99.75 15.1229 99.8594 14.8527 99.9197 14.5765C99.9782 14.3096 100.032 14.0344 100.081 13.7576C100.116 13.6172 100.134 13.4829 100.134 13.3592C100.134 13.2476 100.142 13.126 100.158 12.9906C100.175 12.6834 100.15 12.3878 100.078 12.1016L99.7058 11.1362Z" fill="#231F20"/>
<path d="M121.032 16.248C120.877 15.6623 120.799 15.1429 120.798 14.7158C120.848 14.2655 120.864 13.8577 120.848 13.5085C120.848 13.4217 120.844 13.3388 120.835 13.2604C120.827 13.1891 120.824 13.1145 120.824 13.0349V12.2127C120.824 12.0889 120.831 11.9967 120.847 11.932C120.881 11.7436 120.894 11.5474 120.886 11.3485C120.877 11.1595 120.873 10.9739 120.873 10.7927C120.873 10.5147 120.864 10.2274 120.848 9.94006C120.832 9.66267 120.832 9.38198 120.848 9.1057C120.864 8.87197 120.877 8.62994 120.886 8.37908C120.894 8.12878 120.898 7.88731 120.898 7.65358C120.898 7.3552 120.902 7.06179 120.911 6.7717C120.919 6.47663 120.906 6.18212 120.872 5.88927C120.857 5.81578 120.853 5.73787 120.861 5.65664C120.868 5.56934 120.881 5.48535 120.898 5.39418C120.915 5.19028 120.915 4.98749 120.898 4.79189C120.882 4.60899 120.89 4.42057 120.923 4.21502C120.923 3.79287 120.981 3.32209 121.095 2.81705C121.209 2.31202 121.35 1.86555 121.512 1.49202C121.584 1.3362 121.591 1.21022 121.531 1.11683C121.47 1.02069 121.352 0.973722 121.171 0.973722H120.423C120.177 0.973722 119.923 0.982563 119.667 0.99914C119.475 1.01572 119.276 1.02401 119.078 1.02401H117.981C117.846 1.02401 117.711 1.02787 117.576 1.03671C117.437 1.04556 117.297 1.06766 117.162 1.10081C116.516 1.24061 116.048 1.6379 115.766 2.29323C115.733 2.40705 115.697 2.51591 115.657 2.62145C115.617 2.72367 115.565 2.83252 115.502 2.94138C115.269 3.3254 115.057 3.75419 114.872 4.21447C114.689 4.67364 114.537 5.12563 114.422 5.55276C114.387 5.65553 114.358 5.76273 114.332 5.87379C114.308 5.97933 114.28 6.07934 114.247 6.17825C114.033 6.86839 113.758 7.57677 113.43 8.28073C113.324 8.49291 113.264 8.66697 113.25 8.79627C113.217 8.91175 113.163 9.07586 113.089 9.2897C113.015 9.50354 112.928 9.72732 112.83 9.95553C112.732 10.1837 112.633 10.4003 112.534 10.5976C112.439 10.7866 112.353 10.9197 112.273 11.001C112.112 11.1888 111.999 11.1905 111.804 11.0043C111.746 10.9689 111.711 10.9319 111.701 10.8932C111.699 10.8822 111.694 10.8717 111.688 10.8623C111.542 10.6352 111.368 10.3202 111.17 9.92514C110.977 9.5389 110.863 9.20626 110.832 8.93717C110.831 8.92833 110.828 8.91949 110.825 8.9112C110.795 8.83715 110.776 8.7703 110.769 8.71172C110.759 8.63381 110.735 8.5559 110.702 8.49346C110.619 8.24316 110.532 7.99285 110.44 7.74254C110.347 7.48947 110.232 7.23364 110.103 6.99383C110.022 6.7833 109.952 6.56891 109.895 6.35618C109.836 6.14013 109.774 5.91524 109.706 5.67764C109.656 5.52734 109.601 5.37318 109.543 5.21349C109.482 5.04993 109.408 4.89687 109.322 4.75874C109.244 4.63496 109.181 4.49627 109.133 4.34653C109.083 4.1885 109.033 4.03378 108.983 3.88404C108.883 3.58345 108.769 3.28341 108.644 2.99166C108.516 2.69328 108.348 2.41313 108.137 2.15012C108.089 2.1026 108.047 2.05287 108.01 2.00037C107.968 1.9418 107.923 1.87881 107.872 1.81195C107.718 1.60695 107.561 1.44118 107.405 1.31962C107.241 1.19254 107.024 1.1102 106.769 1.0765C106.632 1.04279 106.49 1.01682 106.345 0.999693C106.204 0.983116 106.067 0.966539 105.922 0.948858H105.598C105.44 0.948858 105.326 0.958252 105.254 0.975933C105.179 0.991405 105.098 0.99914 105.013 0.99914H103.338C103.102 0.982563 102.805 0.982563 102.454 0.99914C102.443 0.999693 102.432 1.0019 102.421 1.00632C102.3 1.05495 102.233 1.15938 102.233 1.29973C102.233 1.43124 102.265 1.56772 102.33 1.7042C102.388 1.82963 102.443 1.94235 102.495 2.04624C102.672 2.36893 102.806 2.75351 102.895 3.18892C102.985 3.63041 103.03 4.04262 103.03 4.41449V5.11182C103.03 5.33726 103.022 5.56989 103.005 5.8097V6.58217C103.005 6.66837 103.009 6.75899 103.018 6.85292C103.026 6.94078 103.03 7.02532 103.031 7.11981C103.079 7.45742 103.079 7.79945 103.03 8.15143V8.41334C103.03 8.51225 103.039 8.60729 103.056 8.68465C103.088 9.02558 103.088 9.37092 103.056 9.7113C103.038 9.87872 103.026 10.0384 103.018 10.1887C103.009 10.3467 103.022 10.507 103.056 10.6529C103.072 10.8181 103.08 10.9739 103.08 11.1164C103.08 11.2557 103.056 11.4049 103.009 11.5651C102.973 11.7049 102.956 11.8558 102.956 12.0132C102.956 12.1724 102.973 12.3232 103.007 12.4564C103.023 12.5365 103.035 12.6211 103.043 12.7078C103.051 12.7962 103.055 12.8808 103.055 12.9625C103.072 13.6532 103.046 14.3362 102.982 14.9893L102.807 16.2099C102.774 16.4359 102.721 16.6558 102.649 16.8636C102.573 17.0863 102.516 17.3189 102.485 17.5449C102.453 17.6703 102.422 17.7643 102.39 17.83L102.21 18.2698C102.186 18.377 102.2 18.4627 102.249 18.5251C102.295 18.5826 102.367 18.6135 102.462 18.6174C102.504 18.6345 102.553 18.6428 102.609 18.6428C102.682 18.6428 102.735 18.6334 102.772 18.613C102.941 18.5826 103.106 18.5633 103.261 18.5555C103.425 18.5478 103.598 18.5434 103.779 18.5434H104.315C104.482 18.5434 104.66 18.5517 104.836 18.5671C104.956 18.5843 105.07 18.5931 105.175 18.5931H105.885C106.018 18.5931 106.157 18.5754 106.282 18.5428C106.387 18.5312 106.461 18.4914 106.504 18.4251C106.548 18.3566 106.552 18.2676 106.521 18.1809C106.503 18.0179 106.448 17.8775 106.358 17.7643C106.117 17.2482 105.962 16.7586 105.898 16.3116C105.865 16.0287 105.827 15.7491 105.786 15.4739C105.745 15.2092 105.733 14.9357 105.749 14.6545V13.0852C105.749 12.9636 105.732 12.799 105.692 12.5735C105.673 12.5255 105.65 12.4244 105.65 12.2127C105.65 12.1337 105.654 12.0541 105.662 11.9735C105.671 11.8817 105.666 11.7878 105.649 11.6999C105.617 11.48 105.626 11.2131 105.674 10.9065L105.723 10.5578C105.74 10.4357 105.749 10.3136 105.748 10.1782L105.698 9.87928C105.682 9.78534 105.675 9.6903 105.674 9.58034C105.637 9.35932 105.679 9.15764 105.803 8.96701C105.94 9.26207 106.055 9.58366 106.15 9.92956C106.266 10.2605 106.378 10.5959 106.485 10.9358C106.595 11.28 106.717 11.622 106.848 11.9497C106.948 12.2155 107.043 12.4724 107.135 12.7211C107.224 12.9653 107.294 13.2278 107.348 13.5206C107.378 13.5985 107.402 13.677 107.417 13.7521C107.435 13.8411 107.462 13.9312 107.498 14.0212C107.63 14.3351 107.746 14.6467 107.844 14.9473C107.944 15.2545 108.043 15.5734 108.141 15.9027C108.226 16.206 108.336 16.505 108.471 16.7907L108.87 17.6388C109.099 18.1151 109.429 18.4019 109.85 18.4914C110.244 18.5754 110.666 18.618 111.105 18.618H111.391C111.486 18.618 111.588 18.6091 111.694 18.592C111.914 18.555 112.084 18.4787 112.178 18.3793C112.27 18.324 112.35 18.2588 112.414 18.1848C112.471 18.1201 112.531 18.0555 112.602 17.9847C112.703 17.8676 112.799 17.7499 112.891 17.6322C112.989 17.5079 113.065 17.373 113.117 17.2355C113.433 16.4873 113.677 15.7784 113.843 15.1319L114.016 14.5395C114.082 14.3572 114.144 14.1876 114.202 14.0295C114.262 13.8676 114.31 13.6897 114.345 13.4941C114.377 13.1885 114.459 12.862 114.588 12.5233C114.721 12.1746 114.845 11.8508 114.961 11.553C114.995 11.4695 115.028 11.3811 115.062 11.2883C115.097 11.1922 115.123 11.0899 115.139 10.9938C115.189 10.812 115.242 10.6263 115.3 10.4363C115.357 10.25 115.426 10.0655 115.507 9.88812C115.591 9.70301 115.677 9.46375 115.76 9.1825L115.879 8.84489C115.898 8.80787 115.913 8.78521 115.924 8.7714C115.935 8.79074 115.95 8.82279 115.964 8.87639C116.011 9.04768 116.031 9.2256 116.024 9.40518C116.015 9.59471 116.003 9.78037 115.986 9.97045L115.987 10.4799C116.003 10.6313 116.025 10.7794 116.05 10.9225C116.073 11.0524 116.077 11.1894 116.061 11.3408C116.061 11.4176 116.053 11.5016 116.037 11.5983C116.02 11.7027 116.011 11.8005 116.011 11.8889V13.1101C116.011 13.1703 116.008 13.2228 116 13.267C115.99 13.3228 115.986 13.3781 115.987 13.4195C115.971 13.5378 115.957 13.6477 115.949 13.7494C115.94 13.856 115.945 13.9649 115.962 14.0671L116.011 14.555C116.011 14.797 116.003 15.0507 115.987 15.3087C115.97 15.5596 115.937 15.811 115.887 16.0613C115.854 16.3077 115.775 16.6591 115.653 17.1073C115.531 17.5565 115.419 17.909 115.32 18.1571C115.286 18.2466 115.286 18.3273 115.32 18.3975C115.355 18.4721 115.427 18.5279 115.532 18.5627C115.593 18.5831 115.677 18.5931 115.789 18.5931H116.187C116.378 18.5931 116.515 18.5843 116.586 18.5682L116.719 18.5671C116.821 18.5837 116.924 18.5964 117.026 18.6052C117.215 18.6207 117.444 18.6229 117.666 18.6052C117.769 18.5964 117.871 18.5837 117.956 18.5682C118.043 18.5682 118.129 18.5638 118.216 18.5555C118.295 18.5472 118.375 18.5434 118.447 18.5428L119.044 18.5931C119.249 18.6097 119.444 18.618 119.626 18.618H120.273C120.48 18.618 120.625 18.6091 120.713 18.592C120.81 18.576 120.911 18.5638 121.016 18.5555C121.133 18.5467 121.246 18.524 121.331 18.4931C121.531 18.471 121.646 18.3345 121.642 18.093C121.607 17.9527 121.573 17.8427 121.538 17.7532C121.358 17.346 121.188 16.8393 121.032 16.248Z" fill="#231F20"/>
<path d="M130.889 17.3382C130.822 17.1377 130.747 16.9288 130.666 16.7188C130.585 16.4436 130.518 16.1668 130.469 15.8944C130.421 15.6286 130.405 15.3474 130.42 15.0678C130.437 14.944 130.442 14.8197 130.433 14.697C130.425 14.5887 130.429 14.4699 130.446 14.3307C130.446 14.2345 130.449 14.1422 130.458 14.0533C130.467 13.9544 130.463 13.8494 130.446 13.7577C130.446 13.5599 130.437 13.356 130.421 13.151C130.405 12.9587 130.405 12.7631 130.421 12.5708C130.454 12.1812 130.446 11.821 130.395 11.5021C130.379 11.3717 130.366 11.2491 130.358 11.1341C130.35 11.0264 130.354 10.9164 130.37 10.8048C130.387 10.6667 130.396 10.5247 130.396 10.3815V9.97045C130.396 9.88259 130.387 9.79087 130.37 9.6903C130.354 9.60742 130.347 9.5168 130.347 9.42231V9.11067C130.347 9.00734 130.354 8.90843 130.371 8.79958V7.75304C130.371 7.71546 130.366 7.6685 130.357 7.61103C130.35 7.56793 130.347 7.53257 130.345 7.5182C130.362 7.39995 130.375 7.28558 130.384 7.17562C130.392 7.06511 130.396 6.95017 130.396 6.83082V6.42027C130.396 6.27826 130.387 6.12797 130.371 5.97657C130.354 5.74836 130.35 5.52568 130.359 5.31516C130.367 5.098 130.371 4.87256 130.371 4.63883L130.368 4.5134C130.402 4.37692 130.428 4.23491 130.445 4.08959C130.462 3.94924 130.478 3.81221 130.495 3.67959C130.527 3.421 130.569 3.15908 130.618 2.90104C130.667 2.65128 130.748 2.39435 130.864 2.12912C130.897 2.03021 130.935 1.92246 130.976 1.80753C131.018 1.68928 131.056 1.57104 131.091 1.44892C131.133 1.27708 131.117 1.15606 131.039 1.07871C130.973 1.0124 130.846 0.964329 130.618 0.923992L129.509 0.925097C129.378 0.941673 129.259 0.953831 129.153 0.96212C128.93 0.979248 128.663 0.980907 128.545 0.951069C128.453 0.932835 128.37 0.923992 128.289 0.923992H127.554C127.492 0.923992 127.43 0.920679 127.367 0.91239C127.057 0.874264 126.744 0.909626 126.407 0.977037C126.35 0.991957 126.25 0.99914 126.128 1.0008C126.037 0.983116 125.913 0.974276 125.76 0.974276C125.635 0.974276 125.543 0.966539 125.486 0.952173C125.478 0.949963 125.47 0.948858 125.461 0.948858C125.372 0.948858 125.297 0.953831 125.234 0.962671C125.17 0.972065 125.111 0.98588 125.05 1.00632C124.928 1.05495 124.861 1.15938 124.861 1.29973C124.861 1.43124 124.871 1.52075 124.889 1.57325C124.924 1.71415 124.973 1.844 125.035 1.95838C125.092 2.06392 125.145 2.17332 125.192 2.28218C125.337 2.67062 125.44 3.07841 125.497 3.49338C125.555 3.91222 125.584 4.33106 125.584 4.73111C125.567 4.96815 125.563 5.20189 125.571 5.42733C125.579 5.65001 125.584 5.87766 125.584 6.10863C125.584 6.28987 125.579 6.46669 125.571 6.63908C125.563 6.81259 125.55 6.98996 125.534 7.16788C125.5 7.46018 125.509 7.73149 125.561 7.97682C125.592 8.10115 125.608 8.22271 125.608 8.3382L125.609 8.71228C125.592 8.84876 125.584 8.99132 125.584 9.13553C125.584 9.27423 125.575 9.4516 125.559 9.66654C125.542 10.0008 125.542 10.3478 125.559 10.7053C125.591 10.9623 125.591 11.2308 125.559 11.5088C125.542 11.7779 125.542 12.0586 125.56 12.352C125.608 12.6896 125.608 13.0322 125.56 13.3643C125.544 13.4482 125.527 13.5355 125.511 13.6273C125.491 13.7356 125.501 13.8488 125.535 13.9522C125.551 14.0284 125.559 14.1052 125.559 14.1815V14.4357C125.575 14.7628 125.575 15.1037 125.559 15.443C125.51 15.9801 125.403 16.4829 125.24 16.9398C125.192 17.083 125.135 17.231 125.069 17.3791C125.002 17.5294 124.942 17.6924 124.897 17.8482C124.837 17.9676 124.817 18.0892 124.836 18.1925C124.836 18.3726 124.934 18.4958 125.092 18.5329C125.205 18.5892 125.349 18.6213 125.53 18.6301C125.698 18.639 125.842 18.6428 125.959 18.6428C126.162 18.6428 126.318 18.634 126.424 18.6169C126.716 18.5682 127.004 18.5434 127.28 18.5434H129.796C129.954 18.5434 130.073 18.5511 130.158 18.5677L130.569 18.618H130.668C130.848 18.618 130.978 18.5666 131.055 18.4643C131.142 18.35 131.153 18.1864 131.089 17.9632C131.022 17.7466 130.955 17.5383 130.889 17.3382Z" fill="#231F20"/>
<path d="M148.893 5.14884C148.877 5.01844 148.864 4.88361 148.857 4.74437C148.848 4.59739 148.826 4.44544 148.793 4.29846C148.745 3.994 148.737 3.72766 148.768 3.50996C148.821 3.21047 148.802 2.94082 148.716 2.7198C148.681 2.58001 148.633 2.44739 148.572 2.32528C148.516 2.21476 148.463 2.0921 148.406 1.94622C148.281 1.73073 148.091 1.55833 147.841 1.4329C147.602 1.3141 147.339 1.21906 147.06 1.15109C146.781 1.08368 146.494 1.04113 146.207 1.02401C145.915 1.00688 145.677 0.998589 145.479 0.998589L144.266 0.99914C144.066 0.982563 143.869 0.970407 143.677 0.961567C143.484 0.953278 143.279 0.948858 143.062 0.948858H142.8C142.704 0.948858 142.61 0.958252 142.539 0.973722H142.165C141.994 0.973722 141.862 0.983116 141.791 0.998589L141.574 0.99914C141.34 0.982563 141.111 0.970407 140.886 0.961567C140.66 0.953278 140.43 0.948858 140.197 0.948858H138.901C138.811 0.948858 138.745 0.95825 138.697 0.977037C138.609 0.991404 138.518 0.998589 138.428 0.998589H137.842C137.755 0.998589 137.665 0.990852 137.555 0.973722L137.037 0.975933C136.875 1.00853 136.715 1.03285 136.561 1.04887C136.409 1.06545 136.25 1.07318 136.086 1.07318C135.717 1.07318 135.352 1.09915 134.99 1.15165C134.858 1.18425 134.731 1.21298 134.608 1.23729C134.491 1.26105 134.368 1.27266 134.222 1.27487C134.142 1.29089 134.058 1.30305 133.971 1.31078C133.864 1.32073 133.761 1.35499 133.666 1.4119C133.169 1.71415 132.926 2.12138 132.944 2.62034C132.944 2.71649 132.94 2.80932 132.932 2.89717C132.924 2.98669 132.912 3.07952 132.897 3.16958C132.796 3.59063 132.745 4.03433 132.745 4.47969C132.728 4.6637 132.716 4.84383 132.708 5.01954C132.699 5.18973 132.679 5.36544 132.647 5.54226C132.643 5.56381 132.646 5.58591 132.656 5.60525L132.83 5.95447C132.845 5.98431 132.875 6.0053 132.908 6.00972C132.943 6.01304 132.975 6.00143 132.997 5.97657L133.203 5.74394C133.626 5.15823 134.075 4.68359 134.539 4.33327C134.999 3.98681 135.601 3.73761 136.328 3.59229C136.508 3.55969 136.677 3.53482 136.831 3.5188C136.99 3.50167 137.165 3.47625 137.332 3.4442C137.387 3.4442 137.443 3.43978 137.497 3.43039C137.658 3.40387 137.816 3.42431 137.934 3.48343C137.948 3.49062 137.963 3.49393 137.979 3.49393H138.154C138.203 3.49393 138.259 3.56963 138.302 3.67904C138.318 3.81165 138.335 3.95255 138.352 4.10119C138.367 4.23878 138.359 4.37858 138.326 4.53882L138.328 4.73276C138.338 4.78581 138.351 4.89964 138.352 5.11955C138.335 5.22178 138.322 5.32455 138.314 5.42678C138.304 5.5395 138.318 5.65388 138.352 5.75057C138.401 6.05945 138.426 6.38104 138.426 6.7065C138.426 6.78717 138.421 6.87558 138.413 6.97172C138.405 7.0745 138.401 7.16899 138.401 7.25187C138.384 7.91494 138.384 8.59569 138.401 9.27257L138.401 9.4085C138.418 9.55603 138.43 9.70025 138.438 9.83894C138.446 9.96879 138.434 10.097 138.402 10.2296C138.368 10.4633 138.347 10.6888 138.338 10.9004C138.33 11.1098 138.326 11.3314 138.326 11.5646C138.326 11.8685 138.352 12.168 138.406 12.4686C138.436 12.5586 138.45 12.6526 138.45 12.7487C138.45 12.8487 138.443 12.9482 138.426 13.0598C138.426 13.1521 138.418 13.2471 138.402 13.3421C138.385 13.4449 138.376 13.5516 138.376 13.6577C138.376 13.8582 138.38 14.0594 138.388 14.2599C138.396 14.4528 138.392 14.65 138.376 14.8539C138.376 15.0181 138.371 15.1783 138.364 15.3341C138.355 15.4899 138.343 15.6419 138.328 15.7822C138.262 16.1431 138.183 16.4967 138.093 16.8332C138.003 17.1675 137.891 17.5029 137.764 17.8234C137.707 17.9367 137.678 18.061 137.678 18.1925C137.678 18.3583 137.764 18.4677 137.901 18.4892C138.187 18.5738 138.48 18.6257 138.776 18.6428C138.946 18.6428 139.115 18.6296 139.278 18.6041C139.437 18.5793 139.6 18.55 139.762 18.5174C139.875 18.5014 139.979 18.4931 140.072 18.4931H140.67C140.762 18.4931 140.857 18.5014 140.963 18.5179C141.522 18.5511 142.128 18.5682 142.763 18.5682H143.012C143.087 18.5682 143.163 18.5754 143.261 18.5931H143.56C143.57 18.5931 143.58 18.5914 143.59 18.5887C143.857 18.5063 143.97 18.3135 143.905 18.0345L143.728 17.5294C143.679 17.4139 143.633 17.3062 143.591 17.2067C143.552 17.1111 143.516 17.0056 143.482 16.8896C143.402 16.6498 143.349 16.4017 143.325 16.1525C143.3 15.8955 143.279 15.6353 143.263 15.3772L143.262 14.2876C143.229 14.1108 143.209 13.9389 143.201 13.777C143.192 13.6195 143.205 13.4516 143.237 13.2731C143.288 12.899 143.279 12.536 143.21 12.1879C143.163 12.0011 143.156 11.779 143.187 11.5331C143.254 11.159 143.263 10.7468 143.211 10.2987C143.196 10.223 143.188 10.1042 143.188 9.94558V9.67151C143.188 9.57924 143.196 9.49359 143.213 9.39745V8.92391C143.213 8.77361 143.205 8.61945 143.188 8.46639C143.171 8.28791 143.168 8.1122 143.176 7.94422C143.184 7.76851 143.188 7.58838 143.188 7.40382V7.10489C143.188 7.01703 143.202 6.93968 143.236 6.85016C143.254 6.76065 143.263 6.66561 143.263 6.56946L143.26 6.28655C143.213 6.06222 143.188 5.85114 143.188 5.65995C143.188 5.31626 143.201 4.9665 143.226 4.6206C143.25 4.27691 143.296 3.92879 143.362 3.57792C143.371 3.4978 143.404 3.4442 143.535 3.4442H143.872C143.972 3.4442 144.081 3.45249 144.198 3.46852L144.888 3.54256C145.071 3.57571 145.257 3.61715 145.44 3.66523C145.631 3.71496 145.818 3.76469 146.007 3.81607C146.081 3.83099 146.148 3.8531 146.205 3.88183C146.274 3.91664 146.351 3.9509 146.424 3.97853C147.091 4.36918 147.702 4.90571 148.247 5.58204C148.311 5.64669 148.368 5.70692 148.416 5.76328C148.465 5.8202 148.513 5.88043 148.552 5.92905C148.602 6.02962 148.688 6.08542 148.793 6.08542C148.808 6.08542 148.824 6.08155 148.838 6.07437L148.888 6.04951C148.922 6.03238 148.944 5.99757 148.944 5.95889V5.48535C148.944 5.47706 148.943 5.46877 148.941 5.46048C148.91 5.33781 148.894 5.23725 148.893 5.14884Z" fill="#231F20"/>
<path d="M166.588 17.9932C166.554 17.8584 166.515 17.733 166.473 17.6208C166.431 17.5131 166.386 17.3926 166.333 17.2539C166.189 16.9323 166.091 16.5897 166.043 16.2394L165.993 15.6918C165.976 15.5078 165.95 15.32 165.916 15.1304C165.836 14.7818 165.828 14.4613 165.891 14.1806C165.926 14.0397 165.944 13.8888 165.944 13.7325C165.944 13.5772 165.926 13.4263 165.887 13.2711C165.858 13.2009 165.844 13.1346 165.844 13.0722V12.4373C165.844 12.3069 165.852 12.1776 165.868 12.0505C165.886 11.9118 165.889 11.767 165.881 11.6211C165.873 11.4824 165.869 11.3476 165.869 11.2161V10.9172C165.869 10.8139 165.861 10.7033 165.844 10.5934C165.844 10.5055 165.835 10.4155 165.817 10.3237C165.803 10.2547 165.803 10.1845 165.819 10.1049C165.835 9.9375 165.847 9.76952 165.856 9.6021C165.865 9.43468 165.869 9.26614 165.869 9.09817V7.6781C165.869 7.2471 165.873 6.81169 165.881 6.37185C165.889 5.93312 165.877 5.48942 165.844 5.05732C165.827 4.71695 165.844 4.32021 165.893 3.87872C165.974 3.20957 166.131 2.5896 166.357 2.04257C166.459 1.83757 166.537 1.62926 166.589 1.41929C166.613 1.3027 166.599 1.20821 166.547 1.13859C166.501 1.07394 166.426 1.03582 166.347 1.02863C166.237 0.992165 166.134 0.973928 166.041 0.973928H164.397C164.215 0.973928 164.034 0.965641 163.849 0.949064L163.217 0.950169C163.111 0.933041 162.955 0.9242 162.753 0.9242L162.266 0.924751C162.135 0.941328 162.013 0.954037 161.898 0.961773C161.784 0.97006 161.662 0.973928 161.532 0.973928H161.347C161.287 0.957352 161.2 0.949064 161.083 0.949064C160.994 0.949064 160.919 0.954037 160.857 0.962879C160.797 0.97172 160.725 0.983875 160.633 1.00211C160.511 1.03582 160.426 1.09439 160.38 1.17672C160.339 1.25076 160.332 1.33862 160.359 1.43918C160.361 1.53256 160.381 1.61821 160.415 1.68452C160.547 2.02987 160.68 2.42163 160.811 2.8482C160.893 3.12779 160.959 3.41789 161.008 3.70853C161.056 3.99586 161.064 4.28816 161.033 4.57439C160.998 4.81309 160.994 5.06064 161.02 5.30929C161.044 5.54633 161.057 5.78172 161.057 6.00882V6.15801C161.057 6.16741 161.058 6.1768 161.06 6.18564C161.092 6.29781 161.116 6.41053 161.132 6.52104C161.147 6.62824 161.147 6.74538 161.132 6.87081C161.115 7.03547 161.095 7.20014 161.07 7.36425C161.045 7.53222 161.024 7.70849 161.007 7.89525C160.988 8.15495 160.936 8.26326 160.895 8.30801C160.856 8.35222 160.754 8.413 160.498 8.44947C160.367 8.46604 160.24 8.4782 160.117 8.48649C159.995 8.49478 159.868 8.49864 159.729 8.49864C159.534 8.51522 159.34 8.52351 159.153 8.52351L158.383 8.52406L157.869 8.57324H157.719C157.571 8.57324 157.403 8.56937 157.213 8.56053C157.032 8.55335 156.855 8.52517 156.689 8.47765C156.528 8.43178 156.389 8.36271 156.275 8.27154C156.169 8.187 156.104 8.0682 156.075 7.90741C156.043 7.74993 156.027 7.58914 156.027 7.42889C156.027 7.26423 156.019 7.08465 156.001 6.89291C155.985 6.76748 155.981 6.64813 155.99 6.53928C155.998 6.4249 156.01 6.30223 156.027 6.15801C156.027 5.8088 156.023 5.45903 156.015 5.10926C156.006 4.75949 155.994 4.41028 155.978 4.06548C155.978 3.98592 155.981 3.90635 155.989 3.82678C155.998 3.74666 156.009 3.66709 156.025 3.58807C156.156 2.96645 156.33 2.38516 156.544 1.85857L156.698 1.4436C156.717 1.3458 156.717 1.2585 156.696 1.18445C156.668 1.08941 156.58 1.022 156.424 0.976692C156.217 0.925304 156.008 0.899334 155.801 0.899334H154.157C153.862 0.899334 153.559 0.907623 153.26 0.9242L153.165 0.926411C153.085 0.942434 153.002 0.954037 152.914 0.962326C152.826 0.970613 152.742 0.973928 152.662 0.973928C152.53 0.973928 152.472 0.96343 152.432 0.950722C152.269 0.919226 152.138 0.946302 151.977 0.881653C151.965 0.87668 151.952 0.87447 151.939 0.87447H150.943C150.763 0.87447 150.612 0.945196 150.492 1.08389C150.476 1.10267 150.468 1.12588 150.468 1.15019V1.47399C150.468 1.48615 150.47 1.49775 150.474 1.50936L150.725 2.18734C150.887 2.56087 151.002 2.94711 151.067 3.33445C151.132 3.72621 151.165 4.13953 151.165 4.56389V4.95013C151.165 5.08219 151.183 5.22033 151.216 5.34852C151.232 5.47892 151.239 5.61319 151.239 5.74746C151.239 5.87953 151.224 6.00938 151.195 6.12597C151.158 6.23703 151.14 6.39451 151.14 6.60669V7.52891C151.14 7.635 151.157 7.78695 151.19 7.98974C151.207 8.1207 151.219 8.24778 151.227 8.3699C151.234 8.48372 151.223 8.60308 151.191 8.73072C151.123 9.08988 151.123 9.46341 151.192 9.84522C151.202 9.88611 151.215 9.97121 151.215 10.1524C151.231 10.3624 151.231 10.5752 151.215 10.7846C151.199 11.0028 151.19 11.2316 151.19 11.4653V11.551C151.156 11.6742 151.144 11.7946 151.153 11.909C151.161 12.0151 151.165 12.1328 151.166 12.2765C151.215 12.6329 151.231 12.9611 151.215 13.2501C151.199 13.4352 151.19 13.6231 151.19 13.8076C151.19 13.9833 151.174 14.1618 151.141 14.3441C151.123 14.5 151.119 14.6608 151.128 14.8215C151.136 14.9746 151.131 15.1238 151.116 15.2675C151.099 15.4332 151.083 15.5907 151.066 15.7393C151.049 15.8847 151.025 16.0416 150.992 16.2096C150.959 16.4383 150.909 16.7085 150.844 17.0124C150.778 17.3141 150.703 17.5827 150.625 17.8037C150.574 17.923 150.531 18.0336 150.495 18.143C150.463 18.2739 150.475 18.3806 150.532 18.4596C150.585 18.5336 150.673 18.5778 150.792 18.5911C150.838 18.6093 150.895 18.6182 150.968 18.6182C151.059 18.6182 151.125 18.6088 151.172 18.5889C151.249 18.5745 151.333 18.5629 151.424 18.5557C151.657 18.5364 151.837 18.5419 152.019 18.5557C152.129 18.564 152.236 18.5684 152.338 18.5684H152.949C153.061 18.5684 153.178 18.5596 153.284 18.543C153.592 18.543 153.901 18.5513 154.201 18.5679C154.5 18.5845 154.807 18.601 155.128 18.6182H155.676C155.78 18.6182 155.886 18.6093 155.975 18.5933C156.083 18.5933 156.224 18.5756 156.399 18.5403C156.53 18.5077 156.621 18.4474 156.672 18.3618C156.719 18.2806 156.727 18.1811 156.695 18.0606C156.66 17.9579 156.625 17.8694 156.595 17.8114C156.562 17.7136 156.534 17.6202 156.509 17.5307C156.485 17.4429 156.466 17.35 156.447 17.2429L156.298 16.7229C156.232 16.4604 156.178 16.1952 156.138 15.9344C156.097 15.6714 156.068 15.3979 156.052 15.115C156.035 14.9846 156.023 14.8541 156.015 14.7232C156.006 14.5917 156.002 14.4364 155.999 14.2309C155.967 14.1032 155.943 13.969 155.927 13.8325C155.912 13.7048 155.919 13.5788 155.948 13.4617C155.984 13.3357 156.002 13.2136 156.002 13.097V12.7611C156.002 12.6268 155.994 12.4887 155.977 12.3494C155.96 12.224 155.953 12.0941 155.952 11.9698C155.967 11.7261 156.048 11.5261 156.197 11.3625C156.378 11.1813 156.634 11.0741 156.947 11.0437C157.295 11.0437 157.639 11.0476 157.978 11.0559C158.318 11.0647 158.662 11.0769 158.995 11.0912C159.084 11.1095 159.213 11.1183 159.389 11.1183C159.587 11.1183 159.776 11.1227 159.957 11.1305C160.138 11.1393 160.329 11.1515 160.523 11.1675C160.769 11.1968 160.93 11.3073 161.014 11.5029C161.106 11.7328 161.129 11.9737 161.085 12.2129C161.05 12.35 161.024 12.4975 161.007 12.65C160.989 12.8102 160.998 12.9721 161.032 13.1208C161.048 13.265 161.052 13.4059 161.044 13.5396C161.035 13.6855 161.04 13.838 161.057 13.9817L161.057 14.0668C161.073 14.2309 161.085 14.3961 161.094 14.5602C161.102 14.7193 161.098 14.8823 161.082 15.0437C161.048 15.4084 161.007 15.8023 160.958 16.225C160.909 16.6334 160.804 16.9948 160.638 17.3125C160.589 17.4269 160.544 17.5324 160.504 17.6302C160.461 17.7341 160.421 17.8468 160.386 17.9733C160.345 18.1745 160.35 18.2977 160.401 18.3734C160.449 18.4474 160.557 18.5005 160.735 18.5403C160.874 18.5751 161.016 18.5933 161.158 18.5933H162.304C162.559 18.5933 162.806 18.5762 163.027 18.543L163.665 18.5425C164.029 18.5762 164.367 18.5933 164.671 18.5933H165.12C165.489 18.5933 165.88 18.559 166.288 18.4905C166.428 18.4585 166.524 18.3966 166.575 18.306C166.624 18.2187 166.628 18.1109 166.588 17.9932Z" fill="#231F20"/>
</svg>
