<?xml version="1.0" encoding="utf-8"?>
<!-- Generator: Adobe Illustrator 15.0.0, SVG Export Plug-In . SVG Version: 6.00 Build 0)  -->
<!DOCTYPE svg PUBLIC "-//W3C//DTD SVG 1.1//EN" "http://www.w3.org/Graphics/SVG/1.1/DTD/svg11.dtd">
<svg version="1.1" id="Layer_1" xmlns="http://www.w3.org/2000/svg" xmlns:xlink="http://www.w3.org/1999/xlink" x="0px" y="0px"
	 width="200px" height="69.666px" viewBox="0 0 200 69.666" enable-background="new 0 0 200 69.666" xml:space="preserve">
<g>
	<path fill="#1D2959" d="M74.986,37.859c-0.537,0-0.996-0.438-0.996-0.996v-13.66c0-0.557,0.458-0.996,0.996-0.996h5.915
		c0.079,0,0.557,0,1.175,0.16c0.876,0.219,1.652,0.657,2.249,1.234c0.439,0.438,0.797,0.977,1.036,1.593
		c0.259,0.678,0.399,1.454,0.399,2.311c0,1.891-0.796,3.325-2.291,4.181c-1.075,0.617-2.508,0.916-4.28,0.916
		c-0.539,0-0.996-0.438-0.996-0.996c0-0.558,0.458-0.995,0.996-0.995c1.413,0,2.528-0.219,3.285-0.658
		c0.876-0.498,1.294-1.274,1.294-2.448c0-0.798-0.16-1.454-0.438-1.952c-0.22-0.398-0.538-0.698-0.916-0.916
		c-0.717-0.418-1.454-0.438-1.513-0.438h-4.919v12.664C75.981,37.42,75.544,37.859,74.986,37.859"/>
	<path fill="#1D2959" d="M100.455,36.843c0,0.558-0.438,0.996-0.995,0.996h-9.518c-0.538,0-0.996-0.438-0.996-0.996v-13.64
		c0-0.558,0.458-0.996,0.996-0.996h9.319c0.558,0,0.995,0.438,0.995,0.996s-0.438,0.996-0.995,0.996h-8.324v4.798h7.369
		c0.557,0,0.995,0.458,0.995,0.996c0,0.557-0.438,0.996-0.995,0.996h-7.369v4.858h8.523
		C100.018,35.848,100.455,36.286,100.455,36.843"/>
	<path fill="#1D2959" d="M104.638,37.859c-0.557,0-0.995-0.458-0.995-0.996v-13.66c0-0.557,0.438-0.996,0.995-0.996h5.914
		c0.08,0,0.558,0,1.175,0.16c0.877,0.219,1.653,0.657,2.23,1.234c0.458,0.438,0.797,0.977,1.035,1.593
		c0.279,0.678,0.398,1.454,0.398,2.311c0,1.872-0.796,3.325-2.29,4.181c-0.358,0.199-0.757,0.378-1.194,0.498
		c0.856,0.737,1.633,1.673,2.25,2.768c0.519,0.876,1.075,0.876,1.154,0.876c0.538-0.06,1.037,0.298,1.116,0.836
		c0.079,0.538-0.3,1.056-0.837,1.135c-0.139,0.02-0.598,0.06-1.214-0.14c-0.538-0.199-1.315-0.637-1.933-1.712
		c-0.697-1.195-1.553-2.131-2.548-2.768c-0.698-0.458-1.215-0.598-1.255-0.598c-0.518-0.1-0.857-0.558-0.796-1.075
		c0.039-0.518,0.477-0.896,0.994-0.896c1.414,0,2.509-0.219,3.286-0.658c0.877-0.498,1.274-1.274,1.274-2.448
		c0-0.798-0.14-1.454-0.438-1.971c-0.22-0.379-0.519-0.678-0.916-0.917c-0.698-0.398-1.434-0.418-1.494-0.418h-4.918v12.664
		C105.634,37.401,105.194,37.859,104.638,37.859"/>
	<path fill="#1D2959" d="M125.428,38.098c-4.32,0-5.535-2.031-5.675-2.27c-0.259-0.478-0.079-1.095,0.399-1.354
		c0.477-0.258,1.073-0.08,1.333,0.378c0.04,0.04,0.239,0.319,0.757,0.597c0.995,0.538,2.29,0.657,3.186,0.657
		c1.314,0,2.311-0.279,2.867-0.796c0.439-0.398,0.538-0.896,0.538-1.235c0-0.736-0.22-1.293-0.698-1.752
		c-0.615-0.617-1.69-1.075-3.205-1.374c-1.096-0.239-2.051-0.618-2.808-1.136c-0.637-0.438-1.135-0.976-1.493-1.613
		c-0.577-0.995-0.577-1.892-0.577-2.131c0-1.055,0.498-2.11,1.354-2.867c0.419-0.378,0.937-0.677,1.514-0.896
		c0.597-0.219,1.255-0.318,1.932-0.318c3.884,0,5.019,1.833,5.137,2.051c0.26,0.478,0.101,1.095-0.378,1.354s-1.075,0.1-1.334-0.358
		c-0.04-0.04-0.219-0.259-0.657-0.519c-0.478-0.238-1.334-0.538-2.768-0.538c-1.096,0-1.752,0.378-2.131,0.717
		c-0.418,0.379-0.677,0.896-0.677,1.415v0.04c0,0.08,0,0.578,0.358,1.155c0.219,0.358,0.518,0.657,0.916,0.917
		c0.517,0.338,1.194,0.597,2.012,0.776c1.911,0.379,3.284,0.996,4.201,1.892c0.856,0.836,1.294,1.912,1.294,3.186
		c0,1.036-0.417,1.992-1.174,2.708C128.714,37.659,127.28,38.098,125.428,38.098"/>
	<path fill="#1D2959" d="M142.096,38.198c-1.096,0-2.171-0.22-3.186-0.658c-0.976-0.418-1.853-0.996-2.609-1.752
		c-0.736-0.757-1.334-1.613-1.752-2.588c-0.418-0.996-0.637-2.052-0.637-3.126c0-1.095,0.219-2.15,0.656-3.146
		c0.419-0.956,1.016-1.832,1.771-2.569c0.758-0.756,1.634-1.333,2.609-1.751c1.016-0.418,2.092-0.638,3.206-0.638
		c2.171,0,4.202,0.857,5.715,2.41c0.737,0.736,1.294,1.613,1.692,2.568c0.419,0.996,0.617,2.051,0.617,3.127
		c0,1.095-0.198,2.15-0.617,3.126c-0.398,0.975-0.976,1.851-1.712,2.588C146.316,37.341,144.285,38.198,142.096,38.198
		 M142.155,23.96c-0.836,0-1.652,0.16-2.43,0.478c-0.756,0.318-1.414,0.756-1.991,1.334c-0.577,0.557-1.034,1.215-1.333,1.952
		c-0.339,0.736-0.499,1.533-0.499,2.35c0,0.816,0.16,1.593,0.479,2.35c0.319,0.737,0.756,1.394,1.333,1.952
		c1.176,1.175,2.729,1.832,4.382,1.832s3.187-0.657,4.341-1.812c0.558-0.558,0.976-1.214,1.293-1.952
		c0.301-0.756,0.46-1.553,0.46-2.369c0-1.633-0.617-3.167-1.733-4.301C145.321,24.597,143.789,23.96,142.155,23.96"/>
	<path fill="#1D2959" d="M165.653,37.918c-0.298,0-0.578-0.139-0.775-0.358l-9.619-11.569v10.912c0,0.557-0.438,0.996-0.995,0.996
		c-0.558,0-0.995-0.438-0.995-0.996v-13.66c0-0.418,0.258-0.796,0.656-0.937c0.398-0.139,0.837-0.019,1.096,0.3l9.638,11.548V23.263
		c0-0.558,0.438-0.995,0.995-0.995c0.538,0,0.995,0.438,0.995,0.995v13.66c0,0.418-0.278,0.776-0.656,0.937
		C165.873,37.899,165.753,37.918,165.653,37.918"/>
	<path fill="#1D2959" d="M170.732,37.859c-0.198,0-0.418-0.06-0.598-0.199c-0.378-0.279-0.518-0.796-0.298-1.235l6.63-13.66
		c0.18-0.338,0.518-0.558,0.897-0.558c0.378,0,0.735,0.219,0.896,0.558l6.67,13.64c0.239,0.478,0.039,1.076-0.457,1.314
		c-0.499,0.259-1.096,0.039-1.335-0.438l-1.553-3.206c-1.035-0.299-2.131-0.338-3.306-0.119c-1.096,0.199-2.23,0.597-3.405,1.215
		c-2.03,1.075-3.444,2.389-3.464,2.409C171.229,37.759,170.972,37.859,170.732,37.859 M177.364,25.473l-4.004,8.264
		c0.18-0.1,0.358-0.199,0.558-0.299c1.334-0.717,2.689-1.194,3.981-1.434c0.898-0.159,1.753-0.219,2.59-0.139L177.364,25.473z"/>
	<path fill="#1D2959" d="M196.998,37.859h-8.682c-0.538,0-0.995-0.438-0.995-0.996v-13.66c0-0.557,0.457-0.996,0.995-0.996
		c0.558,0,0.995,0.439,0.995,0.996v12.664h7.687c0.558,0,0.996,0.439,0.996,0.996S197.556,37.859,196.998,37.859"/>
	<path fill="#1D2959" d="M86.714,42.305c0,0.558-0.438,0.996-0.995,0.996h-4.36v12.664c0,0.558-0.458,0.996-0.996,0.996
		c-0.558,0-0.996-0.438-0.996-0.996V43.3h-4.381c-0.558,0-0.995-0.438-0.995-0.996s0.438-0.996,0.995-0.996h10.733
		C86.276,41.309,86.714,41.747,86.714,42.305"/>
	<path fill="#1D2959" d="M96.194,57.299c-1.095,0-2.17-0.219-3.186-0.658c-0.976-0.417-1.852-0.994-2.608-1.751
		c-0.737-0.757-1.335-1.614-1.752-2.589c-0.418-0.996-0.637-2.052-0.637-3.126c0-1.095,0.218-2.151,0.656-3.146
		c0.419-0.956,1.017-1.832,1.773-2.569c0.756-0.757,1.632-1.334,2.608-1.753c1.016-0.417,2.091-0.637,3.206-0.637
		c2.17,0,4.201,0.856,5.715,2.41c0.737,0.736,1.295,1.612,1.693,2.568c0.418,0.996,0.616,2.051,0.616,3.126
		c0,1.095-0.198,2.151-0.616,3.126c-0.398,0.975-0.978,1.852-1.713,2.589C100.416,56.442,98.385,57.299,96.194,57.299
		 M96.254,43.061c-0.836,0-1.653,0.16-2.429,0.478c-0.757,0.319-1.414,0.757-1.992,1.334c-0.577,0.558-1.035,1.215-1.334,1.952
		c-0.338,0.737-0.497,1.533-0.497,2.35c0,0.816,0.159,1.593,0.478,2.349c0.318,0.737,0.756,1.395,1.333,1.952
		c1.175,1.175,2.729,1.832,4.381,1.832c1.653,0,3.186-0.657,4.34-1.812c0.558-0.558,0.977-1.216,1.296-1.952
		c0.298-0.757,0.457-1.553,0.457-2.37c0-1.633-0.617-3.166-1.731-4.301C99.419,43.699,97.887,43.061,96.254,43.061"/>
	<path fill="#1D2959" d="M113.958,57.198c-1.454,0-2.709-0.299-3.724-0.896c-0.877-0.499-1.553-1.194-2.052-2.09
		c-0.815-1.514-0.815-3.087-0.815-3.605v-8.303c0-0.538,0.457-0.996,0.995-0.996c0.557,0,0.995,0.458,0.995,0.996v8.303
		c0,0.398,0,1.594,0.577,2.649c0.319,0.577,0.738,1.016,1.295,1.334c0.696,0.398,1.613,0.617,2.729,0.617
		c1.114,0,2.03-0.219,2.727-0.617c0.538-0.318,0.977-0.757,1.276-1.315c0.577-1.074,0.577-2.27,0.577-2.668v-8.303
		c0-0.538,0.458-0.996,0.996-0.996c0.557,0,0.995,0.458,0.995,0.996v8.303c0,0.519,0,2.111-0.817,3.605
		C118.976,55.586,117.383,57.198,113.958,57.198"/>
	<path fill="#1D2959" d="M131.899,57.22c-1.113,0-2.189-0.22-3.205-0.657c-0.955-0.419-1.832-0.996-2.589-1.753
		c-0.756-0.737-1.334-1.613-1.752-2.588c-0.438-0.997-0.637-2.052-0.637-3.127c0-1.095,0.218-2.15,0.637-3.146
		c0.418-0.956,1.015-1.832,1.771-2.569c0.758-0.756,1.653-1.333,2.628-1.751c1.017-0.418,2.092-0.638,3.187-0.638
		c1.793,0,3.466,0.558,4.858,1.633c0.438,0.338,0.52,0.956,0.199,1.394c-0.339,0.438-0.975,0.518-1.394,0.199
		c-1.055-0.816-2.31-1.234-3.664-1.234c-0.836,0-1.652,0.16-2.429,0.478c-0.736,0.318-1.414,0.756-1.991,1.334
		c-0.558,0.558-1.016,1.215-1.335,1.952c-0.317,0.736-0.479,1.533-0.479,2.35c0,0.816,0.161,1.594,0.479,2.35
		c0.319,0.736,0.757,1.395,1.335,1.951c1.175,1.175,2.728,1.833,4.38,1.833c0.737,0,1.434-0.141,2.111-0.38
		c0.656-0.239,1.255-0.597,1.792-1.035c0.419-0.358,1.036-0.299,1.394,0.12c0.359,0.418,0.299,1.056-0.118,1.394
		c-0.718,0.598-1.515,1.055-2.371,1.374C133.812,57.04,132.856,57.22,131.899,57.22"/>
	<path fill="#1D2959" d="M153.188,42.265v13.66c0,0.538-0.438,0.995-0.995,0.995c-0.538,0-0.996-0.457-0.996-0.995v-5.974h-8.583
		v5.974c0,0.538-0.438,0.995-0.996,0.995c-0.557,0-0.996-0.457-0.996-0.995v-13.66c0-0.558,0.439-0.996,0.996-0.996
		c0.559,0,0.996,0.438,0.996,0.996v5.695h8.583v-5.695c0-0.558,0.458-0.996,0.996-0.996
		C152.75,41.269,153.188,41.707,153.188,42.265"/>
	<path fill="#F15A29" d="M82.644,20.965c-8.882,2.068-10.107-11.741-1.123-13.859c0.995-0.204,2.399-0.255,3.216,0.586
		c0.357,0.383,0.306,0.486,0.205,0.486c-0.103,0-0.256-0.128-0.409-0.205c-0.51-0.178-1.148-0.229-1.608-0.127
		c-7.453,1.761-9.342,14.574-0.561,12.532c3.471-0.792,7.581-6.432,7.478-10.873c-0.077-3.497-2.374-5.156-5.87-4.9
		c-1.939,0.127-3.88,0.943-5.232,1.914c-2.297,1.608-4.11,4.211-4.288,6.636c-0.051,0.586-0.46,0.077-0.46-0.383
		c-0.025-2.552,1.634-5.08,3.982-6.764c1.71-1.226,4.083-2.017,6.074-2.042c4.084,0,7.07,2.323,7.07,6.458
		C91.118,15.784,86.625,20.046,82.644,20.965"/>
	<path fill="#F15A29" d="M106.458,3.864c1.608,0.102,1.761,1.378,1.403,2.553c-0.894,2.986-4.083,6.152-5.921,8.55
		c-0.256,1.328-0.409,3.318-0.46,4.569c-0.025,1.736,0.256,3.012,0.844,3.727c0.356,0.383,0.866,0.537,1.249,0.103
		c0.078-0.128,0.18-0.256,0.308-0.383c0.255-0.256,0.458-0.179,0.357,0.178c-0.078,0.128-0.153,0.332-0.333,0.485
		c-0.281,0.357-1.097,0.537-1.607,0.511c-1.149-0.025-1.659-1.123-1.889-2.501c-0.205-1.455-0.103-3.522,0.229-5.743
		c-1.966,1.889-4.467,3.931-6.892,3.931c-0.868,0-1.583-0.434-1.761-1.659c-0.408-3.038,2.272-7.198,3.472-10.185
		c0.204-0.434-0.027-0.458-0.612,0c-1.149,0.97-2.425,1.711-3.472,1.787c-0.382,0.051-0.306-0.383,0.077-0.408
		c1.455-0.154,4.9-3.217,5.36-4.059c0.127-0.383,1.787-0.459,1.608,0c-0.562,0.944-4.34,7.07-4.978,10.567
		c-0.382,2.246,0.23,3.063,1.149,3.063c1.787,0,4.44-2.271,6.176-3.956c0.511-3.293,1.404-6.637,2.222-8.321
		C103.829,4.911,104.927,3.736,106.458,3.864 M107.07,6.008c0.357-1.378-0.178-2.118-1.301-0.894
		c-1.889,2.093-2.782,4.926-3.421,8.219C104.136,11.648,106.407,8.458,107.07,6.008"/>
	<path fill="#F15A29" d="M121.977,22.649c1.558,0.281,4.033-0.255,3.574-2.425c-0.103-0.51,0.408-0.408,0.51,0.025
		c0.153,0.817,0.025,1.481-0.178,2.042c-0.384,1.199-2.349,1.99-4.34,1.607c-5.795-1.123-8.576-6.84-10.72-9.648
		c-0.077-0.127-0.18-0.025-0.18-0.025c-0.766,1.429-1.402,2.782-1.735,3.522c-0.587,1.455,0.255,1.353,0.843,0.663
		c0.382-0.458,0.74-0.893,0.943-0.867c0.129,0.127-0.306,0.638-0.33,0.664c-0.385,0.561-1.099,1.787-1.788,1.787
		c-0.128,0-0.969-0.127-0.995-0.307c-0.127-0.969,1.021-3.343,2.093-5.462c-0.255-0.025-0.459-0.102-0.562-0.153
		c-0.51-0.332-0.332-1.148,0.536-1.148c0.153,0,0.459,0.102,0.613,0.229c0.535-1.021,1.046-1.915,1.275-2.399
		c0.307-0.639,0.23-0.894,0.179-1.046c0.128-0.842,1.965-3.038,3.294-3.038c0.254,0,1.274,0.255,1.429,0.868
		c0.128,0.408-0.154,0.152-0.28,0.152c-1.456,0-3.497,2.987-5.105,5.795c0.229,0.102,0.612,0.179,1.098,0.102
		c3.216-0.357,7.019-1.583,8.959-3.599c1.506-1.557,1.148-3.522-1.43-4.289c-4.135-1.148-13.222,0.102-13.91,4.263
		c-0.204,1.225,1.147,1.557,1.658,1.863c0.307,0.229,0.153,0.434-0.179,0.357c-0.791-0.128-2.449-1.123-2.118-2.68
		c0-0.026-0.051-0.281-0.051-0.408c0.306-1.608,2.348-2.936,3.752-3.65c2.578-1.225,7.173-1.787,10.771-0.639
		c1.99,0.689,3.139,2.144,3.012,3.625c-0.229,2.807-3.804,4.415-7.07,5.156c-1.327,0.281-2.859,0.459-4.135,0.51
		C114.319,17.672,117,21.731,121.977,22.649"/>
	<path fill="#1D2959" d="M43.679,34.381c-1.731,0-3.136,1.405-3.136,3.136c0,1.731,1.404,3.135,3.136,3.135s3.135-1.403,3.135-3.135
		C46.813,35.786,45.41,34.381,43.679,34.381"/>
	<path fill="#1D2959" d="M58.373,28.167l-0.904,0.406v5.052h-1.346c0.165-2.95-0.704-5.466-3.573-7.068
		c-6.042-3.375-11.323-0.665-16.252,1.754V24.77c-0.28-0.189-0.593-0.306-0.914-0.352v-0.771h-0.608v0.771
		c-0.321,0.046-0.633,0.162-0.913,0.352v2.483c-7.494,2.531-23.101-1.326-25.644-3.239v-0.194c0.391-0.069,0.664-0.229,0.664-0.414
		c0-0.249-0.49-0.449-1.094-0.449c-0.605,0-1.095,0.2-1.095,0.449c0,0.174,0.244,0.324,0.598,0.399
		c-1.89,0.91-3.24,5.163-3.91,9.152C3.281,33,3.221,33.032,3.167,33.062C3.102,33.097,3.046,33.127,3,33.152
		c-0.001,0.001-0.003,0.002-0.004,0.003c-0.332,0.129-0.568,0.449-0.568,0.826c0,0.422,0.294,0.772,0.686,0.864l0,0
		c-0.188,1.596-0.25,3.043-0.18,4.079c-0.278,0.1-0.488,0.534-0.488,1.052c0,0.593,0.272,1.075,0.609,1.075
		c0.026,0,0.05-0.008,0.074-0.014c0.196,3.151,1.285,5.048,3.006,5.189c0.019,0.105,0.063,0.188,0.121,0.224
		c0.035,1.609,0.346,3.215,0.898,3.511v0.635h0.407v-2.783h0.317v-3.624h1.931c0-1.646,5.042-9.752,18.106-5.513
		c10.613,3.446,7.066,11.724,2.742,15.628H6.46c0.531,0.409,2.098,1.904,3.797,3.486h43.896c1.142-1.085,2.209-2.247,3.185-3.486
		h-7.001c0.046-4.589,3.675-11.209,5.172-17.029h1.961v5.053l1.789,0.805v0.706c0,0.42,0.15,0.796,0.388,1.055
		c0.375-1.971,0.568-3.987,0.568-6.041C60.214,35.108,59.563,31.511,58.373,28.167 M2.958,33.981c0-0.198,0.161-0.358,0.359-0.358
		c0.198,0,0.36,0.161,0.36,0.358c0,0.199-0.162,0.36-0.36,0.36C3.119,34.341,2.958,34.18,2.958,33.981 M3.114,38.912
		c-0.066-1.018,0.002-2.454,0.193-4.042c-0.002,0-0.004,0-0.005,0c0.005,0,0.009,0.001,0.015,0.001c0.491,0,0.89-0.397,0.89-0.889
		c0-0.029-0.006-0.058-0.009-0.087c0.026-0.024,0.05-0.045,0.079-0.076c0.04-0.057,0.13-0.086,0.202-0.136
		c0.079-0.041,0.159-0.105,0.252-0.125c0.095-0.033,0.19-0.064,0.287-0.098c0.086-0.011,0.172-0.022,0.257-0.032
		c0.015,1.741,0.104,3.541,0.255,5.203H5.068v1.052H3.635C3.568,39.265,3.365,38.956,3.114,38.912 M6.13,46.046
		c-1.627-0.149-2.652-2.009-2.829-5.091c0.163-0.128,0.285-0.379,0.334-0.684h1.433v1.1h0.785c0.171,1.135,0.372,2.111,0.597,2.817
		h0.347v1.802H6.512c-0.029-0.135-0.102-0.232-0.188-0.232C6.226,45.759,6.148,45.884,6.13,46.046 M7.154,49.744
		c-0.354-0.337-0.689-1.604-0.72-3.335c0.035-0.041,0.063-0.097,0.079-0.167h0.285v1.572h0.356V49.744z M7.359,25.013H6.45
		c-0.823,1.057-1.165,4.237-1.175,7.781c-0.085-0.023-0.171-0.045-0.256-0.068c-0.139-0.011-0.277-0.02-0.414-0.031
		c-0.142-0.018-0.275,0.012-0.411,0.026C4.06,32.746,3.93,32.743,3.799,32.8c-0.131,0.045-0.258,0.091-0.373,0.139
		c0.057-0.023,0.114-0.045,0.175-0.068c0.674-3.906,1.985-8.034,3.758-8.9V25.013z M8.952,33.981c-0.389,0-0.703-0.314-0.703-0.703
		s0.314-0.704,0.703-0.704c0.389,0,0.704,0.315,0.704,0.704S9.341,33.981,8.952,33.981 M8.952,30.678
		c-0.516,0-0.934-0.418-0.934-0.933c0-0.516,0.417-0.934,0.934-0.934s0.934,0.418,0.934,0.934
		C9.886,30.26,9.468,30.678,8.952,30.678 M34.776,29.046c-2.302,1.084-4.535,1.956-6.743,1.936
		C9.257,30.812,9.809,25.013,9.809,25.013H8.22v-0.801c1.404,0.98,6.26,2.522,11.82,3.415c1.983,0.319,4.752,0.658,7.529,0.658
		c2.227,0,4.458-0.219,6.295-0.842v0.951c0.28,0.19,0.592,0.307,0.913,0.352V29.046z M43.962,32.892c2.397,0,4.34,1.944,4.34,4.341
		c0,2.398-1.943,4.34-4.34,4.34s-4.341-1.942-4.341-4.34C39.621,34.836,41.565,32.892,43.962,32.892 M35.384,28.745
		c0.011-0.001,0.022-0.004,0.034-0.006c-0.012,0.006-0.022,0.011-0.034,0.017V28.745z"/>
	<path fill="#F15A29" d="M28.265,5.867c18.22,0,32.988,14.769,32.988,32.988c0,5.447-1.32,10.585-3.659,15.114
		c4.165-5.443,6.641-12.248,6.641-19.632C64.235,16.478,49.758,2,31.898,2C21.991,2,13.125,6.457,7.194,13.474
		C12.909,8.724,20.252,5.867,28.265,5.867"/>
	<path fill="#1D2959" d="M76.225,62.765c0,0.93-1.872,1.655-4.104,1.624L70.3,64.363c-2.082-0.028-58.98-1.599-58.98-1.599
		s56.898-1.569,58.98-1.599l1.821-0.025C74.353,61.108,76.225,61.836,76.225,62.765"/>
	<path fill="#FFFFFF" d="M72.678,62.071l-0.216,0.003l-1.5,0.02h-0.204c-0.864,0.008-1.552,0.308-1.552,0.671
		s0.688,0.663,1.552,0.669l0.204,0.003l1.5,0.02l0.216,0.001c0.946,0.009,1.728-0.303,1.728-0.692S73.624,62.064,72.678,62.071"/>
	<path fill="#1D2959" d="M66.73,58.573c0.233,0.01,0.574,0.052,0.99,0.161c0.417,0.105,0.903,0.303,1.416,0.598
		c0.514,0.298,1.041,0.715,1.554,1.229c0.024,0.024,0.048,0.054,0.073,0.079l0.816-0.011c-0.167-0.169-0.336-0.331-0.506-0.479
		c-0.584-0.511-1.198-0.883-1.767-1.146c-0.57-0.265-1.107-0.396-1.548-0.458c-0.443-0.063-0.794-0.045-1.029-0.024
		c-0.118,0.007-0.207,0.024-0.267,0.031c-0.06,0.009-0.09,0.013-0.09,0.013s0.031,0,0.092,0.001
		C66.523,58.567,66.614,58.563,66.73,58.573"/>
	<path fill="#1D2959" d="M93.359,62.407c-0.426,0.109-0.936,0.258-1.526,0.417c-0.584,0.173-1.249,0.353-1.964,0.552
		c-0.717,0.196-1.497,0.392-2.306,0.521c-0.811,0.118-1.645,0.129-2.419-0.154c-0.388-0.143-0.763-0.358-1.132-0.613
		c-0.188-0.129-0.366-0.265-0.544-0.408l-0.286-0.235c-0.126-0.107-0.273-0.196-0.426-0.268c-0.31-0.14-0.643-0.186-0.944-0.175
		c-0.306,0.007-0.585,0.065-0.852,0.136c-0.532,0.145-1.009,0.35-1.474,0.561c-0.922,0.425-1.798,0.88-2.684,1.162
		c-0.44,0.14-0.883,0.234-1.305,0.241c-0.422,0.006-0.82-0.074-1.173-0.255c-0.353-0.18-0.661-0.451-0.917-0.773
		c-0.093-0.112-0.174-0.23-0.251-0.35h-0.889c0.04,0.074,0.079,0.149,0.118,0.226c0.119,0.207,0.246,0.416,0.394,0.611
		c0.291,0.395,0.671,0.769,1.146,1.032c0.473,0.269,1.034,0.4,1.576,0.399c0.544,0.003,1.07-0.103,1.57-0.248
		c1-0.296,1.917-0.751,2.819-1.141c0.45-0.195,0.896-0.384,1.328-0.496c0.431-0.114,0.844-0.141,1.118-0.006
		c0.068,0.035,0.135,0.071,0.195,0.125l0.275,0.235c0.2,0.167,0.405,0.328,0.613,0.477c0.424,0.295,0.889,0.546,1.385,0.722
		c0.497,0.169,1.017,0.255,1.512,0.26c0.496-0.003,0.965-0.066,1.407-0.154c0.885-0.176,1.664-0.458,2.375-0.717
		c0.712-0.261,1.346-0.538,1.911-0.773c0.56-0.248,1.048-0.46,1.445-0.648c0.799-0.367,1.248-0.597,1.248-0.597
		S94.208,62.181,93.359,62.407"/>
	<path fill="#1D2959" d="M103.8,66.307c-0.169,0-0.312-0.145-0.312-0.312v-3.321l-1.532,2.1c-0.056,0.081-0.149,0.125-0.249,0.125
		c-0.101,0-0.193-0.044-0.256-0.125l-1.533-2.1v3.321c0,0.167-0.137,0.312-0.311,0.312c-0.168,0-0.311-0.145-0.311-0.312v-4.274
		c0-0.138,0.087-0.255,0.217-0.299c0.125-0.043,0.268,0.006,0.35,0.112l1.844,2.528l1.844-2.528
		c0.081-0.106,0.218-0.155,0.349-0.112c0.125,0.044,0.212,0.161,0.212,0.299v4.274C104.11,66.162,103.974,66.307,103.8,66.307"/>
	<path fill="#1D2959" d="M107.639,66.437c-0.343,0-0.68-0.068-0.997-0.205c-0.306-0.131-0.58-0.312-0.815-0.548
		c-0.231-0.237-0.418-0.505-0.549-0.811c-0.132-0.311-0.199-0.642-0.199-0.978c0-0.343,0.067-0.673,0.206-0.985
		c0.131-0.298,0.317-0.573,0.555-0.803c0.235-0.237,0.51-0.418,0.815-0.548c0.318-0.132,0.654-0.2,1.003-0.2
		c0.68,0,1.314,0.268,1.787,0.754c0.23,0.23,0.406,0.505,0.531,0.804c0.13,0.312,0.193,0.642,0.193,0.979
		c0,0.342-0.063,0.673-0.193,0.978c-0.125,0.306-0.306,0.579-0.537,0.811C108.959,66.169,108.324,66.437,107.639,66.437
		 M107.657,61.982c-0.262,0-0.517,0.05-0.76,0.15c-0.237,0.099-0.443,0.235-0.623,0.417c-0.181,0.173-0.324,0.379-0.418,0.609
		c-0.105,0.231-0.155,0.48-0.155,0.736c0,0.255,0.05,0.498,0.15,0.734c0.099,0.23,0.235,0.437,0.416,0.61
		c0.367,0.368,0.854,0.574,1.371,0.574s0.997-0.206,1.358-0.567c0.175-0.175,0.305-0.381,0.405-0.611
		c0.093-0.235,0.143-0.485,0.143-0.74c0-0.512-0.193-0.991-0.541-1.346C108.648,62.182,108.168,61.982,107.657,61.982"/>
	<path fill="#1D2959" d="M115.012,66.35c-0.094,0-0.182-0.043-0.243-0.111l-3.01-3.62v3.414c0,0.174-0.137,0.311-0.312,0.311
		s-0.312-0.137-0.312-0.311v-4.273c0-0.132,0.081-0.25,0.206-0.293c0.125-0.044,0.262-0.007,0.342,0.094l3.016,3.612v-3.407
		c0-0.175,0.138-0.312,0.312-0.312c0.168,0,0.311,0.138,0.311,0.312v4.274c0,0.13-0.086,0.243-0.206,0.292
		C115.079,66.343,115.043,66.35,115.012,66.35"/>
	<path fill="#1D2959" d="M118.851,66.437c-0.344,0-0.68-0.068-0.997-0.205c-0.305-0.131-0.579-0.312-0.815-0.548
		c-0.23-0.237-0.417-0.505-0.549-0.811c-0.131-0.311-0.199-0.642-0.199-0.978c0-0.343,0.068-0.673,0.205-0.985
		c0.132-0.298,0.318-0.573,0.555-0.803c0.237-0.237,0.512-0.418,0.816-0.548c0.317-0.132,0.654-0.2,1.004-0.2
		c0.678,0,1.314,0.268,1.787,0.754c0.23,0.23,0.405,0.505,0.529,0.804c0.131,0.312,0.194,0.642,0.194,0.979
		c0,0.342-0.063,0.673-0.194,0.978c-0.124,0.306-0.306,0.579-0.536,0.811C120.171,66.169,119.536,66.437,118.851,66.437
		 M118.87,61.982c-0.263,0-0.519,0.05-0.761,0.15c-0.236,0.099-0.442,0.235-0.623,0.417c-0.182,0.173-0.324,0.379-0.418,0.609
		c-0.104,0.231-0.155,0.48-0.155,0.736c0,0.255,0.051,0.498,0.149,0.734c0.1,0.23,0.237,0.437,0.418,0.61
		c0.367,0.368,0.853,0.574,1.37,0.574c0.517,0,0.996-0.206,1.358-0.567c0.175-0.175,0.305-0.381,0.405-0.611
		c0.093-0.235,0.144-0.485,0.144-0.74c0-0.512-0.193-0.991-0.543-1.346C119.859,62.182,119.38,61.982,118.87,61.982"/>
	<path fill="#1D2959" d="M124.909,66.443c-0.35,0-0.687-0.068-0.997-0.205c-0.307-0.125-0.58-0.312-0.816-0.549
		c-0.237-0.23-0.418-0.504-0.549-0.804c-0.137-0.317-0.199-0.648-0.199-0.984c0-0.343,0.068-0.673,0.199-0.984
		c0.131-0.299,0.317-0.573,0.555-0.804c0.237-0.237,0.517-0.417,0.823-0.548c0.317-0.132,0.653-0.199,0.996-0.199
		c0.53,0,1.028,0.161,1.452,0.46c0.143,0.101,0.175,0.294,0.074,0.437c-0.1,0.137-0.292,0.174-0.436,0.074
		c-0.318-0.229-0.692-0.349-1.091-0.349c-0.262,0-0.517,0.051-0.759,0.156c-0.232,0.094-0.443,0.236-0.617,0.411
		c-0.182,0.181-0.325,0.38-0.425,0.61c-0.099,0.237-0.148,0.48-0.148,0.735s0.05,0.505,0.148,0.734
		c0.1,0.23,0.237,0.437,0.418,0.611c0.367,0.368,0.854,0.573,1.371,0.573c0.273,0,0.542-0.056,0.784-0.168
		c0.199-0.094,0.386-0.219,0.542-0.374v-1.296c0-0.174,0.138-0.312,0.312-0.312c0.174,0,0.311,0.138,0.311,0.312v1.428
		c0,0.073-0.031,0.148-0.08,0.205c-0.237,0.255-0.513,0.461-0.829,0.604C125.625,66.368,125.27,66.443,124.909,66.443"/>
	<path fill="#1D2959" d="M128.169,66.331c-0.175,0-0.312-0.143-0.312-0.312v-4.273c0-0.175,0.138-0.312,0.312-0.312h1.851
		c0.024,0,0.174,0,0.367,0.05c0.273,0.069,0.517,0.206,0.697,0.387c0.143,0.137,0.25,0.305,0.325,0.498
		c0.087,0.212,0.124,0.455,0.124,0.723c0,0.585-0.25,1.041-0.717,1.31c-0.112,0.062-0.236,0.118-0.373,0.155
		c0.267,0.23,0.51,0.523,0.703,0.866c0.162,0.274,0.337,0.274,0.361,0.274c0.168-0.02,0.324,0.093,0.349,0.261
		c0.025,0.168-0.093,0.331-0.261,0.354c-0.043,0.007-0.187,0.02-0.381-0.042c-0.169-0.063-0.411-0.2-0.604-0.536
		c-0.218-0.374-0.486-0.667-0.798-0.867c-0.218-0.143-0.38-0.187-0.393-0.187c-0.162-0.031-0.269-0.174-0.249-0.336
		c0.012-0.161,0.148-0.281,0.312-0.281c0.442,0,0.786-0.067,1.027-0.205c0.275-0.155,0.399-0.397,0.399-0.767
		c0-0.248-0.043-0.454-0.137-0.615c-0.069-0.12-0.162-0.213-0.287-0.287c-0.217-0.125-0.449-0.132-0.467-0.132h-1.54v3.963
		C128.479,66.188,128.344,66.331,128.169,66.331"/>
	<path fill="#1D2959" d="M133.142,66.331c-0.062,0-0.131-0.02-0.187-0.062c-0.118-0.088-0.161-0.25-0.094-0.387l2.075-4.273
		c0.056-0.106,0.161-0.176,0.28-0.176c0.118,0,0.229,0.069,0.28,0.176l2.087,4.268c0.076,0.149,0.013,0.336-0.144,0.411
		c-0.155,0.08-0.342,0.012-0.417-0.139l-0.485-1.002c-0.325-0.094-0.667-0.105-1.035-0.037c-0.342,0.062-0.697,0.187-1.065,0.38
		c-0.636,0.336-1.077,0.748-1.083,0.754C133.298,66.3,133.217,66.331,133.142,66.331 M135.217,62.456l-1.253,2.586
		c0.057-0.032,0.113-0.062,0.174-0.094c0.419-0.225,0.843-0.374,1.247-0.449c0.279-0.05,0.549-0.069,0.811-0.044L135.217,62.456z"/>
	<path fill="#1D2959" d="M143.088,66.307c-0.168,0-0.312-0.145-0.312-0.312v-3.321l-1.533,2.1c-0.055,0.081-0.149,0.125-0.247,0.125
		c-0.101,0-0.193-0.044-0.257-0.125l-1.533-2.1v3.321c0,0.167-0.136,0.312-0.311,0.312c-0.168,0-0.312-0.145-0.312-0.312v-4.274
		c0-0.138,0.087-0.255,0.218-0.299c0.125-0.043,0.269,0.006,0.349,0.112l1.846,2.528l1.844-2.528
		c0.081-0.106,0.218-0.155,0.349-0.112c0.124,0.044,0.211,0.161,0.211,0.299v4.274C143.398,66.162,143.263,66.307,143.088,66.307"/>
	<path fill="#1D2959" d="M148.903,66.307c-0.169,0-0.312-0.145-0.312-0.312v-3.321l-1.533,2.1c-0.056,0.081-0.149,0.125-0.248,0.125
		c-0.101,0-0.193-0.044-0.256-0.125l-1.533-2.1v3.321c0,0.167-0.137,0.312-0.311,0.312c-0.169,0-0.312-0.145-0.312-0.312v-4.274
		c0-0.138,0.087-0.255,0.219-0.299c0.125-0.043,0.268,0.006,0.349,0.112l1.845,2.528l1.844-2.528
		c0.081-0.106,0.218-0.155,0.35-0.112c0.124,0.044,0.211,0.161,0.211,0.299v4.274C149.214,66.162,149.077,66.307,148.903,66.307"/>
	<path fill="#1D2959" d="M150.524,66.331c-0.168,0-0.312-0.137-0.312-0.312v-4.273c0-0.169,0.144-0.312,0.312-0.312
		c0.174,0,0.312,0.144,0.312,0.312v4.273C150.836,66.194,150.698,66.331,150.524,66.331"/>
	<path fill="#1D2959" d="M155.709,66.35c-0.094,0-0.181-0.043-0.243-0.111l-3.01-3.62v3.414c0,0.174-0.137,0.311-0.311,0.311
		c-0.177,0-0.312-0.137-0.312-0.311v-4.273c0-0.132,0.081-0.25,0.205-0.293c0.125-0.044,0.262-0.007,0.345,0.094l3.015,3.612v-3.407
		c0-0.175,0.138-0.312,0.312-0.312c0.168,0,0.311,0.138,0.311,0.312v4.274c0,0.13-0.087,0.243-0.205,0.292
		C155.777,66.343,155.739,66.35,155.709,66.35"/>
	<path fill="#1D2959" d="M159.58,66.443c-0.35,0-0.687-0.068-0.998-0.205c-0.305-0.125-0.579-0.312-0.816-0.549
		c-0.236-0.23-0.418-0.504-0.549-0.804c-0.136-0.317-0.199-0.648-0.199-0.984c0-0.343,0.069-0.673,0.199-0.984
		c0.131-0.299,0.318-0.573,0.556-0.804c0.237-0.237,0.517-0.417,0.822-0.548c0.317-0.132,0.654-0.199,0.996-0.199
		c0.53,0,1.028,0.161,1.452,0.46c0.144,0.101,0.174,0.294,0.074,0.437c-0.099,0.137-0.292,0.174-0.435,0.074
		c-0.319-0.229-0.693-0.349-1.092-0.349c-0.261,0-0.518,0.051-0.76,0.156c-0.23,0.094-0.441,0.236-0.617,0.411
		c-0.18,0.181-0.323,0.38-0.423,0.61c-0.1,0.237-0.149,0.48-0.149,0.735s0.05,0.505,0.149,0.734c0.1,0.23,0.236,0.437,0.418,0.611
		c0.367,0.368,0.853,0.573,1.371,0.573c0.272,0,0.541-0.056,0.783-0.168c0.199-0.094,0.387-0.219,0.543-0.374v-1.296
		c0-0.174,0.137-0.312,0.311-0.312c0.176,0,0.312,0.138,0.312,0.312v1.428c0,0.073-0.031,0.148-0.08,0.205
		c-0.238,0.255-0.513,0.461-0.83,0.604C160.296,66.368,159.94,66.443,159.58,66.443"/>
	<path fill="#1D2959" d="M162.839,67.029c-0.174,0-0.311-0.137-0.311-0.312v-1.034c0-0.175,0.137-0.312,0.311-0.312
		c0.169,0,0.312,0.138,0.312,0.312v1.034C163.15,66.893,163.008,67.029,162.839,67.029"/>
	<path fill="#F15A29" d="M167.264,66.331c-0.167,0-0.312-0.137-0.312-0.312v-4.273c0-0.169,0.145-0.312,0.312-0.312
		c0.176,0,0.312,0.144,0.312,0.312v4.273C167.575,66.194,167.439,66.331,167.264,66.331"/>
	<path fill="#F15A29" d="M172.449,66.35c-0.095,0-0.181-0.043-0.244-0.111l-3.009-3.62v3.414c0,0.174-0.137,0.311-0.312,0.311
		c-0.176,0-0.312-0.137-0.312-0.311v-4.273c0-0.132,0.082-0.25,0.206-0.293c0.125-0.044,0.262-0.007,0.343,0.094l3.015,3.612v-3.407
		c0-0.175,0.138-0.312,0.313-0.312c0.167,0,0.311,0.138,0.311,0.312v4.274c0,0.13-0.087,0.243-0.205,0.292
		C172.517,66.343,172.479,66.35,172.449,66.35"/>
	<path fill="#F15A29" d="M176.32,66.412c-0.35,0-0.687-0.069-1.004-0.206c-0.299-0.13-0.573-0.311-0.811-0.548
		c-0.237-0.23-0.417-0.505-0.549-0.81c-0.137-0.312-0.199-0.642-0.199-0.979c0-0.341,0.069-0.672,0.199-0.983
		c0.132-0.3,0.318-0.573,0.555-0.804c0.237-0.236,0.519-0.417,0.822-0.548c0.318-0.132,0.654-0.2,0.997-0.2
		c0.562,0,1.085,0.175,1.521,0.512c0.138,0.105,0.162,0.299,0.062,0.437c-0.106,0.137-0.305,0.161-0.436,0.062
		c-0.331-0.255-0.723-0.387-1.147-0.387c-0.261,0-0.518,0.05-0.76,0.15c-0.23,0.099-0.441,0.236-0.623,0.416
		c-0.174,0.176-0.317,0.381-0.418,0.611c-0.099,0.23-0.149,0.48-0.149,0.734c0,0.257,0.051,0.5,0.149,0.737
		c0.101,0.229,0.237,0.436,0.418,0.609c0.368,0.368,0.853,0.574,1.372,0.574c0.229,0,0.448-0.045,0.659-0.119
		c0.205-0.075,0.392-0.188,0.561-0.324c0.13-0.112,0.324-0.094,0.437,0.038c0.111,0.131,0.093,0.33-0.037,0.436
		c-0.226,0.187-0.473,0.329-0.742,0.43C176.917,66.355,176.618,66.412,176.32,66.412"/>
	<path fill="#F15A29" d="M179.979,65.863c0,0.262-0.206,0.468-0.462,0.468c-0.261,0-0.467-0.206-0.467-0.468
		c0-0.255,0.206-0.467,0.467-0.467C179.772,65.396,179.979,65.608,179.979,65.863"/>
</g>
</svg>
