<?xml version="1.0" encoding="UTF-8"?>
<svg id="Layer_0_xA0_Image" xmlns="http://www.w3.org/2000/svg" version="1.1" xmlns:xlink="http://www.w3.org/1999/xlink" viewBox="0 0 720 648">
  <!-- Generator: Adobe Illustrator 29.5.1, SVG Export Plug-In . SVG Version: 2.1.0 Build 141)  -->
  <defs>
    <style>
      .st0, .st1 {
        fill: #fff;
      }

      .st2, .st3, .st4 {
        fill: #0f2743;
      }

      .st1, .st5, .st6, .st4, .st7, .st8 {
        fill-rule: evenodd;
      }

      .st5, .st9 {
        fill: #e85b24;
      }

      .st10, .st6 {
        fill: none;
      }

      .st6 {
        stroke: #ff6517;
        stroke-width: .1px;
      }

      .st6, .st3 {
        stroke-miterlimit: 10;
      }

      .st11 {
        fill: #102a48;
      }

      .st3 {
        stroke: #0f2743;
        stroke-width: 2px;
      }

      .st12 {
        fill: #b4bac0;
      }

      .st7 {
        fill: url(#linear-gradient1);
      }

      .st13 {
        fill: #fefefe;
      }

      .st14 {
        fill: url(#linear-gradient);
      }

      .st15 {
        fill: #fffffe;
      }

      .st16 {
        fill: #e65c24;
      }
    </style>
    <linearGradient id="linear-gradient" x1="357.38" y1="208.79" x2="357.38" y2="47.83" gradientUnits="userSpaceOnUse">
      <stop offset="0" stop-color="#f7b350"/>
      <stop offset=".18" stop-color="#f6ae4e"/>
      <stop offset=".38" stop-color="#f3a148"/>
      <stop offset=".59" stop-color="#ee8a3f"/>
      <stop offset=".8" stop-color="#e86c33"/>
      <stop offset="1" stop-color="#e14825"/>
    </linearGradient>
    <linearGradient id="linear-gradient1" x1="383.94" y1="276.83" x2="383.94" y2="111.35" gradientUnits="userSpaceOnUse">
      <stop offset="0" stop-color="#112a47" stop-opacity="0"/>
      <stop offset=".08" stop-color="#112a47" stop-opacity=".31"/>
      <stop offset=".19" stop-color="#112a47" stop-opacity=".62"/>
      <stop offset=".31" stop-color="#112a47" stop-opacity=".83"/>
      <stop offset=".45" stop-color="#112a47" stop-opacity=".96"/>
      <stop offset=".65" stop-color="#112a47"/>
    </linearGradient>
  </defs>
  <path class="st14" d="M163.62,181.43l12.96-5.94,2.79-.99,37.98-22.77,15.57-11.7,2.52-.09,18.42,10.83,6.6-.9,19.38,10.08,29.28-19.08,12.42-2.82,15.78-14.1,10.5-1.98,19.26-15.54,1.44-.06,42.3,34.2,11.82.96,15,12.18,15.12-9.3,6.06.12,15.96-12.06s2.46-1.38,4.56-.06c2.1,1.32,15,10.02,15,10.02l23.34,19.62,10.26-3.42s1.92-.6,3.9.9c1.98,1.5,28.98,21.66,28.98,21.66l6.06.54,19.92,12.96s2.38-.38,3.07-3.46c-45.87-78.9-131.31-131.96-229.15-131.96-102.81,0-191.93,58.57-235.83,144.16l.48-.22,38.25-21.78Z"/>
  <g>
    <path class="st3" d="M83.07,396.29c0-6.2,0-11.57-.09-13.83-.09-2.77-1.28-4.19-2.55-4.19h-3.65c-.46,0-.55-.25-.55-.59v-2.26c0-.42.09-.59.55-.59.82,0,3.65.25,13.58.25,5.1,0,13.13-.25,16.86-.25,7.11,0,12.4,2.35,16.13,5.53,3.28,2.77,5.2,6.04,5.2,9.14,0,10.65-8.66,15.42-16.68,16.1v.59c2.83.84,4.28,2.43,6.02,4.44,1.19,1.34,6.2,8.8,6.93,9.81.55.75,5.47,7.13,7.29,9.05,1.09,1.09,4.56,1.76,6.65,1.76.64,0,.73.33.73.67v2.01c0,.5-.09.75-.73.75-.73,0-3.1-.25-10.12-.25-2.64,0-6.02.17-8.66.25-2.73-1.93-8.39-11.65-9.94-14.5-3.1-5.7-6.84-11.9-11.21-11.9h-3.1v4.28c0,4.95.27,14.33.46,15.42.18,1.76.91,3.27,2.28,3.27h3.74c.64,0,.73.25.73.67v2.01c0,.59-.09.75-1.46.75-.09,0-2.37-.25-11.94-.25s-11.76.25-12.76.25c-.73,0-.73-.25-.73-.84v-1.93c0-.42,0-.67.46-.67h2.73c2.01,0,3.65-.59,3.65-2.68.18-8.3.18-16.18.18-24.14v-8.13ZM95.83,405.34c1.73.08,2.83.08,3.65.08,12.03,0,14.86-10.56,14.86-14.5s-1.46-7.54-3.46-9.39c-3.28-2.68-7.38-3.69-10.12-3.69-1.55,0-2.73.17-3.46.75-.55.33-.82,1.26-1,2.26l-.46,24.48Z"/>
    <path class="st3" d="M171.94,402.32c4.19,0,8.2-.25,9.3-.5,1.55-.34,2.83-1.09,4.19-2.6,1-1.26,2.1-3.61,2.1-5.2,0-.59.27-.75.73-.75l2.46.25c.46.08.82.17.73.67-.27,1.42-.27,5.78-.27,8.72,0,3.77.36,7.8.55,9.56.09.5-.27.59-.73.67l-2.19.42c-.36.08-.55-.08-.73-.67-.36-1.34-1.28-3.27-1.82-4.28-1-1.59-3.19-2.68-5.01-2.93-2.46-.34-5.29-.5-9.3-.5v5.03c0,4.53.46,12.66.46,14.17,0,4.36,1,5.87,2.19,6.37,1.37.5,3.1.75,7.66.75,1.55,0,5.38-.08,7.29-.25,1.82-.17,4.56-1.01,6.93-2.77s7.48-6.96,9.3-8.97c.36-.34.64-.42.91-.25l1.55.84c.36.17.46.42.36.67l-4.1,12.66c-.27.75-.91,1.26-2.01,1.26-.46,0-2.46-.08-8.3-.17-5.93,0-15.59-.08-31.36-.08-3.37,0-5.93.08-7.75.08-1.91.08-3.1.17-3.92.17-.64,0-.82-.25-.82-.92v-1.76c0-.5.27-.75.91-.75h2.73c4.19,0,4.56-.59,4.56-3.52v-28.08c0-6.96-.18-17.27-.27-18.11-.36-2.68-1.28-3.27-3.74-3.27h-3.56c-.36,0-.46-.25-.46-.84v-2.01c0-.25.09-.59.64-.59,2.01,0,5.2.25,13.49.25l32-.08c1.46,0,3.19-.17,3.65-.17s.64.17.73.42c.36,1.17,3.37,12.66,3.74,13.5.18.42.18.59-.27.84l-1.46.67c-.36.17-.82.08-1.09-.33-.46-.67-8.66-8.22-10.76-9.39-1.91-1.09-4.47-2.18-6.93-2.26l-12.03-.34-.27,24.4Z"/>
    <path class="st3" d="M229.19,395.95c0-2.18-.27-14.08-.46-15.34-.27-2.01-1.46-2.35-3.01-2.35h-4.56c-.46,0-.73-.08-.73-.59v-2.43c0-.33.27-.42.64-.42,1.19,0,5.2.25,14.31.25,2.37,0,11.49-.25,13.58-.25,12.4,0,22.24,1.01,30.9,7.63,6.02,4.61,10.21,11.57,10.21,21.29s-3.01,16.01-9.02,22.05c-8.84,8.8-24.43,8.89-30.17,8.89-1.46,0-12.21-.25-17.23-.25-7.93,0-11.58.25-12.85.25-.46,0-.64-.17-.64-.75v-2.18c0-.33.27-.5.73-.5h4.74c1.73,0,2.73-.67,2.92-2.01.27-1.76.64-20.62.64-26.99v-6.29ZM242.86,404.08c0,1.09.09,15.34.18,20.54,0,1.68.36,3.02,1.55,4.61,1.09,1.51,4.19,2.01,7.29,2.01,5.29,0,12.31-2.43,17.05-8.22,3.65-4.44,6.47-11.32,6.47-19.11,0-6.87-3.1-13.92-7.38-18.28-4.83-4.95-12.85-7.63-18.14-7.63-2.55,0-3.92.08-5.1.67-1.37.59-1.73,1.93-1.82,3.6-.09,3.52-.09,14.5-.09,15.84v5.95Z"/>
    <path class="st3" d="M319.34,423.45c.27,3.1,1.73,7.8,4.74,7.8h3.55c.55,0,.64.25.64.59v2.26c0,.33-.09.59-.82.59-1,0-3.46-.25-10.12-.25-7.75,0-10.94.25-11.76.25-.73,0-.82-.08-.82-.75v-2.18c0-.25.09-.5.55-.5h3.74c2.92,0,4.01-3.86,4.38-6.54.82-5.95,1.64-25.74,1.64-27.25l-.09-12.83c0-3.86-.91-6.37-5.01-6.37h-3.01c-.55,0-.64-.25-.64-.59v-2.35c0-.25.09-.5.64-.5.91,0,3.37.25,14.13.25,4.28,0,7.11-.25,8.2-.25.91,0,1.64.08,2.19,1.42,5.83,14.25,12.4,28.17,17.5,40.74,1-1.59,7.93-17.19,8.48-18.36.36-.84,9.48-20.87,9.94-22.55.27-.92,1.46-1.01,4.19-1.01,14.22,0,17.32-.25,18.32-.25.46,0,.55.25.55.75v1.93c0,.5-.09.75-.73.75h-4.01c-2.1,0-2.37,1.51-2.37,3.27,0,1.26.09,21.88.18,23.64,0,1.68.27,20.04.27,21.54,0,3.19.82,4.53,2.1,4.53h4.38c.55,0,.64.25.64.59v2.1c0,.5-.09.75-.82.75-1.09,0-2.73-.25-13.49-.25-9.3,0-12.85.25-14.04.25-.64,0-.73-.25-.73-.75v-2.1c0-.42.09-.59.73-.59h5.11c1.55,0,2.37-.5,2.55-2.85.09-1.01.37-16.26.37-22.13v-25.57h-.55c-.91,1.42-11.12,24.23-12.76,27.67-1.91,3.86-10.03,22.47-10.48,23.22-.46.67-1.09,1.93-2.19,1.93-.64,0-1.19-.59-1.64-1.51-.27-.59-12.31-26.58-12.94-28.08-1.64-3.86-10.03-22.63-10.76-23.64-.36,1.17-.55,22.38-.55,23.39s.09,12.41.64,19.78Z"/>
    <path class="st3" d="M421.25,430.24c-6.47-3.6-13.4-12.66-13.4-24.9,0-5.11,1.46-13.08,8.48-20.87,8.02-8.97,18.32-10.65,26.53-10.65,7.57,0,14.58,1.09,22.24,6.62,6.93,5.03,12.49,13.5,12.49,25.07,0,6.12-2.1,12.49-6.84,18.36-5.93,6.79-13.67,11.82-28.08,11.82-6.29,0-14.22-1.34-21.42-5.45ZM463.27,406.18c0-18.36-13.13-28.42-20.78-28.42-1.82,0-6.38-.42-11.94,4.53-5.38,4.69-8.11,13.5-8.11,20.37,0,21.46,13.4,29.09,20.97,29.09,16.86,0,19.87-18.69,19.87-25.57Z"/>
    <path class="st3" d="M551.32,410.03c0-7.46-.09-11.57-.27-15.76-.09-3.27-.55-11.49-.82-12.74-.55-2.1-2.73-3.27-4.83-3.27h-2.92c-.46,0-.55-.25-.55-.75v-2.1c0-.42.09-.59.82-.59,1,0,3.92.25,10.67.25,5.47,0,7.66-.25,8.66-.25.82,0,.91.17.91.67v2.01c0,.42-.09.75-.46.75h-2.55c-1.55,0-2.46,1.42-2.73,4.44-.64,5.62-2.1,24.56-2.1,35.63v14.33c0,1.26-.09,2.77-1.37,2.77-1.37,0-2.55-.42-3.55-1.34-1.55-1.34-6.02-5.79-11.49-11.74-6.56-7.13-13.86-15.17-15.59-17.02-1.55-1.68-14.13-16.1-16.23-18.86h-.73v16.93c0,6.96.82,17.27.91,20.46.18,4.86,1.82,7.38,5.65,7.38h2.28c.64,0,.73.25.73.75v2.01c0,.5-.09.67-.73.67-.91,0-6.38-.25-10.67-.25-2.83,0-9.12.25-10.03.25-.36,0-.46-.17-.46-.75v-2.18c0-.25.09-.5.55-.5h3.19c2,0,3.46-2.68,3.92-8.3.09-1.59.82-15.01.82-27.41v-7.54c0-4.95-3.28-9.64-7.84-9.72l-2.28-.08c-.46,0-.55-.34-.55-.59v-2.26c0-.33.09-.5.55-.5s1.19.08,2.92.08c1.82.08,4.74.17,9.48.17,3.1,0,5.83-.17,6.93-.17,1.19,0,1.92.33,2.64,1.09.46.5,18.41,20.71,21.15,23.81,1.28,1.42,14.58,16.77,15.59,17.86h.36v-7.63Z"/>
    <path class="st3" d="M585.41,395.95c0-2.18-.27-14.08-.46-15.34-.27-2.01-1.46-2.35-3.01-2.35h-4.56c-.46,0-.73-.08-.73-.59v-2.43c0-.33.27-.42.64-.42,1.19,0,5.2.25,14.31.25,2.37,0,11.49-.25,13.58-.25,12.4,0,22.24,1.01,30.9,7.63,6.02,4.61,10.21,11.57,10.21,21.29s-3.01,16.01-9.02,22.05c-8.84,8.8-24.43,8.89-30.17,8.89-1.46,0-12.21-.25-17.23-.25-7.93,0-11.58.25-12.85.25-.46,0-.64-.17-.64-.75v-2.18c0-.33.27-.5.73-.5h4.74c1.73,0,2.73-.67,2.92-2.01.27-1.76.64-20.62.64-26.99v-6.29ZM599.09,404.08c0,1.09.09,15.34.18,20.54,0,1.68.37,3.02,1.55,4.61,1.09,1.51,4.19,2.01,7.29,2.01,5.29,0,12.31-2.43,17.05-8.22,3.65-4.44,6.47-11.32,6.47-19.11,0-6.87-3.1-13.92-7.38-18.28-4.83-4.95-12.85-7.63-18.14-7.63-2.55,0-3.92.08-5.1.67-1.37.59-1.73,1.93-1.82,3.6-.09,3.52-.09,14.5-.09,15.84v5.95Z"/>
  </g>
  <g>
    <path class="st11" d="M359.55,562.08c-21.73,0-39.41-17.68-39.41-39.41s17.68-39.41,39.41-39.41,39.41,17.68,39.41,39.41-17.68,39.41-39.41,39.41Z"/>
    <path class="st0" d="M359.55,488.26c-18.97,0-34.41,15.44-34.41,34.41s15.44,34.41,34.41,34.41,34.41-15.44,34.41-34.41-15.44-34.41-34.41-34.41Z"/>
    <circle class="st11" cx="359.55" cy="522.67" r="31.08"/>
    <path class="st13" d="M352.45,516.63l-14.25,27.38,27.96-14.14,14.73-28.39-28.45,15.16ZM359.5,526.91c-1.99,0-3.61-1.62-3.61-3.61s1.62-3.61,3.61-3.61,3.61,1.62,3.61,3.61-1.62,3.61-3.61,3.61Z"/>
    <path class="st12" d="M355.74,527.79l-15.22,13.91,14.53-14.63c.47-.47,1.18.26.69.72h0Z"/>
    <g>
      <path class="st10" d="M359.5,528.01c-2.6,0-4.71-2.11-4.71-4.71,0-2.08,1.36-3.83,3.23-4.45l-4.82-1.49-12.67,24.34,24.9-12.6-1.39-4.63c-.53,2.03-2.35,3.53-4.54,3.53Z"/>
      <path class="st16" d="M353.2,517.36l4.82,1.49c.47-.16.96-.26,1.48-.26,2.6,0,4.71,2.11,4.71,4.71,0,.41-.07.8-.17,1.18l1.39,4.63,13.1-25.25-25.33,13.5Z"/>
    </g>
    <polygon class="st0" points="359.55 491.26 358.21 496.36 359.55 501.45 360.89 496.36 359.55 491.26"/>
    <polygon class="st11" points="362.92 485.79 359.55 476.38 356.18 485.79 362.92 485.79"/>
    <polygon class="st0" points="328.14 522.67 333.24 524.01 338.33 522.67 333.24 521.33 328.14 522.67"/>
    <polygon class="st11" points="322.67 519.3 313.26 522.67 322.67 526.04 322.67 519.3"/>
    <polygon class="st0" points="359.55 554.08 360.89 548.99 359.55 543.89 358.21 548.99 359.55 554.08"/>
    <polygon class="st11" points="356.18 559.55 359.55 568.97 362.92 559.55 356.18 559.55"/>
    <polygon class="st0" points="390.96 522.67 385.86 521.33 380.77 522.67 385.86 524.01 390.96 522.67"/>
    <polygon class="st11" points="396.43 526.04 405.84 522.67 396.43 519.3 396.43 526.04"/>
  </g>
  <path class="st4" d="M379.43,305.62c-.85.25-1.11-.25-1.11-.25,0,0,1.04-1.61,1.61-2.75.57-1.14-.25-2.21-.95-2.31-.7-.09-.98.38-4.39,1.2-3.41.82-3.35.38-3.35.38-1.8-2.18-5.38-1.45-5.38-1.45,0,0,.28-1.9-.38-4.05-.66-2.15-2.37-1.87-2.37-1.87.03,3.89-1.14,5-1.14,5,0,0-.38-.19-1.01-1.23-.63-1.04-2.53-3.76-2.53-3.76,0,0-1.33,4.02-1.55,6.99-.22,2.97.51,4.81.54,6.01.03,1.2-.57,1.9-1.08,2.34-.51.44-.13.73-.22,1.17-.09.44-1.33,2.53-1.33,2.53l1.14-.16c-.79,1.68-2.12,3.6-2.12,3.6.79.06,1.45-.09,1.45-.09-.27,1.35-1.84,3.71-8.05,7.13-6.21,3.42-10.13,10.1-12.18,13.55-2.06,3.45-3.38,8.35-3.64,9.96-.25,1.61-1.55,4.21-4.93,5.41-3.38,1.2-9.39,1.14-10.09-2.5s1.36-4.77,1.36-4.77c-.98-.22-1.87.16-1.87.16,1.55-3.07,4.55-4.14,4.55-4.14-1.71-.57-3.38-.25-3.38-.25l.19-.89c-2.69.47-4.36,2.75-4.36,2.75-.28-.85-.09-1.52-.09-1.52-5.94,3.48-4.05,8.25-4.05,8.25-1.39-.44-1.3-1.64-1.3-1.64-1.04,4.43,1.11,7.05,1.49,7.4.38.35,1.26,1.68,1.26,1.68l-1.58-.22c3.57,5.03,8.22,4.52,10.28,4.65,2.06.13,6.45.06,8.25,0,1.8-.06,5.88.32,5.88.32h20.11s.06-.73-.82-2.43c-.89-1.71-4.68-1.77-4.68-1.77,0,0-.25-3.04,1.61-6.86,1.87-3.83,2.91-3.07,2.91-3.07-1.36,1.14-1.74,7.05-1.77,8.47-.03,1.42,1.33,1.49,1.93,2.02.6.54,2.28,3.54,2.28,3.54,0,0,15.56-.03,17.61,0,2.06.03,1.8-1.07,1.52-2.37-.28-1.3-2.4-1.17-4.27-1.61-1.87-.44-2.59-4.14-2.5-8.06.09-3.92,2.31-8.88,2.31-8.88-3.54,2.78-3.98,6.45-4.02,11.26-.03,4.81,1.49,6.29,1.49,6.29h-.47c-2.24-.6-2.88-6.42-1.58-11.76,1.3-5.34,5.53-7.62,5.53-7.62-.28.95-.03,1.68-.03,1.68.95-.79,2.62-4.36,2.62-4.36.32.22.51,1.36.51,1.36,1.55-1.93,2.02-6.07,2.02-6.07.19.38.98.57.98.57.66-1.99.28-4.77.28-4.77.47.09.89.38.89.38.6-7.34-3.83-10.31-5.03-13.03-1.2-2.72.85-4.14,1.68-4.65.82-.51,3.95-1.49,5.31-2.43s.85-2.66,0-2.4ZM332.68,357.6c-.84.96-1.62.9-1.62.9,0,0,1.32-1.59,1.58-2.74,0,0,.86.92.04,1.84ZM369.22,303.1c-.31,0-.56-.25-.56-.56s.25-.56.56-.56.56.25.56.56-.25.56-.56.56Z"/>
  <path class="st7" d="M234.42,143.45l18.84,11.46,6.42-.96,20.94,10.8,30.66-20.64,12.18-2.22,15.6-14.1,10.62-1.74,18.18-14.7,41.28,33.42,11.46.9,16.56,13.02,16.8-10.5,5.76-.06,16.62-12.42s1.26-.42,2.22.36,13.62,9.72,13.62,9.72l25.02,20.58,12.18-4.32,31.56,23.04,4.62.48,28.23,18.39s22.72,45.06,22.18,72.87H151.9l24.3-48.6,31.34-22.77,11.43-11.7.81-2.07,8.46-8.64-18,5.85,18.99-18.9v-6.84l-3.42,1.17,6.03-11.97-18.99,13.41-3.15.9-8.64,4.95-6.93,2.97-9.81,4.14,3.69-3.15v-1.35l28.62-17.46,17.79-13.32Z"/>
  <path class="st8" d="M412.88,112.36s7.6-2.5,11.3,2.9c0,0,3.31-5.62,11.3-2.95,0,0-7.31-.65-9.86,3.6,0,0,1.66.79.32,1.33s-1.3.58-2.45.29-1.76-.76-1.98-.94.32-.68,1.22-.54c0,0-2.45-4.01-9.86-3.69Z"/>
  <path class="st8" d="M436.93,101.08s6.14-2.26,9.33,2.05c0,0,2.55-4.69,9.16-2.73,0,0-6-.32-7.97,3.22,0,0,1.38.6.3,1.08s-1.04.51-1.99.3c-.95-.2-1.46-.57-1.65-.71-.18-.14.25-.57.99-.48,0,0-2.12-3.21-8.17-2.74Z"/>
  <path class="st8" d="M423.04,85.52s4.75-1.24,6.81,2.22c0,0,2.25-3.31,7.04-1.37,0,0-4.45-.68-6.18,1.82,0,0,.98.55.15.83-.84.28-.82.3-1.51.08-.69-.22-1.05-.53-1.18-.65-.13-.12.23-.41.77-.28,0,0-1.34-2.55-5.9-2.64Z"/>
  <path class="st8" d="M406.12,94.16s4.75-1.24,6.81,2.22c0,0,2.25-3.31,7.04-1.37,0,0-4.45-.68-6.18,1.82,0,0,.98.55.15.83-.84.28-.82.3-1.51.08-.69-.22-1.05-.53-1.18-.65-.13-.12.23-.41.77-.28,0,0-1.34-2.55-5.9-2.64Z"/>
  <path class="st8" d="M394.77,102.22s3.28-.4,4.35,2.08c0,0,1.79-2.01,4.82-.29,0,0-2.91-.85-4.29.66,0,0,.61.45.02.57s-.57.13-1.02-.08c-.44-.21-.65-.45-.73-.54-.07-.09.19-.25.54-.12,0,0-.67-1.82-3.7-2.29Z"/>
  <path class="st6" d="M77.22,373.13"/>
  <path class="st15" d="M295.34,89.07c-16.79,0-30.44,12.17-30.94,27.36.93.9,2.22,1.85,3.2,1.51,1.74-.6,2.16-.78,3.54.18s3.48,1.38,6.42,1.56,5.82-.06,6.06.24.72.78-1.08.72c-1.8-.06-7.5-.12-9.72-.06-2.22.06-2.46.66-3.66.42-1.2-.24-.42-1.26-1.56-.78-1.14.48-1.8.6-2.28.6-.14,0-.41-.04-.7-.08-.68-.1-1.53-.25-1.4-.04.11.19,1.04.68,1.57,1.12.04.24.09.47.14.71.08.38.17.75.26,1.13-2.39-.02-7.19-.1-11.8-.35-8.82-.48-19.47-1.47-19.47-1.47l-27.54,1.71,58.95.63c3.38,12.25,15.54,21.32,30.03,21.32,17.1,0,30.96-12.63,30.96-28.22s-13.86-28.22-30.96-28.22Z"/>
  <path class="st1" d="M366.48,198.53l35.82,16.02-9.63-13.14,22.68,15.03,56.7,30.33-62.19-24.12,12.51,13.41-23.67-13.23-10.44-3.6-8.28-9.18-13.5-11.52Z"/>
  <path class="st1" d="M432,179.18l19.71,14.04,27.81,20.7-29.7-15.84-17.82-18.9Z"/>
  <path class="st1" d="M476.82,140.57l12.69,16.56-3.87.18-5.67,7.2,23.31,27-20.7-11.16,16.29,18.27-50.22-33.93-1.35.63-5.4-3.78,12.24-8.01,1.98,3.33,20.7-16.29Z"/>
  <path class="st1" d="M521.73,169.91l7.47-3.51,11.07,8.55,1.35-.18,5.31,5.04-.63.72,11.43,9.63-.09.81,17.1,16.11-23.13-12.24-20.43-15.75-.36-1.08-9.09-8.1Z"/>
  <path class="st1" d="M372.33,127.97l27.81,24.84,9.72,10.26-13.41-8.55,22.95,30.33-26.64-23.31-2.88-8.91-11.34-8.01-6.21-16.65Z"/>
  <path class="st1" d="M364.23,123.02l-5.94,17.82,3.33-1.08-1.35,14.94-20.79,14.22-16.74,19.08,24.03-14.58,3.33,4.41,8.28,5.85-6.66,10.8-36.81,17.37,19.35-14.13-62.37,21.6,24.48-16.02-6.48.99,16.29-12.96-2.43-.36,10.89-12.06-5.76,1.17,11.52-11.25-16.74,9-25.83,15.39,3.78-6.57-54.45,25.47,22.95-19.8-21.24,5.76,33.21-24.48-11.07,13.77,9.27-2.61,48.42-30.51-10.35,17.82,41.94-36.45,6.84-1.53,17.1-11.07Z"/>
  <path class="st1" d="M330.03,225.53l-12.69,15.21-44.01,28.26,8.37-22.68-32.58,5.94s20.43-12.33,24.39-13.68,11.97-5.85,15.75-7.56,18.18-9.81,18.18-9.81l7.56-2.97-12.96,11.34-.09,2.43-3.33,5.76,8.19-2.52,23.22-9.72Z"/>
  <g>
    <path class="st4" d="M219.24,292.55l.06-4.02s7.5-1.38,9.12-5.7c0,0-1.71.7-3.64,1.29s-3.78.94-2.61-.13,1.75-1.89.58-1.84-5.17-.13-4.81-1.3,2.92-1.71,4.95-1.98.9-1.12,4.05-2.38,4.32-4.72,4.32-4.72c0,0-4.27,1.44-5.49,1.44s-1.57-.13-.76-.9,1.53-.99-.09-1.08-3.82-.31-4.27-1.93c-.2-.72,2.25-1.12,3.91-1.3s1.35-.9,1.08-1.35,1.93-.4,3.24-.81,4.9-2.52,5.13-5.76c0,0-.85.13-2.2.81s-3.64,1.48-3.46.58,1.26-1.35-.13-1.44-3.51-.54-3.73-1.35.13-.58,2.34-1.21,2.88-.67,2.52-1.21-1.21-.76.49-1.21,3.69-.99,4.23-1.44.13-1.35.45-1.93.31-1.62-.54-1.3-3.28,1.08-2.61.18,2.74-2.92,2.29-3.24-1.44.94-3.37.94-3.96-.45-.27-2.16,6.52-4.63,6.12-7.2c0,0-2.2,1.39-3.28,1.3s-2.07-.76-.36-1.89,2.34-1.21,2.2-1.71-1.12-1.08-.09-1.57,3.6-2.16,2.65-2.65-2.52-.76-1.84-1.66,1.12-.31,1.12-1.39-.13-1.21.72-2.2,1.8-5.04,2.07-6.61,1.12-3.24,1.39-2.88.99.81,1.53,2.97.72,3.01,1.03,3.64.58,1.66.36,1.93-1.08,1.08.4,2.34,3.15,2.92,1.89,3.15-2.29.27-1.98.58,3.19,2.56,2.7,3.15-.54.94.04,1.3,2.7,1.62,3.06,2.2.58,1.3-.27,1.44-1.98.18-1.71.58.63.81-.67.54-1.26-.36-1.03.09.04,2.38,2.79,3.55,5.04,1.57,4.63,2.47.54,1.66-1.26,1.39-2.74-.58-2.52-.13,1.8,2.2-.22,1.93-2.47-1.3-2.92-.81,1.44,3.69,3.46,4.36,2.11.27,2.2.99-.22,1.03,2.02,1.3,3.06,2.02,1.71,2.47-4.18.31-3.51.72,2.97,1.71-.13,1.66-3.42-1.08-3.42-1.08c0,0-.72,1.39,1.44,2.83s4.18,2.47,5.26,2.52.22.63,0,.99.31.27,2.47.58,2.88,2.2.4,2.52-3.64.04-3.64.04c0,0-.85.31.76,1.21s.72,1.75-2.25,1.35-3.19-1.57-3.19-1.57c0,0-.18,2.56,2.56,3.69s3.82,2.02,5.04,1.98.18.18.18.18c0,0,.9.67-.22.85s2.34.36,4.5.81,1.44,2.88-1.12,2.88h-3.73s.13,1.12,1.39,1.57.18.76-1.39.58-3.1-.72-4.32-1.17,2.11,5.62,9.4,4.54l-5.58,5.58-37.62.19Z"/>
    <path class="st4" d="M72.36,354.65s-3.36-1.98-.66-3.72,3.54-2.76,3.54-2.76c0,0-7.44.66-7.8-1.56s4.74-1.8,8.22-3.24c0,0-.6-1.14.66-1.68s5.46-2.64,7.8-7.02c0,0-5.82,2.94-8.04,2.7s-1.32-1.74.9-2.82c0,0-7.14.78-7.26-1.56s2.58-1.8,5.1-2.76,2.58-1.98,4.2-2.88,6.66-4.5,7.38-7.74c0,0-5.22,2.22-7.47,2.4s-2.07-.54-.77-1.62,2.93-2.74,2.3-2.92-4.41,1.62-6.61.22-1.76-2.02,2.25-3.28,6.3-4,9.68-10.3c0,0-4.27,1.98-6.07,2.29s-2.3-1.35-.59-2.52c0,0-4.23-.49-4.59-1.35s-1.12-1.39,1.66-2.74,9.45-3.51,11.61-8.23c0,0-2.65.4-1.62-1.08s1.8-2.83,1.8-2.83c0,0-5.22,3.33-6.89,3.46s-2.52-.36-.36-1.93c0,0,1.48-1.03-.49-.76s-4.73.54-5.76-1.39.59-1.21,2.2-1.57,3.02-1.26,3.02-1.26c0,0-2.25-1.08.18-1.71s7.52-1.57,10.31-7.74c0,0-4.45,3.01-6.7,2.38s.68-2.25.68-2.25c0,0-5.9.67-5.99-1.21s.59-1.53,3.78-2.52,7.24-3.01,7.83-5.13,1.26-2.65,1.26-2.65c0,0-3.33,1.17-4.77,1.39s-1.39-.58-.4-1.3,1.35-.9-2.16-.72-2.97-2.2-1.8-2.38,9.36-4.41,10.53-8.05c0,0-2.61-.4-2.48-1.57,0,0-1.62.76-3.69.63s-2.43-1.48-.23-2.29,7.16-3.28,8.28-6.75c0,0-.61-.5-1.91.43s-1.19-.65-.76-1.48-1.37.36-2.81.32-1.51-1.62.22-2.34,3.24-1.44,3.17-2.52-.54-.61.79-1.62,2.7-3.2,1.51-3.2-3.56-.29-1.62-1.91,3.78-3.71,4-6.44,1.33-8.03,2.45-7.67c1.12.36,2.27,4.36,2.12,6.44s.2,3.74,1.67,1.54,1.42,9.02,4.9,11.18,3.54,3.48,2.28,3.72-1.86-.36-2.16.24-.36.66-1.62.06,1.56,2.4,2.4,3.06-.6.42.54,1.32,3.09,2.1,3.85,2.37.54,2.79-1.35,2.07-4.27-1.8-3.78-1.12,1.21,1.12.13,1.03-1.12.27-.31,1.26,2.2,3.64,4.86,4.59,4.81,1.17,4.9,1.66-.22,1.93-1.98,2.07-2.29-.49-3.19-.4-1.08.45-.04,1.08,2.65,1.93,1.62,2.16-4.18-.45-5.22-.81-.49.27,0,.67.45-.04.81.85,1.12,2.56,3.6,3.37,3.96.94,3.51,1.26-1.21.94-.18,1.26,2.61,1.39,4.32,1.26,1.44,2.79-.76,2.88-4.36-1.03-4.18-.31,2.2,2.43,0,2.16-5.26-1.35-6.34-2.29-.27,1.71,1.89,3.24,6.21,3.42,7.78,3.78-.67,1.08,0,1.39,3.37.72,3.24,1.62-.45,2.25-2.29,2.47-3.55-.81-3.42-.31,1.71,1.3,1.98,1.93.81.9-1.12.76-5.53-1.08-6.79-2.38.94,2.56,3.33,4.81,5.49,2.88,6.07,3.78-.76.9,2.47,1.48,3.96.99,5.13,1.57-.31,2.29-2.7,2.47-5.67-.72-4.9-.09,4.32,3.37.4,2.83-5.8-2.07-6.16-1.71,1.26,2.97,3.64,3.51,4.45,9.9.49,9.36-5.04-2.16-5.04-2.16c0,0,1.71,4.23,9.72,6.93l8.1,10.35-27.81,28.17-31.41.33Z"/>
    <path class="st4" d="M129.78,337.31l-9.42-21.21s10.2-1.65,13.08-6.27c0,0-4.92,1.86-6.54,1.8s-1.26.3-2.58.9-5.4,1.02-5.22-.24.9-.48.48-3.3-3.84-6.48.48-7.8,7.86-2.7,11.16-4.2,11.04-8.34,12.66-11.22c0,0-9.78,5.04-12.9,5.22s-4.92.84,1.14-4.2c0,0-6.18.6-8.7.48s-4.74-1.74-2.16-3.54c0,0-3.06-3.9,1.26-4.14s10.2-2.28,13.5-4.32c0,0-6.72-.66-2.88-2.64s10.08-2.04,17.64-10.44c0,0-4.74,1.56-5.82,1.62s4.02-4.32,5.34-8.1c0,0-2.34,2.1-5.64,2.7,0,0-2.34,4.5-6.42,5.34s-5.94.18-.9-4.02c0,0-.84.24-3.6.54s-8.16-.6-8.52-1.86-1.2-2.1,1.44-2.64,7.2-1.44,7.2-2.16-4.32-2.04-1.14-2.76,10.62-2.04,11.64-3.54,1.26-1.86,2.88-2.1,9-6.48,9.78-10.62c0,0-8.04,6.54-9.54,5.94s.78-1.98.78-1.98c0,0-6.3,4.38-8.28,4.2s-1.98-1.74,1.14-3.84c0,0-10.08,1.14-10.8-1.74s2.28-2.64,5.28-3.54,6.72-3.3,6.72-3.3c0,0-4.62-1.14-4.5-2.7s4.5-.42,7.74-1.62,2.16-2.46,6.42-4.14,5.82-3.18,5.82-3.78.36-2.22.36-2.22c0,0-5.64,3.42-9.36,3.12s-.18-3.42-.18-3.42c0,0-5.82.12-7.38-1.74s-.42-2.4,3.3-3,6.48-1.68,6.48-1.68c0,0-1.38-.78.36-1.44s5.64-3.18,6.96-3.96.36-3.12,1.8-4.68c0,0-5.16,3.84-7.38,3.96s-1.38-.96.18-3.12,1.8-3.18,1.8-3.18c0,0-6.72,1.98-7.8,2.1s-4.74-1.56-.84-3.36,7.68-2.1,8.16-3.48.48-.06,3.24-2.7,2.94-3.84,2.94-3.84c0,0-2.16,1.38-2.82.96s-1.2-.3-2.04-.3-3-.6-.54-2.34,6.06-6,6.54-7.26-1.26.66-1.92-.18-2.34-.36-2.7-1.02-.6-1.32,1.2-2.16,6-5.16,5.94-7.44c0,0-3.18-.12-.96-2.46s3.42-9.36,3.84-10.86,2.46-4.2,3.96,1.14.84,6.9,2.46,8.7,1.98,2.46,1.02,2.94-1.32.6-1.32.6c0,0,1.74,5.58,5.34,7.44s1.44,2.46,0,2.76-2.4.66-2.7.96.48,1.26,2.58,3.48,5.1,3.54,4.68,4.56-.36,1.62-2.1,1.38-3.12-.48-2.94.12,3.36,2.88,2.7,3.24-1.98,2.1.54,2.82,4.44,1.2,6.36,1.92,3.48,3,1.02,3-4.08-.96-3.84-.12,1.92,2.28-.54,2.04-4.32-2.46-4.32-2.46c0,0,.48,4.2,4.44,6.3s7.86,2.34,8.34,3.24.84,1.8-1.02,2.28-4.62.48-4.62.48c0,0,4.74,3.3,3.48,3.96s-3.12.96-5.52.24-1.86-.54-1.86-.54c0,0,.36,1.56-.6,1.56s2.52,3.24,4.8,4.44,4.5.84,4.14,1.5,3.18,1.68,5.58,2.04,4.92.84,3.84,3.06-6.36,3.06-10.74,1.08c0,0,2.22,2.64,3.9,3.72s1.62,2.46-2.16,2.34-11.04-4.44-11.04-4.44c0,0,3.12,6.84,8.34,9.54s9.3,2.76,9.9,3.3.54,1.32-.48,1.62-2.76.9-1.32,1.2,3.06,1.2,5.64,1.5,4.98.66,4.68,2.52-3.66,3.78-7.8,3.24-4.68-1.26-4.68-1.26c0,0,4.14,4.08,2.58,4.2s-6.6-1.14-9.3-2.22-5.52-2.64-5.52-2.64c0,0,3.96,7.26,10.08,9.9s11.16,2.34,10.74,3.24-2.28,1.62-.6,2.28,7.68,1.2,9.78,1.62,1.68,2.16.06,3.06-3.48,1.62-6.84,1.44-5.94-.6-5.94-.6c0,0,2.88,3.42,3.84,3.72s-.54,1.02-4.14.66-12.48-5.1-12.48-5.1c0,0,6.24,6.96,10.86,9.66s11.88,4.08,12.84,4.44-.12.9-2.7,1.38-3.72.54-.72,1.44,6.18,1.68,11.52,2.04v4.26h-40.26l-49.14,44.7Z"/>
    <path class="st5" d="M184.5,296.9h68.85l-32.85,33.39-36-33.39Z"/>
    <path class="st4" d="M217.71,333.26l-4.23,4.05-33.03-29.79-55.35,49.59h-8.46l63.81-58.68,37.26,34.83Z"/>
    <path class="st5" d="M270.9,283.67h52.74l-69.66,66.24h-47.16l64.08-66.24Z"/>
    <path class="st4" d="M360,255.68v11.61l-75.51,70.29v22.44c0,.48-.39.87-.87.87h-29.19v-6.04l105.57-99.18Z"/>
    <g>
      <rect class="st2" x="170.95" y="325.38" width="8.36" height="7.55"/>
      <rect class="st2" x="181.51" y="325.38" width="8.36" height="7.55"/>
      <rect class="st2" x="170.95" y="335.18" width="8.36" height="7.55"/>
      <rect class="st2" x="181.51" y="335.18" width="8.36" height="7.55"/>
    </g>
    <rect class="st2" x="62.74" y="353.02" width="218.24" height="7.88"/>
    <polygon class="st4" points="256.72 293.63 180.14 293.63 106.77 359.85 63.3 359.85 63.3 356.07 115.69 337.91 173.31 291.22 191.39 289.3 259.69 290.26 256.72 293.63"/>
  </g>
  <path class="st5" d="M499.5,330.29l-32.85-33.39h68.85s-36,33.39-36,33.39Z"/>
  <path class="st4" d="M539.55,298.43l63.81,58.68h-8.46s-55.35-49.59-55.35-49.59l-33.03,29.79-4.23-4.05,37.26-34.83Z"/>
  <path class="st5" d="M513.18,349.91h-47.16s-69.66-66.24-69.66-66.24h52.74s64.08,66.24,64.08,66.24Z"/>
  <path class="st4" d="M465.57,354.86v6.04h-29.19c-.48,0-.87-.39-.87-.87v-22.44s-75.51-70.29-75.51-70.29v-11.61s105.57,99.18,105.57,99.18Z"/>
  <g>
    <rect class="st2" x="540.69" y="325.38" width="8.36" height="7.55"/>
    <rect class="st2" x="530.14" y="325.38" width="8.36" height="7.55"/>
    <rect class="st2" x="540.69" y="335.18" width="8.36" height="7.55"/>
    <rect class="st2" x="530.14" y="335.18" width="8.36" height="7.55"/>
  </g>
  <rect class="st2" x="439.02" y="353.02" width="218.24" height="7.88" transform="translate(1096.28 713.91) rotate(-180)"/>
  <g>
    <path class="st10" d="M565.51,271.79c-.2-.15-.36-.24-.36-.24,0,0,.14.09.36.24Z"/>
    <path class="st10" d="M588.51,320.27c-2.17-.05-5.14-.3-6.49-.42l4.17,3.38,2.32-2.96Z"/>
    <path class="st10" d="M530.53,282.16s-2.82,1.56-5.52,2.64-7.74,2.34-9.3,2.22c-1.48-.11,2.18-3.8,2.54-4.16-.17.15-1.05.76-4.64,1.22-3.16.41-5.85-.61-7.09-1.94-.07,0-.14,0-.2,0-1.17-.05-.59.76.58,1.84,1.17,1.08-.67.72-2.61.14s-3.64-1.29-3.64-1.29c1.62,4.32,9.12,5.7,9.12,5.7l.02,1.03,14.88-.21c3.66-3.15,5.87-7.19,5.87-7.19Z"/>
    <path class="st2" d="M511.13,280.83c.34,1.11-3.25,1.33-4.61,1.31,1.24,1.33,3.94,2.35,7.09,1.94,3.59-.47,4.47-1.07,4.64-1.22.02-.02.04-.04.04-.04,0,0-.02.02-.04.04-.37.37-4.03,4.05-2.54,4.16,1.56.12,6.6-1.14,9.3-2.22s5.52-2.64,5.52-2.64c0,0-2.21,4.04-5.87,7.19l3.95-.06,18.08,1.93,35.33,28.62c1.35.12,4.32.37,6.49.42l3.5-4.47c.31-.1.6-.22.89-.32.52-1.16.7-2.74-2-2.89-4.32-.24-10.2-2.28-13.5-4.32,0,0,6.72-.66,2.88-2.64-3.84-1.98-10.08-2.04-17.64-10.44,0,0,4.74,1.56,5.82,1.62s-4.02-4.32-5.34-8.1c0,0,2.34,2.1,5.64,2.7,0,0,2.34,4.5,6.42,5.34,4.08.84,5.94.18.9-4.02,0,0,.84.24,3.6.54,2.76.3,8.16-.6,8.52-1.86s1.2-2.1-1.44-2.64c-2.64-.54-7.2-1.44-7.2-2.16s4.32-2.04,1.14-2.76c-3.18-.72-10.62-2.04-11.64-3.54-1.02-1.5-1.26-1.86-2.88-2.1-1.62-.24-9-6.48-9.78-10.62,0,0,8.04,6.54,9.54,5.94,1.11-.44.15-1.31-.42-1.74-.22-.15-.36-.24-.36-.24,0,0,.16.09.36.24,1.35.91,6.22,4.11,7.92,3.96,1.98-.18,1.98-1.74-1.14-3.84,0,0,10.08,1.14,10.8-1.74.72-2.88-2.28-2.64-5.28-3.54-3-.9-6.72-3.3-6.72-3.3,0,0,4.62-1.14,4.5-2.7s-4.5-.42-7.74-1.62c-3.24-1.2-2.16-2.46-6.42-4.14s-5.82-3.18-5.82-3.78-.36-2.22-.36-2.22c0,0,5.64,3.42,9.36,3.12,3.72-.3.18-3.42.18-3.42,0,0,5.82.12,7.38-1.74,1.56-1.86.42-2.4-3.3-3-3.72-.6-6.48-1.68-6.48-1.68,0,0,1.38-.78-.36-1.44-1.74-.66-5.64-3.18-6.96-3.96-1.32-.78-.36-3.12-1.8-4.68,0,0,5.16,3.84,7.38,3.96,2.22.12,1.38-.96-.18-3.12-1.56-2.16-1.8-3.18-1.8-3.18,0,0,6.72,1.98,7.8,2.1,1.08.12,4.74-1.56.84-3.36-3.9-1.8-7.68-2.1-8.16-3.48-.48-1.38-.48-.06-3.24-2.7-2.76-2.64-2.94-3.84-2.94-3.84,0,0,2.16,1.38,2.82.96.66-.42,1.2-.3,2.04-.3s3-.6.54-2.34c-2.46-1.74-6.06-6-6.54-7.26s1.26.66,1.92-.18c.66-.84,2.34-.36,2.7-1.02s.6-1.32-1.2-2.16c-1.8-.84-6-5.16-5.94-7.44,0,0,3.18-.12.96-2.46-2.22-2.34-3.42-9.36-3.84-10.86-.42-1.5-2.46-4.2-3.96,1.14-1.5,5.34-.84,6.9-2.46,8.7s-1.98,2.46-1.02,2.94c.96.48,1.32.6,1.32.6,0,0-1.74,5.58-5.34,7.44-3.6,1.86-1.44,2.46,0,2.76,1.44.3,2.4.66,2.7.96.3.3-.48,1.26-2.58,3.48-2.1,2.22-5.1,3.54-4.68,4.56.42,1.02.36,1.62,2.1,1.38s3.12-.48,2.94.12c-.18.6-3.36,2.88-2.7,3.24.66.36,1.98,2.1-.54,2.82-2.52.72-4.44,1.2-6.36,1.92-1.92.72-3.48,3-1.02,3s4.08-.96,3.84-.12c-.24.84-1.92,2.28.54,2.04,2.46-.24,4.32-2.46,4.32-2.46,0,0-.48,4.2-4.44,6.3-3.96,2.1-7.86,2.34-8.34,3.24-.48.9-.84,1.8,1.02,2.28,1.86.48,4.62.48,4.62.48,0,0-4.74,3.3-3.48,3.96,1.26.66,3.12.96,5.52.24,2.4-.72,1.86-.54,1.86-.54,0,0-.36,1.56.6,1.56s-2.52,3.24-4.8,4.44c-2.28,1.2-4.5.84-4.14,1.5s-3.18,1.68-5.58,2.04c-2.4.36-4.92.84-3.84,3.06,1.08,2.22,6.36,3.06,10.74,1.08,0,0-2.22,2.64-3.9,3.72-1.68,1.08-1.62,2.46,2.16,2.34,3.78-.12,11.04-4.44,11.04-4.44,0,0-3.12,6.84-8.34,9.54-5.22,2.7-9.3,2.76-9.9,3.3-.6.54-.54,1.32.48,1.62s2.76.9,1.32,1.2c-1.44.3-3.06,1.2-5.64,1.5-1.28.15-2.52.31-3.4.67,1.82.3,3.73.84,4.04,1.84Z"/>
    <path class="st2" d="M509.76,288.53s-7.5-1.38-9.12-5.7c0,0,1.71.7,3.64,1.29s3.78.95,2.61-.14c-1.17-1.08-1.75-1.89-.58-1.84.06,0,.13,0,.2,0-.39-.41-.63-.86-.71-1.3-.15-.94.38-1.49,1.28-1.85-.31-.05-.61-.1-.91-.14-2.03-.27-.9-1.12-4.05-2.39-3.15-1.26-4.32-4.72-4.32-4.72,0,0,4.28,1.44,5.49,1.44s1.58-.14.77-.9c-.81-.76-1.53-.99.09-1.08,1.62-.09,3.83-.32,4.28-1.93.2-.72-2.25-1.12-3.91-1.31-1.67-.18-1.35-.9-1.08-1.35s-1.93-.4-3.24-.81c-1.3-.4-4.91-2.52-5.13-5.76,0,0,.85.14,2.21.81,1.35.67,3.64,1.48,3.46.59-.18-.9-1.26-1.35.14-1.44,1.4-.09,3.51-.54,3.73-1.35.23-.81-.14-.59-2.34-1.22-2.21-.63-2.88-.67-2.52-1.22.36-.54,1.22-.76-.49-1.21s-3.69-.99-4.23-1.44c-.54-.45-.14-1.35-.45-1.93-.32-.59-.32-1.62.54-1.3s3.29,1.08,2.61.18c-.67-.9-2.74-2.92-2.29-3.24s1.44.95,3.38.95,3.96-.45.27-2.16-6.53-4.64-6.12-7.2c0,0,2.2,1.4,3.28,1.3,1.08-.09,2.07-.76.36-1.89-1.71-1.12-2.34-1.22-2.2-1.71.13-.49,1.12-1.08.09-1.58-1.03-.49-3.6-2.16-2.65-2.65s2.52-.77,1.84-1.67c-.67-.9-1.12-.32-1.12-1.39s.14-1.22-.72-2.21c-.86-.99-1.8-5.04-2.07-6.61-.27-1.58-1.12-3.24-1.4-2.88s-.99.81-1.53,2.97c-.54,2.16-.72,3.02-1.04,3.65s-.58,1.66-.36,1.93,1.08,1.08-.41,2.34c-1.48,1.26-3.15,2.92-1.89,3.15,1.26.23,2.29.27,1.98.59s-3.2,2.57-2.7,3.15c.49.59.54.95-.04,1.31-.59.36-2.7,1.62-3.06,2.2-.36.59-.59,1.3.27,1.44.85.14,1.98.18,1.71.59-.27.4-.63.81.67.54,1.3-.27,1.26-.36,1.04.09-.23.45-.04,2.39-2.79,3.55-2.74,1.17-5.04,1.58-4.63,2.47.4.9-.54,1.67,1.26,1.4,1.8-.27,2.75-.59,2.52-.14-.22.45-1.8,2.21.23,1.93,2.02-.27,2.47-1.3,2.92-.81s-1.44,3.69-3.47,4.36c-2.02.68-2.11.27-2.21.99-.09.72.23,1.03-2.02,1.3-2.25.27-3.06,2.02-1.71,2.47,1.35.45,4.18.32,3.51.72-.67.4-2.97,1.71.14,1.66s3.42-1.08,3.42-1.08c0,0,.72,1.4-1.44,2.84-2.16,1.44-4.18,2.47-5.27,2.52-1.08.05-.22.63,0,.99.23.36-.31.27-2.47.58-2.16.32-2.88,2.21-.4,2.52,2.47.32,3.64.04,3.64.04,0,0,.86.32-.77,1.22-1.62.9-.72,1.76,2.25,1.35,2.97-.4,3.2-1.58,3.2-1.58,0,0,.18,2.57-2.57,3.69s-3.82,2.03-5.04,1.98c-1.22-.05-.18.18-.18.18,0,0-.9.67.22.85s-2.34.36-4.5.81c-2.16.45-1.44,2.88,1.12,2.88h3.74s-.14,1.12-1.4,1.58-.18.77,1.4.59c1.57-.18,3.1-.72,4.32-1.17,1.22-.45-2.11,5.62-9.4,4.54l3.35,3.35,39.81-.56-.02-1.03Z"/>
    <path class="st2" d="M505.81,280.84c.07.44.32.89.71,1.3,1.37.02,4.95-.2,4.61-1.31-.31-1-2.23-1.54-4.04-1.84-.89.36-1.43.92-1.28,1.85Z"/>
    <path class="st2" d="M589.99,320.26c-.41.02-.92.02-1.48,0l-2.32,2.96,18.12,14.68,40.42,14.01c-.14-.33-.43-.67-.94-.99-2.7-1.74-3.54-2.76-3.54-2.76,0,0,7.44.66,7.8-1.56.36-2.22-4.74-1.8-8.22-3.24,0,0,.6-1.14-.66-1.68-1.26-.54-5.46-2.64-7.8-7.02,0,0,5.82,2.94,8.04,2.7,2.22-.24,1.32-1.74-.9-2.82,0,0,7.14.78,7.26-1.56.12-2.34-2.58-1.8-5.1-2.76-2.52-.96-2.58-1.98-4.2-2.88-1.62-.9-6.66-4.5-7.38-7.74,0,0,5.22,2.22,7.47,2.4s2.07-.54.77-1.62c-1.3-1.08-2.93-2.74-2.3-2.93.63-.18,4.41,1.62,6.62.23,2.2-1.4,1.75-2.03-2.25-3.29-4.01-1.26-6.3-4.01-9.68-10.3,0,0,4.28,1.98,6.08,2.3s2.29-1.35.59-2.52c0,0,4.23-.49,4.59-1.35.36-.85,1.12-1.39-1.66-2.74-2.79-1.35-9.45-3.51-11.61-8.23,0,0,2.65.41,1.62-1.08-1.04-1.48-1.8-2.83-1.8-2.83,0,0,5.22,3.33,6.88,3.46,1.67.14,2.52-.36.36-1.93,0,0-1.49-1.03.49-.76,1.98.27,4.72.54,5.76-1.4,1.03-1.93-.59-1.22-2.21-1.58s-3.02-1.26-3.02-1.26c0,0,2.25-1.08-.18-1.71s-7.52-1.58-10.3-7.74c0,0,4.46,3.02,6.71,2.39s-.68-2.25-.68-2.25c0,0,5.9.68,5.99-1.21.09-1.89-.59-1.53-3.78-2.52s-7.24-3.02-7.83-5.13c-.58-2.11-1.26-2.65-1.26-2.65,0,0,3.33,1.17,4.77,1.39,1.44.23,1.4-.58.41-1.3-.99-.72-1.35-.9,2.16-.72s2.97-2.21,1.8-2.39c-1.17-.18-9.36-4.41-10.53-8.05,0,0,2.61-.41,2.47-1.58,0,0,1.62.77,3.69.63s2.43-1.48.23-2.29c-2.21-.81-7.16-3.29-8.28-6.75,0,0,.61-.5,1.91.43,1.3.94,1.19-.65.76-1.48s1.37.36,2.81.32,1.51-1.62-.22-2.34c-1.73-.72-3.24-1.44-3.17-2.52s.54-.61-.79-1.62c-1.33-1.01-2.7-3.2-1.51-3.2s3.56-.29,1.62-1.91c-1.94-1.62-3.78-3.71-4-6.44-.22-2.74-1.33-8.03-2.45-7.67-1.12.36-2.27,4.36-2.12,6.44s-.2,3.74-1.67,1.54c-1.47-2.21-1.42,9.02-4.9,11.18-3.48,2.16-3.54,3.48-2.28,3.72,1.26.24,1.86-.36,2.16.24.3.6.36.66,1.62.06,1.26-.6-1.56,2.4-2.4,3.06-.84.66.6.42-.54,1.32-1.14.9-3.09,2.1-3.85,2.37-.77.27-.54,2.79,1.35,2.07,1.89-.72,4.28-1.8,3.78-1.12-.49.68-1.22,1.12-.14,1.04,1.08-.09,1.12.27.32,1.26-.81.99-2.21,3.64-4.86,4.59-2.66.95-4.82,1.17-4.91,1.67-.09.49.22,1.93,1.98,2.07,1.76.14,2.3-.49,3.2-.4.9.09,1.08.45.04,1.08-1.03.63-2.65,1.93-1.62,2.16,1.04.22,4.18-.45,5.22-.81,1.03-.36.49.27,0,.67-.49.41-.45-.04-.81.86-.36.9-1.12,2.56-3.6,3.38-2.47.81-3.96.94-3.51,1.26.45.32,1.21.95.18,1.26-1.04.32-2.61,1.4-4.32,1.26-1.71-.14-1.44,2.79.77,2.88,2.2.09,4.36-1.03,4.18-.32s-2.21,2.43,0,2.16c2.2-.27,5.26-1.35,6.34-2.29s.27,1.71-1.89,3.24c-2.16,1.53-6.21,3.42-7.78,3.78s.67,1.08,0,1.4c-.67.31-3.38.72-3.24,1.62.14.9.45,2.25,2.29,2.47,1.85.22,3.55-.81,3.42-.32s-1.71,1.3-1.98,1.93-.81.9,1.12.77,5.53-1.08,6.79-2.39-.95,2.57-3.33,4.82c-2.39,2.25-5.49,2.88-6.08,3.78-.59.9.77.9-2.48,1.49-3.24.58-3.96.99-5.13,1.57-1.17.59.32,2.3,2.7,2.48s5.67-.72,4.91-.09-4.32,3.38-.41,2.84c3.92-.54,5.8-2.07,6.17-1.71.36.36-1.26,2.97-3.65,3.51-2.39.54-4.46,9.9-.49,9.36,3.96-.54,5.04-2.16,5.04-2.16,0,0-1.6,3.9-8.83,6.61-.31.7-.74,1.25-.74,1.25,2.58,1.8.36,3.42-2.16,3.54Z"/>
    <path class="st2" d="M588.51,320.27c.56.01,1.07.01,1.48,0,2.52-.12,4.74-1.74,2.16-3.54,0,0,.43-.55.74-1.25-.29.11-.58.22-.89.32l-3.5,4.47Z"/>
    <path class="st2" d="M586.19,323.23l-4.17-3.38c-.45-.04-.73-.07-.73-.07,6.06,5.04,4.26,4.38,1.14,4.2s-12.9-5.22-12.9-5.22c1.62,2.88,9.36,9.72,12.66,11.22,2.72,1.23,5.6,2.39,8.95,3.49l-7.23-7.33,2.28-2.92Z"/>
    <path class="st2" d="M524.66,289.35l-14.88.21.04,2.99-37.62-.2-2.23-2.23-9.66.14,2.97,3.38h52.54c1.41-.37,2.98-.86,4.63-1.57,1.55-.67,2.97-1.64,4.21-2.71Z"/>
    <path class="st2" d="M644.73,351.92c.61,1.42-1.6,2.73-1.6,2.73l-31.41-.33-16.4-16.61c-.4,1.39-1.28,2.93-1.48,4.28-.02.12-.03.22-.04.32l19.44,17.55h43.47v-3.78l-11.97-4.15Z"/>
    <path class="st2" d="M595.31,337.7l-4.18-4.23c-3.34-1.11-6.23-2.26-8.95-3.49-3.3-1.5-11.04-8.34-12.66-11.22,0,0,9.78,5.04,12.9,5.22s4.92.84-1.14-4.2c0,0,.28.03.73.07l-35.33-28.62-18.08-1.93-3.95.06c-1.25,1.07-2.66,2.04-4.21,2.71-1.65.71-3.22,1.21-4.63,1.57h24.04l53.92,48.67c.01-.1.03-.21.04-.32.2-1.35,1.08-2.89,1.48-4.28Z"/>
    <polygon class="st2" points="509.82 292.55 509.78 289.56 469.97 290.12 472.2 292.35 509.82 292.55"/>
    <path class="st2" d="M586.19,323.23l-2.28,2.92,7.23,7.33c.72.24,1.45.47,2.21.71,2.25.69,2.4,2.01,1.96,3.52l16.4,16.61,31.41.33s2.21-1.3,1.6-2.73l-40.42-14.01-18.12-14.68Z"/>
    <path class="st2" d="M593.35,334.18c-.76-.23-1.5-.47-2.21-.71l4.18,4.23c.43-1.51.29-2.83-1.96-3.52Z"/>
  </g>
  <path class="st9" d="M460.43,531.97c-.11-.08-.2-.14-.2-.14,0,0,.08.05.2.14Z"/>
  <path class="st9" d="M473.39,559.29c-1.22-.03-2.9-.17-3.66-.24l2.35,1.91,1.31-1.67Z"/>
  <path class="st9" d="M489.92,541.73c.75-.47.94-.79.49-1.13-.94.4-1.86.83-2.76,1.3.75.15,1.63.23,2.27-.18Z"/>
  <path class="st9" d="M487.49,543.25c-.29-.24-.6-.53-.86-.8-.64.35-1.27.71-1.89,1.09.83.29,1.74.57,2.32.62,1.27.1,1.17-.3.43-.91Z"/>
  <g>
    <path class="st2" d="M451.45,550.68c6.71.12,13.37.52,20.08.58.53,0,1.06.02,1.59.05-.16-.09-.39-.17-.73-.24-1.49-.3-4.06-.81-4.06-1.22s2.43-1.15.64-1.56c-1.79-.41-5.99-1.15-6.56-2-.57-.85-.71-1.05-1.62-1.18-.91-.14-5.07-3.65-5.51-5.99,0,0,4.53,3.69,5.38,3.35.63-.25.09-.74-.24-.98-.12-.08-.2-.14-.2-.14,0,0,.09.05.2.14.76.51,3.51,2.32,4.47,2.23,1.12-.1,1.12-.98-.64-2.16,0,0,5.68.64,6.09-.98.41-1.62-1.29-1.49-2.98-2-1.69-.51-3.79-1.86-3.79-1.86,0,0,2.6-.64,2.54-1.52s-2.54-.24-4.36-.91c-1.83-.68-1.22-1.39-3.62-2.33-2.4-.95-3.28-1.79-3.28-2.13s-.2-1.25-.2-1.25c0,0,3.18,1.93,5.28,1.76s.1-1.93.1-1.93c0,0,3.28.07,4.16-.98.88-1.05.24-1.35-1.86-1.69-2.1-.34-3.65-.95-3.65-.95,0,0,.78-.44-.2-.81-.98-.37-3.18-1.79-3.92-2.23-.74-.44-.2-1.76-1.01-2.64,0,0,2.91,2.16,4.16,2.23s.78-.54-.1-1.76-1.01-1.79-1.01-1.79c0,0,3.79,1.12,4.4,1.18.61.07,2.67-.88.47-1.89-2.2-1.01-4.33-1.18-4.6-1.96-.27-.78-.27-.03-1.83-1.52s-1.66-2.16-1.66-2.16c0,0,1.22.78,1.59.54.37-.24.68-.17,1.15-.17s1.69-.34.3-1.32c-1.39-.98-3.42-3.38-3.69-4.09-.27-.71.71.37,1.08-.1.37-.47,1.32-.2,1.52-.57.2-.37.34-.74-.68-1.22-1.01-.47-3.38-2.91-3.35-4.19,0,0,1.79-.07.54-1.39s-1.93-5.28-2.16-6.12c-.24-.85-1.39-2.37-2.23.64-.85,3.01-.47,3.89-1.39,4.9-.91,1.01-1.12,1.39-.57,1.66.54.27.74.34.74.34,0,0-.98,3.14-3.01,4.19-2.03,1.05-.81,1.39,0,1.56.81.17,1.35.37,1.52.54.17.17-.27.71-1.45,1.96-1.18,1.25-2.87,2-2.64,2.57.24.57.2.91,1.18.78.98-.14,1.76-.27,1.66.07-.1.34-1.89,1.62-1.52,1.83.37.2,1.12,1.18-.3,1.59-1.42.41-2.5.68-3.58,1.08-1.08.41-1.96,1.69-.57,1.69s2.3-.54,2.16-.07c-.14.47-1.08,1.29.3,1.15s2.43-1.39,2.43-1.39c0,0-.27,2.37-2.5,3.55s-4.43,1.32-4.7,1.83c-.27.51-.47,1.01.57,1.29,1.05.27,2.6.27,2.6.27,0,0-2.67,1.86-1.96,2.23.71.37,1.76.54,3.11.14,1.35-.41,1.05-.3,1.05-.3,0,0-.2.88.34.88s-1.42,1.83-2.71,2.5c-1.29.68-2.54.47-2.33.85.2.37-1.79.95-3.14,1.15-1.35.2-2.77.47-2.16,1.72s3.58,1.72,6.05.61c0,0-1.25,1.49-2.2,2.1-.95.61-.91,1.39,1.22,1.32,2.13-.07,6.22-2.5,6.22-2.5,0,0-1.76,3.86-4.7,5.38-2.94,1.52-5.24,1.56-5.58,1.86-.34.3-.3.74.27.91.57.17,1.56.51.74.68-.81.17-1.72.68-3.18.85-.72.08-1.42.18-1.92.38,1.02.17,2.1.47,2.28,1.04.19.63-1.83.75-2.6.74.7.75,2.22,1.32,4,1.09,2.02-.26,2.52-.6,2.62-.69-.21.21-2.27,2.28-1.43,2.35.88.07,3.72-.64,5.24-1.25,1.52-.61,3.11-1.49,3.11-1.49,0,0-1.24,2.28-3.31,4.05l2.23-.03,8.15.87c.8-.96,2.03-1.59,3.67-1.56Z"/>
    <path class="st2" d="M436.05,551.49s-4.9-.9-5.95-3.72c0,0,1.12.46,2.38.84s2.47.62,1.7-.09c-.76-.71-1.15-1.23-.38-1.2.04,0,.09,0,.13,0-.25-.27-.41-.56-.46-.85-.1-.61.25-.97.83-1.21-.2-.03-.4-.06-.59-.09-1.32-.18-.59-.73-2.64-1.56-2.06-.82-2.82-3.08-2.82-3.08,0,0,2.79.94,3.58.94s1.03-.09.5-.59c-.53-.5-1-.65.06-.7,1.06-.06,2.5-.21,2.79-1.26.13-.47-1.47-.73-2.56-.85-1.09-.12-.88-.59-.71-.88s-1.26-.26-2.12-.53c-.85-.26-3.2-1.65-3.35-3.76,0,0,.56.09,1.44.53.88.44,2.38.97,2.26.38-.12-.59-.82-.88.09-.94.91-.06,2.29-.35,2.44-.88.15-.53-.09-.38-1.53-.79-1.44-.41-1.88-.44-1.65-.79.23-.35.79-.5-.32-.79s-2.41-.65-2.76-.94c-.35-.29-.09-.88-.29-1.26-.21-.38-.21-1.06.35-.85s2.14.7,1.7.12c-.44-.59-1.79-1.91-1.5-2.12s.94.62,2.2.62,2.59-.29.18-1.41-4.26-3.03-4-4.7c0,0,1.44.91,2.14.85.71-.06,1.35-.5.23-1.23-1.12-.73-1.53-.79-1.44-1.12.09-.32.73-.71.06-1.03-.68-.32-2.35-1.41-1.73-1.73s1.65-.5,1.2-1.09c-.44-.59-.73-.21-.73-.91s.09-.79-.47-1.44c-.56-.65-1.18-3.29-1.35-4.32-.18-1.03-.73-2.12-.91-1.88s-.65.53-1,1.94c-.35,1.41-.47,1.97-.68,2.38s-.38,1.09-.23,1.26.71.71-.26,1.53c-.97.82-2.06,1.91-1.23,2.06.82.15,1.5.18,1.29.38s-2.09,1.67-1.76,2.06c.32.38.35.62-.03.85-.38.23-1.76,1.06-2,1.44-.23.38-.38.85.18.94.56.09,1.29.12,1.12.38-.18.26-.41.53.44.35.85-.18.82-.23.68.06-.15.29-.03,1.56-1.82,2.32-1.79.76-3.29,1.03-3.03,1.62.26.59-.35,1.09.82.91,1.18-.18,1.79-.38,1.65-.09-.15.29-1.18,1.44.15,1.26,1.32-.18,1.62-.85,1.91-.53s-.94,2.41-2.26,2.85c-1.32.44-1.38.18-1.44.65-.06.47.15.68-1.32.85-1.47.18-2,1.32-1.12,1.62.88.29,2.73.21,2.29.47-.44.26-1.94,1.12.09,1.09s2.23-.71,2.23-.71c0,0,.47.91-.94,1.85-1.41.94-2.73,1.62-3.44,1.65-.7.03-.15.41,0,.65.15.23-.21.18-1.62.38-1.41.21-1.88,1.44-.26,1.65,1.62.21,2.38.03,2.38.03,0,0,.56.21-.5.79-1.06.59-.47,1.15,1.47.88,1.94-.26,2.09-1.03,2.09-1.03,0,0,.12,1.67-1.67,2.41s-2.5,1.32-3.29,1.29c-.79-.03-.12.12-.12.12,0,0-.59.44.15.56s-1.53.23-2.94.53c-1.41.29-.94,1.88.73,1.88h2.44s-.09.73-.91,1.03-.12.5.91.38c1.03-.12,2.03-.47,2.82-.76.79-.29-1.38,3.67-6.14,2.97l2.19,2.19,25.99-.37v-.67Z"/>
    <path class="st2" d="M488.32,533.08c-.91-.2-1.7-.71-1.7-.71,0,0,1.27-.61-.1-.96-1.37-.36-4.24-.89-5.81-4.36,0,0,2.51,1.7,3.78,1.34,1.27-.36-.38-1.27-.38-1.27,0,0,3.32.38,3.37-.68.05-1.07-.33-.86-2.13-1.42-1.8-.56-4.08-1.7-4.41-2.89s-.71-1.5-.71-1.5c0,0,1.88.66,2.69.79s.79-.33.23-.74c-.56-.41-.76-.51,1.22-.41s1.67-1.24,1.01-1.34-5.28-2.49-5.93-4.54c0,0,1.47-.23,1.39-.89,0,0,.91.43,2.08.36,1.17-.08,1.37-.84.13-1.29-1.24-.46-4.03-1.85-4.67-3.8,0,0,.34-.28,1.08.24.73.53.67-.37.43-.83-.24-.47.77.2,1.58.18.81-.02.85-.91-.12-1.32-.97-.41-1.83-.81-1.79-1.42s.3-.34-.45-.91-1.52-1.81-.85-1.81,2.01-.16.91-1.08c-1.1-.91-2.13-2.09-2.25-3.63-.12-1.54-.75-4.52-1.38-4.32-.63.2-1.28,2.46-1.2,3.63.08,1.18-.11,2.11-.94.87s-.8,5.09-2.76,6.3-2,1.96-1.29,2.1,1.05-.2,1.22.14c.17.34.2.37.91.03.71-.34-.88,1.35-1.35,1.72-.47.37.34.24-.3.74-.64.51-1.74,1.18-2.17,1.34-.43.15-.3,1.57.76,1.17,1.07-.41,2.41-1.01,2.13-.63-.28.38-.68.63-.08.58s.63.15.18.71c-.46.56-1.24,2.05-2.74,2.59-1.5.53-2.71.66-2.76.94-.05.28.13,1.09,1.12,1.17.99.08,1.29-.28,1.8-.23s.61.25.03.61c-.58.36-1.5,1.09-.91,1.22.58.13,2.36-.25,2.94-.46s.28.15,0,.38-.25-.03-.46.48c-.2.51-.63,1.45-2.03,1.9-1.39.46-2.23.53-1.98.71.25.18.68.53.1.71-.58.18-1.47.79-2.43.71-.96-.08-.81,1.57.43,1.62,1.24.05,2.46-.58,2.36-.18-.1.41-1.24,1.37,0,1.22,1.24-.15,2.97-.76,3.58-1.29.61-.53.15.96-1.07,1.83-1.22.86-3.5,1.93-4.39,2.13s.38.61,0,.79c-.38.18-1.9.41-1.83.91.08.51.25,1.27,1.29,1.39,1.04.13,2-.46,1.93-.18s-.96.74-1.12,1.09c-.15.36-.46.51.63.43s3.12-.61,3.83-1.34c.71-.74-.53,1.45-1.88,2.71s-3.09,1.62-3.42,2.13c-.33.51.43.51-1.39.84s-2.23.56-2.89.89c-.66.33.18,1.29,1.52,1.39,1.34.1,3.2-.41,2.76-.05-.43.36-2.43,1.9-.23,1.6,2.21-.3,3.27-1.17,3.47-.96.2.2-.71,1.67-2.05,1.98-1.34.3-2.51,5.58-.28,5.28,2.23-.3,2.84-1.22,2.84-1.22,0,0-.9,2.2-4.98,3.72-.17.39-.42.7-.42.7.15.1.26.21.36.31,2.52.09,5.05.16,7.59.2,5.51-3.98,11.07-8.05,17.36-10.62-1.8-.79-4.32-1.99-5.27-4.08,0,0,1.5.23.91-.61s-1.01-1.6-1.01-1.6c0,0,2.94,1.88,3.88,1.95.94.08,1.42-.2.2-1.09,0,0-.84-.58.28-.43s2.66.3,3.25-.79c.58-1.09-.33-.68-1.24-.89Z"/>
  </g>
  <g>
    <path class="st2" d="M290.1,546.6c.17-.56,1.25-.87,2.28-1.04-.5-.2-1.2-.29-1.92-.38-1.45-.17-2.37-.68-3.18-.85-.81-.17.17-.51.74-.68.57-.17.61-.61.27-.91-.34-.3-2.64-.34-5.58-1.86-2.94-1.52-4.7-5.38-4.7-5.38,0,0,4.09,2.43,6.22,2.5s2.16-.71,1.22-1.32-2.2-2.1-2.2-2.1c2.47,1.12,5.44.64,6.05-.61s-.81-1.52-2.16-1.72c-1.35-.2-3.35-.78-3.14-1.15.2-.37-1.05-.17-2.33-.85s-3.25-2.5-2.71-2.5.34-.88.34-.88c0,0-.3-.1,1.05.3,1.35.41,2.4.24,3.11-.14.71-.37-1.96-2.23-1.96-2.23,0,0,1.56,0,2.6-.27,1.05-.27.85-.78.57-1.29-.27-.51-2.47-.64-4.7-1.83-2.23-1.18-2.5-3.55-2.5-3.55,0,0,1.05,1.25,2.43,1.39,1.39.14.44-.68.3-1.15s.78.07,2.16.07.51-1.29-.57-1.69c-1.08-.41-2.16-.68-3.58-1.08s-.68-1.39-.3-1.59c.37-.2-1.42-1.49-1.52-1.83-.1-.34.68-.2,1.66-.07.98.14.95-.2,1.18-.78.24-.57-1.45-1.32-2.64-2.57-1.18-1.25-1.62-1.79-1.45-1.96.17-.17.71-.37,1.52-.54.81-.17,2.03-.51,0-1.56-2.03-1.05-3.01-4.19-3.01-4.19,0,0,.2-.07.74-.34.54-.27.34-.64-.57-1.66-.91-1.01-.54-1.89-1.39-4.9-.85-3.01-2-1.49-2.23-.64-.24.85-.91,4.8-2.16,6.12s.54,1.39.54,1.39c.03,1.29-2.33,3.72-3.35,4.19-1.01.47-.88.85-.68,1.22.2.37,1.15.1,1.52.57.37.47,1.35-.61,1.08.1-.27.71-2.3,3.11-3.69,4.09-1.39.98-.17,1.32.3,1.32s.78-.07,1.15.17c.37.24,1.59-.54,1.59-.54,0,0-.1.68-1.66,2.16s-1.56.74-1.83,1.52c-.27.78-2.4.95-4.6,1.96-2.2,1.01-.14,1.96.47,1.89.61-.07,4.4-1.18,4.4-1.18,0,0-.14.57-1.01,1.79-.88,1.22-1.35,1.83-.1,1.76s4.16-2.23,4.16-2.23c-.81.88-.27,2.2-1.01,2.64-.74.44-2.94,1.86-3.92,2.23-.98.37-.2.81-.2.81,0,0-1.56.61-3.65.95-2.1.34-2.74.64-1.86,1.69.88,1.05,4.16.98,4.16.98,0,0-2,1.76.1,1.93,2.1.17,5.28-1.76,5.28-1.76,0,0-.2.91-.2,1.25s-.88,1.18-3.28,2.13c-2.4.95-1.79,1.66-3.62,2.33-1.83.68-4.29.03-4.36.91s2.54,1.52,2.54,1.52c0,0-2.1,1.35-3.79,1.86-1.69.51-3.38.37-2.98,2,.41,1.62,6.09.98,6.09.98-1.76,1.18-1.76,2.06-.64,2.16.96.09,3.71-1.72,4.46-2.23.11-.08.2-.14.2-.14,0,0-.08.05-.2.14-.32.24-.86.73-.24.98.85.34,5.38-3.35,5.38-3.35-.44,2.33-4.6,5.85-5.51,5.99-.91.14-1.05.34-1.62,1.18-.57.85-4.77,1.59-6.56,2-1.79.41.64,1.15.64,1.56s-2.57.91-4.06,1.22c-1.49.3-1.01.78-.81,1.49.2.71,3.25,1.22,4.8,1.05,1.56-.17,2.03-.3,2.03-.3-.52.43-.9.79-1.18,1.1,1.58-1.07,3.31-1.9,5.38-2.26.49-.08.96-.1,1.41-.06,1.04-.47,1.7-1.05,1.7-1.05-.14.41-.37.84-.63,1.25,2.28.71,3.69,2.96,3.79,5.11l6.09-4.94,10.19-1.09,2.23.03c-2.06-1.77-3.31-4.05-3.31-4.05,0,0,1.59.88,3.11,1.49s4.36,1.32,5.24,1.25c.84-.06-1.23-2.14-1.43-2.35.1.09.59.43,2.62.69,1.78.23,3.3-.34,4-1.09-.77.01-2.79-.11-2.6-.74Z"/>
    <path class="st2" d="M283.82,551.49s4.9-.9,5.95-3.72c0,0-1.12.46-2.38.84s-2.47.62-1.7-.09c.76-.71,1.15-1.23.38-1.2-.04,0-.09,0-.13,0,.25-.27.41-.56.46-.85.1-.61-.25-.97-.83-1.21.2-.03.4-.06.59-.09,1.32-.18.59-.73,2.64-1.56,2.06-.82,2.82-3.08,2.82-3.08,0,0-2.79.94-3.58.94s-1.03-.09-.5-.59c.53-.5,1-.65-.06-.7-1.06-.06-2.5-.21-2.79-1.26-.13-.47,1.47-.73,2.56-.85,1.09-.12.88-.59.71-.88s1.26-.26,2.12-.53c.85-.26,3.2-1.65,3.35-3.76,0,0-.56.09-1.44.53-.88.44-2.38.97-2.26.38.12-.59.82-.88-.09-.94-.91-.06-2.29-.35-2.44-.88-.15-.53.09-.38,1.53-.79,1.44-.41,1.88-.44,1.65-.79-.23-.35-.79-.5.32-.79s2.41-.65,2.76-.94c.35-.29.09-.88.29-1.26.21-.38.21-1.06-.35-.85s-2.14.7-1.7.12c.44-.59,1.79-1.91,1.5-2.12s-.94.62-2.2.62-2.59-.29-.18-1.41,4.26-3.03,4-4.7c0,0-1.44.91-2.14.85-.71-.06-1.35-.5-.23-1.23,1.12-.73,1.53-.79,1.44-1.12-.09-.32-.73-.71-.06-1.03.68-.32,2.35-1.41,1.73-1.73s-1.65-.5-1.2-1.09c.44-.59.73-.21.73-.91s-.09-.79.47-1.44c.56-.65,1.18-3.29,1.35-4.32.18-1.03.73-2.12.91-1.88s.65.53,1,1.94c.35,1.41.47,1.97.68,2.38s.38,1.09.23,1.26-.71.71.26,1.53c.97.82,2.06,1.91,1.23,2.06-.82.15-1.5.18-1.29.38s2.09,1.67,1.76,2.06c-.32.38-.35.62.03.85.38.23,1.76,1.06,2,1.44.23.38.38.85-.18.94-.56.09-1.29.12-1.12.38.18.26.41.53-.44.35-.85-.18-.82-.23-.68.06.15.29.03,1.56,1.82,2.32,1.79.76,3.29,1.03,3.03,1.62-.26.59.35,1.09-.82.91-1.18-.18-1.79-.38-1.65-.09.15.29,1.18,1.44-.15,1.26-1.32-.18-1.62-.85-1.91-.53s.94,2.41,2.26,2.85c1.32.44,1.38.18,1.44.65.06.47-.15.68,1.32.85,1.47.18,2,1.32,1.12,1.62-.88.29-2.73.21-2.29.47.44.26,1.94,1.12-.09,1.09s-2.23-.71-2.23-.71c0,0-.47.91.94,1.85,1.41.94,2.73,1.62,3.44,1.65.7.03.15.41,0,.65-.15.23.21.18,1.62.38,1.41.21,1.88,1.44.26,1.65-1.62.21-2.38.03-2.38.03,0,0-.56.21.5.79,1.06.59.47,1.15-1.47.88-1.94-.26-2.09-1.03-2.09-1.03,0,0-.12,1.67,1.67,2.41s2.5,1.32,3.29,1.29c.79-.03.12.12.12.12,0,0,.59.44-.15.56s1.53.23,2.94.53c1.41.29.94,1.88-.73,1.88h-2.44s.09.73.91,1.03.12.5-.91.38c-1.03-.12-2.03-.47-2.82-.76-.79-.29,1.38,3.67,6.14,2.97l-2.19,2.19-25.99-.37v-.67Z"/>
    <path class="st2" d="M232.54,540.6c6.34,2.59,11.94,6.7,17.49,10.72,1.11.8,2.22,1.62,3.32,2.43,1.24-.72,2.6-1.27,4.14-1.56-.43-.37-.46-.91.35-1.47,0,0-.24-.31-.42-.7-4.08-1.52-4.98-3.72-4.98-3.72,0,0,.61.91,2.84,1.22,2.23.3,1.07-4.97-.28-5.28-1.34-.3-2.26-1.78-2.05-1.98.2-.2,1.27.66,3.47.96,2.21.3.2-1.24-.23-1.6-.43-.36,1.42.15,2.76.05,1.34-.1,2.18-1.07,1.52-1.39-.66-.33-1.07-.56-2.89-.89s-1.07-.33-1.39-.84c-.33-.51-2.08-.86-3.42-2.13s-2.59-3.45-1.88-2.71c.71.74,2.74,1.27,3.83,1.34s.79-.08.63-.43c-.15-.36-1.04-.81-1.12-1.09s.89.3,1.93.18c1.04-.13,1.22-.89,1.29-1.39.08-.51-1.45-.74-1.83-.91-.38-.18.89-.58,0-.79s-3.17-1.27-4.39-2.13c-1.22-.86-1.67-2.36-1.07-1.83.61.53,2.33,1.14,3.58,1.29,1.24.15.1-.81,0-1.22-.1-.41,1.12.23,2.36.18,1.24-.05,1.39-1.7.43-1.62-.96.08-1.85-.53-2.43-.71-.58-.18-.15-.53.1-.71.25-.18-.58-.25-1.98-.71-1.39-.46-1.83-1.39-2.03-1.9-.2-.51-.18-.25-.46-.48s-.58-.58,0-.38,2.36.58,2.94.46c.58-.13-.33-.86-.91-1.22-.58-.36-.48-.56.03-.61s.81.3,1.8.23c.99-.08,1.17-.89,1.12-1.17-.05-.28-1.27-.41-2.76-.94-1.5-.53-2.28-2.03-2.74-2.59-.46-.56-.43-.76.18-.71s.2-.2-.08-.58c-.28-.38,1.07.23,2.13.63,1.07.41,1.19-1.01.76-1.17-.43-.15-1.53-.83-2.17-1.34-.64-.51.17-.37-.3-.74-.47-.37-2.06-2.06-1.35-1.72.71.34.74.3.91-.03.17-.34.51,0,1.22-.14s.68-.88-1.29-2.1-1.93-7.55-2.76-6.3-1.02.31-.94-.87c.08-1.18-.57-3.43-1.2-3.63-.63-.2-1.26,2.78-1.38,4.32-.12,1.54-1.16,2.72-2.25,3.63-1.1.91.24,1.08.91,1.08s-.1,1.24-.85,1.81-.49.3-.45.91-.81,1.01-1.79,1.42c-.97.41-.93,1.3-.12,1.32.81.02,1.83-.65,1.58-.18-.24.47-.3,1.36.43.83.73-.53,1.08-.24,1.08-.24-.63,1.95-3.42,3.35-4.67,3.8-1.24.46-1.04,1.22.13,1.29,1.17.08,2.08-.36,2.08-.36-.08.66,1.39.89,1.39.89-.66,2.05-5.28,4.44-5.93,4.54s-.96,1.45,1.01,1.34,1.78,0,1.22.41c-.56.41-.58.86.23.74s2.69-.79,2.69-.79c0,0-.38.3-.71,1.5s-2.61,2.33-4.41,2.89c-1.8.56-2.18.36-2.13,1.42.05,1.07,3.37.68,3.37.68,0,0-1.65.91-.38,1.27,1.27.36,3.78-1.34,3.78-1.34-1.57,3.47-4.44,4.01-5.81,4.36-1.37.36-.1.96-.1.96,0,0-.79.51-1.7.71-.91.2-1.83-.2-1.24.89.58,1.09,2.13.94,3.25.79s.28.43.28.43c-1.22.89-.74,1.17.2,1.09.94-.08,3.88-1.95,3.88-1.95,0,0-.43.76-1.01,1.6s.91.61.91.61c-.96,2.09-3.47,3.29-5.27,4.08Z"/>
  </g>
  <path class="st9" d="M473.39,559.29c.32,0,.61,0,.84,0,1.42-.07,2.67-.98,1.22-2,0,0,.24-.31.42-.7-.16.06-.32.12-.5.18l-1.97,2.52Z"/>
  <path class="st10" d="M360.72,557.96c71.78,0,135.99-32.36,178.88-83.27H181.83c42.89,50.91,107.1,83.27,178.88,83.27Z"/>
  <path class="st10" d="M594.53,324.15c0-129.13-104.68-233.81-233.81-233.81s-233.81,104.68-233.81,233.81c0,12.96,1.07,25.67,3.1,38.06h461.42c2.03-12.39,3.1-25.1,3.1-38.06Z"/>
  <path class="st2" d="M361.77,597.55c-95.34,0-179.44-49.01-228.46-123.16h-10.94c11.16,17.67,24.36,34.22,39.5,49.36,53.4,53.39,124.39,82.8,199.9,82.8s146.5-29.41,199.9-82.8c15.14-15.14,28.34-31.69,39.5-49.36h-10.94c-49.02,74.14-133.12,123.16-228.46,123.16Z"/>
  <path class="st2" d="M360.72,557.96c-71.78,0-135.99-32.36-178.88-83.27h-39.07c47.8,69.08,127.59,114.34,217.95,114.34s170.15-45.26,217.95-114.34h-39.07c-42.89,50.91-107.1,83.27-178.88,83.27Z"/>
  <g>
    <path class="st13" d="M187.54,501.33c.06,1.54-.56,2.95-1.87,4.26-1.31,1.3-2.74,1.94-4.28,1.92-1.54-.02-3.11-.84-4.71-2.45l-2.87-2.88,8.42-8.38,2.96,2.98c1.5,1.5,2.27,3.02,2.34,4.56ZM181.17,504.93c.89.03,1.75-.37,2.58-1.19.83-.82,1.23-1.69,1.22-2.59-.01-.91-.5-1.84-1.45-2.79l-1.04-1.05-5.12,5.1,1.19,1.19c.86.86,1.73,1.3,2.62,1.33Z"/>
    <path class="st13" d="M193.86,505.12l1.96,1.78-7.99,8.8-1.96-1.78,7.99-8.8Z"/>
    <path class="st13" d="M201.02,514.54c-.33,0-.61.13-.83.4s-.28.58-.17.93c.11.36.51,1,1.2,1.93s1.1,1.81,1.23,2.64-.15,1.65-.83,2.47c-.68.82-1.54,1.23-2.58,1.23-1.04,0-2.06-.41-3.06-1.24-1.45-1.2-2.31-2.82-2.58-4.85l2.45-.49c.27,1.68.83,2.87,1.66,3.56.38.31.74.47,1.08.49s.64-.11.86-.39.29-.59.2-.94c-.09-.35-.41-.88-.94-1.61-.86-1.13-1.36-2.11-1.52-2.92-.16-.81.12-1.66.84-2.53.72-.87,1.59-1.28,2.6-1.24,1.01.04,1.99.45,2.92,1.23.61.51,1.14,1.12,1.57,1.83.44.71.72,1.45.86,2.21l-2.27.64c-.3-1.26-.87-2.24-1.71-2.94-.34-.28-.68-.42-1.01-.42Z"/>
    <path class="st13" d="M210.02,530.64c1.05.77,2.22.98,3.49.64l.34,2.42c-1.99.43-3.72.1-5.19-.98-1.48-1.08-2.35-2.44-2.63-4.07s.11-3.16,1.15-4.58c1.04-1.42,2.4-2.25,4.07-2.49,1.67-.24,3.21.16,4.62,1.19,1.57,1.15,2.45,2.71,2.64,4.69l-2.44.54c-.06-1.34-.6-2.37-1.6-3.11-.81-.59-1.69-.83-2.64-.72-.96.11-1.76.61-2.41,1.5s-.91,1.8-.76,2.74c.15.93.6,1.68,1.37,2.25Z"/>
    <path class="st13" d="M226.64,542.62c-1.64.35-3.21.05-4.69-.89s-2.42-2.23-2.8-3.86c-.38-1.63-.11-3.19.83-4.66.94-1.47,2.23-2.38,3.87-2.73,1.64-.35,3.21-.05,4.69.89,1.48.94,2.42,2.23,2.8,3.86.39,1.63.11,3.19-.83,4.66-.94,1.47-2.23,2.38-3.87,2.73ZM228.22,538.45c.57-.89.77-1.84.59-2.84s-.68-1.76-1.52-2.29c-.84-.53-1.74-.66-2.72-.4s-1.75.85-2.31,1.74-.76,1.84-.59,2.83.68,1.75,1.52,2.28c.84.53,1.74.67,2.71.41.97-.26,1.74-.84,2.31-1.73Z"/>
    <path class="st13" d="M238.23,546.21l6.29-5.17,2.52,1.38-9.91,8.12-1.97-1.08,1.53-12.72,2.52,1.38-.99,8.09Z"/>
    <path class="st13" d="M258.84,548.1l-1.01,2.14-5.35-2.54-1.05,2.21,4.81,2.28-.97,2.04-4.81-2.28-1.06,2.23,5.51,2.61-1,2.12-7.91-3.75,5.09-10.74,7.74,3.67Z"/>
    <path class="st13" d="M271.5,557.63c-.71,1.77-1.87,2.63-3.47,2.58l1.21,5.07-3.03-1.22-1.03-4.5-1.7-.68-1.41,3.52-2.46-.99,4.43-11.03,4.18,1.68c1.71.69,2.82,1.47,3.32,2.34s.49,1.95-.02,3.23ZM268.01,557.74c.41-.15.74-.52.98-1.12.24-.59.24-1.06.02-1.41-.23-.35-.73-.68-1.52-1l-1.85-.74-1.31,3.27,1.8.72c.84.34,1.47.43,1.88.28Z"/>
    <path class="st13" d="M303.88,573.11c1.27.29,2.42.02,3.46-.8l1.27,2.08c-1.65,1.18-3.37,1.57-5.15,1.17-1.79-.41-3.13-1.3-4.03-2.69-.9-1.39-1.15-2.94-.76-4.66s1.3-3.02,2.74-3.9c1.44-.88,3.01-1.13,4.71-.75,1.9.43,3.33,1.52,4.28,3.25l-2.02,1.46c-.59-1.2-1.49-1.94-2.7-2.22-.97-.22-1.88-.09-2.71.39-.83.48-1.37,1.26-1.62,2.33-.24,1.08-.11,2.02.39,2.82.5.8,1.22,1.31,2.15,1.52Z"/>
    <path class="st13" d="M323.87,577.5c-1.37.97-2.92,1.32-4.66,1.04s-3.1-1.09-4.11-2.43c-1-1.35-1.37-2.88-1.09-4.61s1.1-3.07,2.47-4.04,2.92-1.32,4.66-1.04c1.73.28,3.1,1.09,4.11,2.43,1,1.35,1.37,2.88,1.09,4.61s-1.1,3.07-2.47,4.04ZM323.66,573.04c.17-1.05-.03-1.99-.58-2.84-.55-.84-1.32-1.35-2.3-1.5s-1.86.08-2.65.71c-.79.63-1.27,1.47-1.43,2.52-.17,1.05.03,1.99.58,2.83.56.84,1.32,1.34,2.3,1.49s1.86-.08,2.65-.71c.79-.63,1.26-1.46,1.43-2.51Z"/>
    <path class="st13" d="M340.83,569.02l2.64.23-1.04,11.84-2.64-.23-4.98-7.92-.65,7.42-2.64-.23,1.04-11.84,2.47.22,5.14,8.13.67-7.62Z"/>
    <path class="st13" d="M357.75,569.74l2.65.05-.23,11.88-2.65-.05-5.51-7.56-.15,7.44-2.65-.05.23-11.88,2.48.05,5.68,7.76.15-7.65Z"/>
    <path class="st13" d="M374.96,569.32l.1,2.36-5.91.25.1,2.45,5.32-.23.1,2.26-5.32.23.1,2.46,6.1-.26.1,2.34-8.75.37-.5-11.87,8.56-.36Z"/>
    <path class="st13" d="M387.01,577.85c1.3-.13,2.3-.76,3.02-1.87l1.87,1.57c-1.19,1.65-2.69,2.57-4.51,2.75-1.82.19-3.38-.23-4.68-1.26-1.3-1.03-2.04-2.42-2.22-4.17-.18-1.75.27-3.28,1.35-4.57,1.08-1.3,2.49-2.03,4.22-2.21,1.94-.2,3.64.37,5.1,1.71l-1.45,2.03c-.94-.95-2.03-1.36-3.27-1.24-.99.1-1.81.51-2.44,1.23-.64.72-.9,1.63-.79,2.73.11,1.1.54,1.95,1.27,2.54.73.6,1.57.85,2.52.75Z"/>
    <path class="st13" d="M401.4,568.57l1.54,9.46-2.62.43-1.54-9.46-3.32.54-.37-2.26,9.26-1.51.37,2.27-3.32.54Z"/>
    <path class="st13" d="M435.46,570.37l-3.63-11.31,2.53-.81,2.91,9.06,4.82-1.55.72,2.25-7.35,2.36Z"/>
    <path class="st13" d="M443.98,554.96l2.49-.92,4.13,11.14-2.49.92-4.13-11.14Z"/>
    <path class="st13" d="M459.17,557.09l-.19-8.15,2.64-1.13.27,12.8-2.06.88-9.06-9.05,2.64-1.13,5.75,5.77Z"/>
    <path class="st13" d="M473.38,542.04l1.05,2.12-5.29,2.64,1.09,2.19,4.76-2.38,1.01,2.02-4.76,2.38,1.1,2.21,5.46-2.73,1.05,2.1-7.83,3.91-5.31-10.63,7.67-3.83Z"/>
    <path class="st13" d="M491.3,545.62l-6.21-10.13,2.26-1.39,4.97,8.12,4.32-2.65,1.23,2.01-6.58,4.03Z"/>
    <path class="st13" d="M509.71,531.58c-.31,1.65-1.19,2.98-2.63,3.98-1.44,1-2.99,1.37-4.65,1.09-1.66-.27-2.98-1.13-3.98-2.56-1-1.43-1.34-2.97-1.03-4.62.31-1.65,1.19-2.98,2.63-3.98,1.44-1,2.99-1.37,4.65-1.09,1.66.27,2.98,1.13,3.98,2.56,1,1.43,1.34,2.97,1.03,4.62ZM506.47,528.51c-.61-.87-1.4-1.42-2.39-1.64-.99-.22-1.89-.05-2.7.51s-1.28,1.35-1.41,2.35c-.13,1,.11,1.94.71,2.81s1.4,1.41,2.38,1.63,1.88.05,2.69-.52,1.29-1.35,1.42-2.35-.1-1.93-.71-2.8Z"/>
    <path class="st13" d="M519.79,522.95c1.02-.81,1.53-1.88,1.53-3.21l2.42.3c-.1,2.03-.87,3.61-2.3,4.76s-2.97,1.64-4.61,1.47c-1.65-.16-3.02-.93-4.12-2.31-1.1-1.38-1.55-2.9-1.34-4.58.21-1.67.99-3.06,2.35-4.15,1.52-1.22,3.26-1.66,5.21-1.32l-.12,2.49c-1.31-.29-2.45-.04-3.42.74-.78.62-1.24,1.41-1.39,2.36s.13,1.86.82,2.72c.69.86,1.51,1.35,2.45,1.45.94.1,1.78-.14,2.52-.74Z"/>
    <path class="st13" d="M535.76,512.21l-2.54-1.16-3.68,3.35.91,2.64-2.09,1.9-4.2-12.25,1.9-1.73,11.79,5.33-2.09,1.9ZM527.49,508.46l1.22,3.56,2.2-2-3.42-1.56Z"/>
    <path class="st13" d="M541.53,506.64l-8.49-8.31,1.86-1.9,6.8,6.66,3.54-3.62,1.69,1.65-5.4,5.52Z"/>
  </g>
  <circle class="st9" cx="284.52" cy="565.94" r="2.82"/>
  <circle class="st9" cx="421.63" cy="568.98" r="2.82"/>
  <g>
    <path class="st10" d="M360.72,50.45c-150.92,0-273.7,122.78-273.7,273.7,0,12.41.86,24.62,2.47,36.59h542.47c1.61-11.98,2.47-24.19,2.47-36.59,0-150.92-122.78-273.7-273.7-273.7Z"/>
    <path class="st2" d="M87.02,324.15c0-150.92,122.78-273.7,273.7-273.7s273.7,122.78,273.7,273.7c0,12.41-.86,24.62-2.47,36.59h9.11c1.55-12.04,2.36-24.25,2.36-36.59,0-75.51-29.41-146.5-82.8-199.9-53.39-53.4-124.39-82.8-199.9-82.8s-146.5,29.41-199.9,82.8c-53.4,53.39-82.8,124.39-82.8,199.9,0,12.34.81,24.55,2.36,36.59h9.11c-1.61-11.98-2.47-24.19-2.47-36.59Z"/>
  </g>
  <g>
    <path class="st9" d="M203.04,467.76c2.72,0,4.94-1.07,6.66-3.23l3.54,3.65c-2.81,3.17-6.13,4.75-9.94,4.75s-6.96-1.21-9.43-3.62c-2.47-2.41-3.7-5.45-3.7-9.13s1.26-6.74,3.77-9.2c2.52-2.46,5.59-3.69,9.23-3.69,4.06,0,7.47,1.55,10.21,4.64l-3.44,3.9c-1.75-2.17-3.92-3.26-6.52-3.26-2.08,0-3.86.68-5.33,2.04-1.48,1.36-2.22,3.19-2.22,5.49s.7,4.15,2.09,5.55c1.39,1.39,3.08,2.09,5.07,2.09Z"/>
    <path class="st9" d="M264.15,469.23c-2.5,2.45-5.59,3.67-9.25,3.67s-6.75-1.22-9.25-3.67c-2.5-2.45-3.76-5.49-3.76-9.13s1.25-6.68,3.76-9.13c2.5-2.45,5.59-3.67,9.25-3.67s6.75,1.22,9.25,3.67c2.5,2.45,3.76,5.49,3.76,9.13s-1.25,6.68-3.76,9.13ZM262.27,460.12c0-2.21-.71-4.09-2.13-5.65-1.42-1.56-3.16-2.34-5.23-2.34s-3.81.78-5.23,2.34c-1.42,1.56-2.13,3.44-2.13,5.65s.71,4.09,2.13,5.64c1.42,1.55,3.16,2.32,5.23,2.32s3.81-.77,5.23-2.32c1.42-1.55,2.13-3.43,2.13-5.64Z"/>
    <path class="st9" d="M321,457.06l-6.7,13.54h-3.3l-6.66-13.54v15.6h-5.53v-24.78h7.48l6.38,13.61,6.42-13.61h7.44v24.78h-5.53v-15.6Z"/>
    <path class="st9" d="M375.92,450.09c1.74,1.48,2.6,3.75,2.6,6.81s-.89,5.3-2.67,6.72c-1.79,1.42-4.51,2.13-8.17,2.13h-3.3v6.91h-5.53v-24.78h8.75c3.8,0,6.58.74,8.31,2.21ZM371.86,459.84c.66-.74.99-1.83.99-3.26s-.43-2.45-1.29-3.05c-.86-.6-2.2-.9-4.02-.9h-3.15v8.33h3.72c1.84,0,3.1-.37,3.76-1.12Z"/>
    <path class="st9" d="M425.27,472.65l-2.3-5.35h-10.38l-2.3,5.35h-5.88l10.7-24.78h5.35l10.7,24.78h-5.88ZM417.8,455.25l-3.12,7.2h6.2l-3.08-7.2Z"/>
    <path class="st9" d="M465.88,452.82c-.53.44-.8,1.02-.8,1.74s.32,1.29.97,1.72c.65.42,2.15.93,4.5,1.51,2.35.58,4.18,1.45,5.48,2.61,1.3,1.16,1.95,2.85,1.95,5.07s-.83,4.02-2.5,5.41c-1.67,1.38-3.86,2.07-6.57,2.07-3.92,0-7.46-1.45-10.6-4.36l3.3-4.04c2.67,2.34,5.14,3.51,7.41,3.51,1.02,0,1.81-.22,2.39-.66.58-.44.87-1.03.87-1.77s-.31-1.33-.92-1.77-1.83-.88-3.65-1.33c-2.88-.69-4.99-1.58-6.33-2.68-1.33-1.1-2-2.82-2-5.17s.84-4.16,2.54-5.44c1.69-1.28,3.8-1.91,6.33-1.91,1.65,0,3.31.28,4.96.85,1.65.57,3.1,1.37,4.32,2.41l-2.8,4.04c-2.15-1.63-4.37-2.45-6.66-2.45-.92,0-1.65.22-2.18.66Z"/>
    <path class="st9" d="M514.72,452.82c-.53.44-.8,1.02-.8,1.74s.32,1.29.97,1.72c.65.42,2.15.93,4.5,1.51,2.35.58,4.18,1.45,5.48,2.61,1.3,1.16,1.95,2.85,1.95,5.07s-.83,4.02-2.5,5.41c-1.67,1.38-3.86,2.07-6.57,2.07-3.92,0-7.46-1.45-10.6-4.36l3.3-4.04c2.67,2.34,5.14,3.51,7.41,3.51,1.02,0,1.81-.22,2.39-.66.58-.44.87-1.03.87-1.77s-.31-1.33-.92-1.77-1.83-.88-3.65-1.33c-2.88-.69-4.99-1.58-6.33-2.68-1.33-1.1-2-2.82-2-5.17s.84-4.16,2.54-5.44c1.69-1.28,3.8-1.91,6.33-1.91,1.65,0,3.31.28,4.96.85,1.65.57,3.1,1.37,4.32,2.41l-2.8,4.04c-2.15-1.63-4.37-2.45-6.66-2.45-.92,0-1.65.22-2.18.66Z"/>
  </g>
  <path class="st2" d="M77.91,457.98l93.14-1.02c3.37.04,3.48,5.03.06,5.15.01,0-93.19-1.02-93.2-1.02-1.99-.06-2.07-3.04,0-3.12h0Z"/>
  <path class="st2" d="M639.88,457.98l-93.14-1.02c-3.37.04-3.48,5.03-.06,5.15-.01,0,93.19-1.02,93.2-1.02,1.99-.06,2.07-3.04,0-3.12h0Z"/>
</svg>