<svg width="301" height="241" viewBox="0 0 301 241" fill="none" xmlns="http://www.w3.org/2000/svg">
<path d="M140.289 126.91C138.684 127.468 136.381 127.747 135.613 126.212C134.916 124.816 135.962 123.281 137.009 122.095C139.591 119.234 142.103 116.443 144.685 113.582C146.22 111.907 147.755 110.163 149.779 109.046C151.802 107.93 154.314 107.581 156.338 108.697C167.084 114.698 144.266 125.514 140.289 126.91Z" fill="#FF4438"/>
<path d="M163.314 35.4288L154.313 49.7336C150.475 49.3149 146.567 49.3847 142.799 49.8034C128.006 51.3385 113.492 57.6885 103.513 68.7136C93.535 79.7388 88.6504 95.5787 92.279 109.953C93.9537 116.582 97.2333 122.653 99.1871 129.212C101.071 135.772 101.35 143.378 97.3729 148.89C93.1163 154.752 85.1615 156.706 77.9044 156.706C70.6473 156.706 63.3903 155.24 56.1332 156.217C44.8987 157.682 35.2692 164.66 26.9654 172.406C10.4975 155.101 0.449219 131.655 0.449219 105.906C0.449219 52.5248 43.7125 9.26154 97.0937 9.26154C122.773 9.26154 146.079 19.1702 163.314 35.4288Z" fill="#FF4438"/>
<path d="M275.241 29.4278C274.473 28.3811 272.38 28.2416 271.263 28.1718C262.471 27.5438 251.167 27.474 244.328 27.7531C241.328 17.4258 234.42 9.5407 226.116 5.35393C218.091 1.30673 208.811 -0.0190823 199.879 0.95783C194.924 1.51607 190.04 2.70232 185.365 4.4468C182.992 5.28416 180.131 6.26107 177.898 7.37754C176.433 8.07533 174.2 8.98246 173.572 10.727C172.804 12.8901 174.479 16.2395 175.595 18.4027C178.456 23.8455 181.666 29.4976 186.062 33.8937C186.411 34.2426 187.249 35.1498 187.807 35.0102C188.435 34.8706 188.854 34.1031 188.226 33.5448L188.156 33.475C188.086 33.4053 188.086 33.4053 188.016 33.3355C188.226 33.3355 188.435 33.2657 188.644 33.1262C188.993 32.847 189.133 32.3586 188.923 31.9399C188.923 31.8701 188.923 31.8701 188.923 31.8003C189.133 32.0097 189.272 32.219 189.482 32.4981C189.97 33.0564 192.412 35.5684 192.412 33.1262C192.412 32.4284 191.994 31.8003 191.435 31.3119C189.063 29.3581 179.154 14.7742 178.596 12.4714C185.993 8.77313 193.738 6.8193 201.972 6.26107C207.554 5.91217 213.207 6.12151 218.51 7.93577C223.185 9.5407 227.372 12.3319 230.651 16.0302C234.28 20.0774 237.211 25.1015 238.676 30.1954C239.165 31.8003 240.421 33.0564 242.165 33.2657C244.956 33.6146 247.887 33.5448 250.539 33.475C253.4 33.4053 264.076 32.9866 267.495 32.847C264.494 36.7547 260.168 41.3601 256.958 45.1282C255.353 47.0123 253.748 48.8265 252.144 50.7106C251.097 51.9666 248.864 55.7347 247.468 54.3391C247.189 54.06 246.91 53.8506 246.701 53.5715C246.422 53.2924 245.445 52.2457 245.166 52.0364C244.886 51.827 245.235 52.4551 244.956 52.1759C244.747 51.9666 244.468 51.8968 244.189 51.8968C244.119 51.8968 244.119 51.8968 244.049 51.8968C243.979 51.8968 243.91 51.827 243.84 51.827C243.561 51.4781 243.212 51.1292 242.863 50.7803C242.793 50.7106 242.723 50.6408 242.584 50.5012C242.374 50.3617 242.165 50.2221 241.886 50.2221C241.537 50.1523 241.118 50.2919 240.839 50.5012C240.56 50.7106 240.351 51.0595 240.281 51.4781C240.211 51.8968 240.351 52.2457 240.56 52.5248C240.7 52.7342 240.909 53.0133 241.049 53.2924C241.328 53.7809 241.607 54.2693 241.886 54.7578C243.63 57.3396 245.235 59.9912 247.468 62.1544C247.957 62.6429 248.515 63.1313 249.213 63.2709C250.678 63.6198 252.004 62.294 252.981 61.1077C258.912 53.7111 264.843 46.1749 270.565 38.5689C271.752 37.0338 276.915 31.591 275.241 29.4278Z" fill="#FF4438"/>
<path d="M196.74 14.0763C196.74 13.0296 196.391 12.0527 195.484 11.3549C192.204 9.05218 188.715 15.6115 192.971 17.0768C195.135 17.7746 196.67 15.9603 196.74 14.0763Z" fill="#FF4438"/>
<path d="M249.562 48.2683C249.423 46.8029 247.958 45.5469 246.981 44.5699C245.515 43.1744 244.05 41.709 242.375 40.5227C241.817 40.1738 241.259 39.7552 240.631 39.6156C240.212 39.5458 239.793 39.5458 239.444 39.8249C239.165 40.1041 239.096 40.453 239.165 40.8019C239.235 41.1508 239.444 41.4997 239.584 41.7788C240.561 43.3837 241.677 44.9886 243.003 46.3842C244.259 47.6402 245.864 49.1754 247.609 49.5941C248.027 49.7336 248.446 49.7336 248.795 49.5243C249.353 49.4545 249.562 48.8265 249.562 48.2683C249.562 48.338 249.562 48.338 249.562 48.2683Z" fill="#FF4438"/>
<path d="M255.913 39.1272C255.773 38.4294 254.866 37.8014 254.168 37.592C253.052 37.1733 251.865 37.1036 250.749 36.8942C249.493 36.6849 248.237 36.4756 247.051 36.2662C246.213 36.1267 245.306 35.9871 244.469 36.1267C243.98 36.1964 243.422 36.4756 243.352 36.964C243.073 38.3596 246.074 39.3365 247.051 39.6156C248.586 40.1739 250.191 40.453 251.796 40.7321C252.982 40.9414 254.587 41.0112 255.564 40.1739C255.913 39.8947 255.982 39.4761 255.913 39.1272Z" fill="#FF4438"/>
<path d="M300.432 149.937C300.292 148.96 299.594 147.983 298.827 147.215C294.71 143.308 284.661 135.632 282.219 133.888C281.033 133.05 278.172 130.608 276.707 129.631C278.172 129.561 279.358 129.491 280.684 129.491C282.219 129.491 283.824 129.422 285.359 129.352C288.429 129.282 291.5 129.143 294.57 128.933C295.407 128.863 296.315 128.794 297.012 128.375C298.129 127.677 298.268 126.212 297.71 125.165C297.361 124.467 296.733 123.839 296.175 123.281C293.872 121.188 291.43 119.304 288.988 117.42C285.848 115.047 282.708 112.535 279.637 110.093C278.032 108.837 276.427 107.511 274.822 106.255C274.055 105.627 271.403 103.534 270.496 102.906C273.148 103.115 277.753 103.394 281.312 103.115C282.428 103.045 283.684 102.836 283.964 101.58C284.033 101.091 283.964 100.603 283.754 100.114C282.568 97.8814 280.893 95.8578 279.567 93.6946C277.893 91.043 276.218 88.3216 274.543 85.67C271.194 80.297 267.845 74.924 264.495 69.6207C263.518 68.0856 262.541 66.4806 261.564 64.9455C261.146 64.2477 260.727 63.5499 260.099 63.0615C259.471 62.573 258.564 62.3637 257.866 62.7126C257.378 62.9219 257.099 63.3406 256.75 63.7593C250.4 71.9234 244.259 80.3668 238.537 89.0194C237.421 90.6243 236.444 92.299 235.467 93.9738C234.699 95.2298 233.025 98.2303 232.187 100.254C231.838 101.091 232.397 102.068 233.304 102.208C236.444 102.626 243.143 102.836 244.748 102.626C243.422 104.441 241.049 106.185 239.375 107.72C237.56 109.325 235.816 110.93 234.002 112.535C230.443 115.745 226.954 119.094 223.883 122.723C223.255 123.49 222.627 124.258 222.348 125.165C222.069 126.072 222.139 127.259 222.907 127.887C223.465 128.375 224.232 128.584 225 128.724C227.303 129.143 229.745 129.352 232.048 129.422C234.141 129.492 236.932 129.491 239.095 129.561C235.955 132.213 227.372 139.54 222.558 144.424C220.953 146.029 219.487 147.634 218.441 149.658C218.162 150.216 217.882 150.914 217.952 151.542C218.022 152.449 218.79 153.147 219.627 153.496C220.464 153.845 221.371 153.914 222.279 153.984C227.163 154.333 231.978 154.612 236.862 154.752C239.235 154.821 246.701 155.031 249.004 155.031C243.98 169.475 212.858 193.758 199.74 200.318C193.25 203.528 165.269 214.483 145.451 205.691C140.985 203.737 137.357 200.248 134.008 196.689C130.449 192.991 127.169 189.013 124.169 184.827C123.61 184.129 122.354 182.175 121.308 183.012C120.331 183.78 121.657 185.594 122.075 186.292C122.354 186.78 122.703 187.199 122.982 187.618L123.122 187.757C123.401 188.176 123.75 188.595 124.029 189.083L124.099 189.223C124.029 189.223 123.959 189.223 123.89 189.223C123.61 188.874 123.401 188.525 123.262 188.246C123.052 187.897 122.564 187.688 122.215 187.618C122.145 187.618 122.005 187.618 121.936 187.618C121.587 187.618 121.308 187.757 121.029 187.967C120.68 188.246 120.47 188.595 120.401 189.013V189.223L120.331 189.153L120.261 189.083C120.052 188.804 119.773 188.455 119.563 188.176C119.354 187.897 119.005 187.688 118.586 187.757C118.377 187.757 118.168 187.827 117.958 187.967C117.749 188.176 117.54 188.455 117.54 188.734C117.47 189.013 117.609 189.362 117.749 189.572C118.377 190.339 119.005 191.177 119.563 192.014H119.633C120.47 192.014 120.47 192.502 120.68 193.061C120.749 193.2 120.749 193.27 120.749 193.409C120.68 193.549 120.68 193.689 120.819 193.758L120.889 193.828C121.029 194.386 121.168 194.805 121.726 195.363C138.404 212.18 151.592 218.042 177.62 212.738C199.042 208.342 213.347 198.992 225.279 188.595C229.466 184.896 233.722 181.059 237.77 177.151C238.607 176.383 242.584 171.638 243.98 172.545C245.306 173.383 243.003 176.314 242.584 176.942C241.189 179.314 236.932 184.199 233.792 187.408C226.116 195.224 214.742 206.668 190.25 216.367C171.549 223.764 138.892 226.276 124.448 212.459C125.215 210.157 125.494 206.458 124.518 203.458C124.308 202.83 123.89 202.062 123.192 201.923C122.773 201.783 122.285 201.923 122.005 202.202C121.377 202.69 121.168 203.527 121.029 204.225C120.401 207.365 118.517 209.249 116.493 211.692C114.4 214.274 111.818 216.437 108.957 218.042C108.957 218.042 108.887 218.042 108.887 218.111C103.235 221.112 96.2569 221.74 90.1861 219.507C85.441 217.693 81.3938 214.274 78.184 210.296C74.9741 206.319 72.6016 201.783 70.2291 197.247C70.0198 196.759 69.6709 196.27 69.1127 196.201C68.694 196.201 68.3451 196.41 68.066 196.759C67.6473 197.457 67.7171 198.224 67.8566 198.992C68.2753 201.295 69.8105 205.412 69.322 207.644C68.9731 209.389 66.7402 210.575 65.1352 211.203C61.9952 212.738 58.3666 213.227 54.8776 213.087C51.9469 212.948 49.0162 212.389 46.5739 210.854C44.341 209.459 42.5965 207.296 41.0613 205.063C38.4097 201.225 36.1768 197.178 34.2927 192.921C34.0834 192.502 33.6647 192.223 33.246 192.293C32.4087 192.433 32.4784 193.34 32.618 194.107C33.246 197.457 35.3394 201.085 31.0131 202.062C28.4312 202.62 25.012 201.853 23.1978 199.759C20.9648 197.457 20.1275 194.107 20.4066 190.897C20.6857 187.688 22.0115 184.687 23.6862 181.966C28.7104 173.592 36.8746 167.242 46.0854 163.963C55.715 160.474 66.3913 160.334 76.2999 162.846C77.2769 163.055 78.2538 162.986 79.0911 162.427C80.8356 161.241 80.068 159.287 78.7422 158.45C77.7653 157.892 76.6488 157.752 75.5324 157.613C76.2999 157.473 76.928 156.985 77.2769 156.357C78.7422 157.333 80.1378 158.241 81.6032 159.218C81.8823 159.357 82.1614 159.497 82.4405 159.497C83.557 159.497 83.6268 158.38 83.2081 157.752C82.8592 157.264 82.301 157.054 81.8125 156.775C81.8823 156.845 83.8361 156.566 84.3246 156.636C85.4411 156.845 86.418 157.613 87.6042 157.403C91.0932 156.636 88.7905 153.496 86.8366 152.449C75.8115 146.657 62.4138 145.75 50.5513 149.379C32.618 154.891 16.2896 171.15 14.3358 190.409C13.7078 196.48 15.3127 203.109 19.8484 207.226C22.2209 209.389 25.4307 210.715 28.6406 210.854C30.2455 210.924 31.9202 210.715 33.4554 210.157C35.6883 209.319 36.107 207.854 37.2235 210.017C38.1306 211.622 39.596 213.785 41.3404 215.39C44.6201 218.53 48.8068 220.623 53.2727 221.321C56.971 221.879 60.7391 221.391 64.2281 220.065C66.1121 219.367 67.8566 218.391 69.4616 217.204C71.2758 215.878 72.0434 214.064 73.6483 216.088C75.4626 218.46 76.5093 219.577 78.184 220.972C81.7427 224.182 85.9993 226.555 90.6047 227.811C94.3728 228.857 98.3502 229.137 102.258 228.718C104.212 228.509 106.166 228.09 107.98 227.532C108.05 227.532 108.119 227.462 108.189 227.462C125.076 235.905 144.195 240.72 164.431 240.72C219.208 240.72 265.821 205.621 283.056 156.705C287.871 156.147 294.919 155.101 298.827 153.286C299.315 153.077 299.804 152.728 300.083 152.24C300.362 151.123 300.501 150.495 300.432 149.937ZM243.91 94.2529C243.212 94.8111 242.515 95.2996 241.677 95.6485C241.049 95.9276 240.77 95.5787 241.119 95.0204C241.468 94.532 241.887 94.0435 242.235 93.4853L243.84 91.1128C245.585 88.6007 247.26 86.0189 248.934 83.4371C250.609 80.7854 252.423 78.1338 254.656 75.9009C255.563 74.9937 256.75 74.0866 258.075 74.1564C258.913 74.1564 259.75 74.5751 260.448 75.1333C261.146 75.6915 261.634 76.3893 262.192 77.0871C263.588 78.9014 264.914 80.6459 266.309 82.4601C267.565 84.1349 268.612 85.9491 269.798 87.6936C270.636 88.9496 271.613 90.1359 272.45 91.4617C273.008 92.299 275.241 95.0204 274.194 96.0671C273.985 96.2765 273.706 96.2765 273.427 96.2765C271.124 96.1369 269.38 94.1831 267.914 92.5782C266.937 91.3919 265.891 90.2057 264.565 89.4381C261.285 87.4843 258.564 89.8568 256.122 91.8804C255.424 92.4386 254.586 92.9968 253.679 92.7875C252.981 92.6479 252.493 92.0199 251.865 91.6012C250.818 90.9035 249.353 90.9035 248.167 91.3919C246.98 91.8804 245.934 92.6479 244.957 93.4853C244.538 93.6946 244.259 93.9738 243.91 94.2529ZM238.258 122.095C238.118 122.165 237.979 122.234 237.839 122.304C236.723 122.793 235.327 122.932 234.141 122.583C233.722 122.444 232.815 122.095 232.606 121.606C232.327 121.048 233.164 120.56 233.513 120.281C234.071 119.792 234.63 119.234 235.188 118.745C236.374 117.699 237.56 116.722 238.746 115.745C241.189 113.791 243.701 111.977 246.422 110.511C251.586 107.72 257.727 106.255 263.448 107.651C267.914 108.767 271.752 111.488 275.311 114.349C277.823 116.373 280.335 118.466 282.708 120.699C283.266 121.258 284.312 121.746 284.592 122.583C285.01 123.909 283.126 123.351 282.498 123.142C279.916 122.095 277.823 120.141 275.45 118.815C273.008 117.489 269.868 116.792 267.565 118.397C266.449 119.164 265.751 120.42 264.635 121.118C262.82 122.304 260.378 122.025 258.424 121.118C256.47 120.211 254.796 118.745 252.981 117.629C251.167 116.443 249.004 115.536 246.911 115.954C245.027 116.303 243.491 117.559 242.166 118.885C241.049 120.071 239.793 121.327 238.258 122.095ZM289.616 147.913C289.616 148.123 289.476 148.332 289.267 148.472C288.709 148.89 287.732 149.03 287.034 149.1C284.243 149.588 281.452 149.867 278.66 149.937C276.707 150.007 275.939 149.937 274.055 150.425C272.241 150.914 271.613 152.379 271.054 154.054C270.496 155.659 268.193 161.59 267.635 163.265C261.634 181.407 244.678 200.806 231.629 209.808C209.369 225.089 186.831 230.253 169.874 231.439C165.687 231.718 161.431 231.788 157.174 231.439C156.756 231.369 156.267 231.369 155.918 231.16C155.5 230.951 155.221 230.602 155.221 230.183C155.221 229.485 155.779 229.206 156.477 229.067C158.151 228.648 160.035 228.788 161.71 228.718C163.454 228.648 165.199 228.578 166.943 228.439C173.224 228.02 183.062 226.555 192.762 222.926C221.999 212.11 243.212 194.945 258.564 158.45C259.052 157.194 259.401 155.659 259.68 154.403C261.425 154.403 264.984 154.263 265.751 154.124C267.077 153.845 267.565 152.937 266.449 151.96C263.169 149.239 257.098 146.797 253.051 145.471C249.353 144.285 245.445 144.285 241.747 145.331C240.003 145.82 238.258 146.587 236.514 147.146C234.63 147.774 232.745 148.262 230.792 148.681C230.303 148.751 229.187 149.03 229.187 148.192C229.187 147.564 230.373 146.797 230.792 146.448C234.49 143.238 238.258 140.028 241.956 136.888C243.561 135.493 245.236 134.097 247.12 133.12C249.004 132.213 252.284 131.096 254.028 132.701C255.563 134.097 255.912 136.469 257.657 137.795C261.634 140.866 266.24 135.772 270.426 136.19C271.892 136.33 273.218 137.097 274.404 138.005C275.59 138.912 276.707 139.889 277.893 140.726C279.637 141.842 281.661 142.47 283.615 143.238C285.569 144.006 287.522 144.983 288.848 146.587C289.337 146.936 289.685 147.495 289.616 147.913Z" fill="#00BED6"/>
<path d="M125.634 103.603C126.192 104.65 127.658 104.58 128.704 104.231C130.239 103.743 131.565 102.766 133.24 102.696C135.473 102.626 139.45 104.789 140.078 101.021C140.288 99.8351 139.729 98.6489 139.729 97.4626C139.729 95.5088 141.195 93.8341 142.032 92.2292C142.381 91.5314 142.66 90.7638 142.521 90.066C142.241 88.6006 140.846 88.4611 139.66 88.81C137.148 89.5776 134.984 91.1825 133.1 92.927C131.705 94.0435 124.169 101.021 125.634 103.603Z" fill="#1C1F2A"/>
<path d="M120.68 98.9279C120.052 95.8576 118.237 92.9268 115.376 91.601C111.818 89.9961 107.561 91.4615 105.119 94.3224C102.676 97.1834 101.63 101.231 101.839 104.929C102.258 110.93 105.817 117.699 111.608 120.071C113.771 120.978 116.632 120.908 118.307 119.234C120.749 116.791 119.703 112.744 120.051 109.674C120.4 106.115 121.377 102.696 120.68 98.9279C120.68 98.9976 120.68 98.9976 120.68 98.9279Z" fill="#1C1F2A"/>
<path d="M169.734 73.4586C169.734 73.3888 169.734 73.319 169.664 73.1795C169.036 69.9696 167.71 66.9691 165.687 64.457C163.663 61.945 160.872 59.9912 157.732 59.1538C152.708 57.7582 147.335 59.2934 143.287 62.4334C140.357 64.6664 138.054 67.8065 137.147 71.435C136.24 74.9937 136.798 79.0409 139.031 81.9717C140.217 83.5068 141.683 84.2744 143.567 84.2744C145.939 84.2046 148.312 84.2744 150.614 84.8326C152.638 85.3211 154.592 86.2282 156.546 86.8562C158.499 87.4843 160.663 87.9727 162.686 87.554C165.547 86.9958 167.92 84.6931 169.106 81.9717C170.153 79.2503 170.222 76.2498 169.734 73.4586Z" fill="#1C1F2A"/>
<path d="M164.85 100.114C164.78 99.6955 164.641 99.2768 164.571 98.8581C164.152 97.1137 163.454 95.6483 162.338 94.1829C161.989 93.6945 161.501 93.206 160.942 93.1362C160.245 92.9967 159.617 93.3456 159.058 93.834C155.011 97.5323 150.824 101.091 146.638 104.65C141.823 108.767 137.008 112.884 132.263 117.001C130.03 118.885 127.797 120.839 125.704 122.862C125.634 122.932 125.634 123.002 125.564 123.072C125.146 124.956 128.076 125.584 129.332 126.072C131.426 126.909 133.589 127.538 135.822 127.817C141.614 128.654 147.754 127.677 152.778 124.677C161.012 119.932 166.664 109.674 164.85 100.114ZM156.895 112.744C156.197 114.07 154.593 115.256 153.476 116.303C152.29 117.419 150.964 118.466 149.638 119.443C148.312 120.42 146.847 121.257 145.382 122.025C144.265 122.583 141.962 123.909 140.706 123.63C140.776 122.025 141.962 120.35 142.939 119.094C143.428 118.396 143.986 117.768 144.614 117.14C145.102 116.582 145.731 116.094 146.289 115.675C146.219 116.094 146.568 117.001 146.638 117.14C146.847 117.629 147.335 118.048 147.894 117.908C148.243 117.838 148.522 117.419 148.591 117.071C148.871 115.954 149.08 114.977 149.359 114C149.847 113.651 151.801 113.233 152.22 113.163C153.546 112.884 154.941 112.744 156.337 112.744C156.546 112.674 156.686 112.674 156.895 112.744Z" fill="#1C1F2A"/>
<path d="M246.563 54.6182C246.493 53.9902 246.214 53.3622 245.516 52.5946C231.839 38.0107 211.743 29.7768 191.716 30.2652C189.971 30.335 186.552 29.7768 185.366 31.1026C185.017 31.4515 185.017 31.9399 185.017 32.4284C184.878 37.5223 185.645 42.6162 185.645 47.7101C185.645 52.804 186.203 58.9446 184.947 63.8989C184.04 62.4335 183.482 60.7588 182.505 59.2935C181.877 58.3166 181.179 57.3396 180.412 56.4325C180.133 56.0836 179.714 55.5952 179.365 55.2463C178.876 54.688 178.179 53.9902 177.481 53.432C177.69 52.3853 177.83 51.3386 177.9 50.571C178.179 48.5474 178.109 46.5238 177.76 44.57C177.062 40.5926 175.178 36.8245 172.247 34.0333C167.223 29.1487 159.408 27.3345 152.709 29.4279C148.941 30.6141 145.801 33.0564 143.149 35.9174C141.056 38.2201 139.591 40.7321 138.684 44.3607C130.659 46.5936 121.239 51.4782 114.61 56.5721C108.12 61.5264 103.236 67.5972 97.9323 73.668C97.5834 74.0867 91.5126 73.3191 90.3961 73.4587C87.3956 73.8076 84.4649 74.645 81.8133 76.1801C77.2078 78.7619 73.5793 83.3674 72.6722 88.6008C71.765 93.625 73.3002 98.8584 76.2309 102.975C79.2314 107.162 84.3253 111.279 89.3494 112.465C89.4192 112.465 89.4192 112.465 89.489 112.465C90.1868 117.838 93.9549 126.282 96.6763 129.701C89.5588 133.329 83.6973 139.4 79.371 146.169C76.4402 150.844 73.998 155.798 72.1837 161.032C71.2766 163.614 70.4392 166.265 70.0205 168.917C69.6019 171.569 70.9277 173.313 72.8117 175.058C84.6044 185.524 99.4675 192.572 115.098 194.945C116.703 195.224 118.378 195.433 120.052 195.433C120.89 195.433 121.727 195.433 122.355 194.945C122.913 194.526 123.192 193.898 123.402 193.2C124.658 189.921 125.914 186.641 127.24 183.361C128.426 180.221 129.333 176.174 131.217 173.453C131.706 176.942 131.985 180.779 133.729 185.176C135.404 189.432 138.335 194.107 142.033 196.759C145.941 199.55 151.244 202.062 155.919 202.83C160.664 203.597 166.526 203.248 171.201 202.202C172.945 201.853 175.039 201.155 176.434 200.527C176.992 200.248 177.272 199.62 177.062 198.992C175.667 195.363 172.806 188.176 171.968 185.734C170.154 180.221 168.619 174.569 167.851 168.777C166.526 158.869 167.642 148.332 172.806 139.749C176.853 133.05 183.203 127.887 190.46 125.026C194.368 123.491 198.624 122.583 202.811 122.374C206.3 122.165 210.905 122.653 214.045 123.002C215.022 123.142 215.999 122.793 216.767 122.095C219.628 119.374 226.466 112.884 229.467 109.674C230.234 108.837 230.095 107.581 229.118 106.953C226.955 105.557 223.884 104.301 222.768 103.673C222.14 103.324 222 102.487 222.419 101.929C223.186 100.882 224.163 99.6958 224.722 98.8584C226.047 97.0442 227.303 95.2299 228.559 93.3458C230.932 89.7173 233.165 85.9492 235.258 82.1114C237.701 77.5757 239.864 72.8307 241.748 68.0159C242.725 65.5038 243.632 62.922 244.469 60.4099C245.446 59.0144 246.772 56.4325 246.563 54.6182ZM178.179 85.0421C178.039 87.6239 177.69 90.2058 177.272 92.7876C175.597 102.208 172.317 111.419 166.595 119.094C160.873 126.77 152.639 132.701 143.219 134.585C138.544 135.562 133.729 135.493 129.054 134.865C121.378 133.818 113.702 131.236 107.701 126.352C100.235 120.281 96.5367 111.14 96.467 101.65C96.6065 92.8574 101.003 84.4141 106.515 77.785C111.539 71.7142 117.75 66.8297 124.379 62.5731C131.217 58.177 138.684 54.5485 146.708 53.432C154.733 52.3155 163.455 54.06 169.456 59.5028C173.852 63.4802 176.574 69.2022 177.62 75.0636C178.248 78.2735 178.388 81.6229 178.179 85.0421Z" fill="#1C1F2A"/>
</svg>
